<?xml version="1.0" standalone="no"?>
<!DOCTYPE svg PUBLIC "-//W3C//DTD SVG 1.1//EN" "http://www.w3.org/Graphics/SVG/1.1/DTD/svg11.dtd" >
<svg xmlns="http://www.w3.org/2000/svg" xmlns:xlink="http://www.w3.org/1999/xlink" version="1.1">
<metadata>
Created by FontForge 20170731 at Wed Dec 12 23:47:41 2012
 By Aleksey,,,
(c) 1997, 2000 Adobe Systems Incorporated. All rights reserved.
</metadata>
<defs>
<font id="ChaparralPro-LightIt" horiz-adv-x="304" >
  <font-face 
    font-family="Chaparral Pro Light"
    font-weight="300"
    font-style="italic"
    font-stretch="normal"
    units-per-em="1000"
    panose-1="2 6 4 3 3 5 5 9 2 3"
    ascent="740"
    descent="-260"
    x-height="415"
    cap-height="650"
    bbox="-164 -316.8 1000 857"
    underline-thickness="54"
    underline-position="-208"
    slope="-10"
    unicode-range="U+0020-FB04"
  />
<missing-glyph horiz-adv-x="500" 
d="M0 0v700h500v-700h-500zM250 395l170 255h-340zM280 350l170 -255v510zM80 50h340l-170 255zM50 605v-510l170 255z" />
    <glyph glyph-name="T_h" unicode="Th" horiz-adv-x="939" 
d="M362 612l-99 -574l103 -3q-3 -15 -8 -36q-17 0 -58 0.5t-61 0.5t-59.5 -0.5t-58.5 -0.5q1 4 2 11.5t2 13.5t2 11l84 3q5 0 5 3l95 571q-121 0 -155 -3q-23 -2 -29 -19l-29 -96q-20 0 -37 3q6 26 16.5 77t16.5 77q10 0 41 -0.5t52 -0.5h160h179l152 1q7 1 9.5 -1t1.5 -7
q-73 -281 -91 -348l6 -2q62 71 115.5 100.5t87.5 30.5q46 -7 64 -50q5 -10 5 -28q0 -78 -85 -310q-3 -7 4 -7q20 0 75 15q4 -13 7 -32q-61 -21 -116 -21q-4 0 -12.5 9.5t-9.5 17.5q45 128 69 219q17 63 17 99q0 41 -35 41q-47 0 -120 -60t-85 -104q-6 -21 -27.5 -108.5
t-26.5 -104.5h-48l145 591q3 12 -0.5 15t-18.5 3q-45 3 -247 3z" />
    <glyph glyph-name="Tcaron_h" unicode="&#x164;h" horiz-adv-x="939" 
d="M362 612l-99 -574l103 -3q-3 -15 -8 -36q-17 0 -58 0.5t-61 0.5t-59.5 -0.5t-58.5 -0.5q1 4 2 11.5t2 13.5t2 11l84 3q5 0 5 3l95 571q-121 0 -155 -3q-23 -2 -29 -19l-29 -96q-20 0 -37 3q6 26 16.5 77t16.5 77q10 0 41 -0.5t52 -0.5h160h179l152 1q7 1 9.5 -1t1.5 -7
q-73 -281 -91 -348l6 -2q62 71 115.5 100.5t87.5 30.5q46 -7 64 -50q5 -10 5 -28q0 -78 -85 -310q-3 -7 4 -7q20 0 75 15q4 -13 7 -32q-61 -21 -116 -21q-4 0 -12.5 9.5t-9.5 17.5q45 128 69 219q17 63 17 99q0 41 -35 41q-47 0 -120 -60t-85 -104q-6 -21 -27.5 -108.5
t-26.5 -104.5h-48l145 591q3 12 -0.5 15t-18.5 3q-45 3 -247 3zM349 759q18 12 58.5 37t58.5 37q9 -9 18 -25q-95 -70 -127 -94q-21 0 -31 1q-44 46 -93 93q12 14 24 24q27 -21 92 -73z" />
    <glyph glyph-name="uni021A_h" unicode="&#x21a;h" horiz-adv-x="939" 
d="M362 612l-99 -574l103 -3q-3 -15 -8 -36q-17 0 -58 0.5t-61 0.5t-59.5 -0.5t-58.5 -0.5q1 4 2 11.5t2 13.5t2 11l84 3q5 0 5 3l95 571q-121 0 -155 -3q-23 -2 -29 -19l-29 -96q-20 0 -37 3q6 26 16.5 77t16.5 77q10 0 41 -0.5t52 -0.5h160h179l152 1q7 1 9.5 -1t1.5 -7
q-73 -281 -91 -348l6 -2q62 71 115.5 100.5t87.5 30.5q46 -7 64 -50q5 -10 5 -28q0 -78 -85 -310q-3 -7 4 -7q20 0 75 15q4 -13 7 -32q-61 -21 -116 -21q-4 0 -12.5 9.5t-9.5 17.5q45 128 69 219q17 63 17 99q0 41 -35 41q-47 0 -120 -60t-85 -104q-6 -21 -27.5 -108.5
t-26.5 -104.5h-48l145 591q3 12 -0.5 15t-18.5 3q-45 3 -247 3zM268 -108q0 -38 -29 -74.5t-71 -58.5q-12 13 -19 25q62 39 62 77q0 14 -8 20.5t-25 10.5q0 21 13.5 36t32.5 15q18 0 31 -14.5t13 -36.5z" />
    <glyph glyph-name="f_f_j" unicode="ffj" horiz-adv-x="732" 
d="M623 674q58 0 100 -22q0 -11 -12.5 -28t-22.5 -20q-50 25 -98 25q-54 0 -91 -43q-24 -30 -36 -66.5t-25 -105.5q48 0 150 3q18 0 42 2t41 4t18 2q4 0 10.5 -6t9.5 -12q-11 -61 -32 -173.5t-29 -155.5q-15 -78 -29.5 -121.5t-43.5 -85.5q-17 -26 -41 -50t-40.5 -35.5
t-21.5 -11.5q-9 1 -25.5 15t-17.5 21q77 30 114 79q30 41 52 156q36 200 58 331h-221q-45 -258 -97 -534h-47q39 207 95 534q-37 0 -110 -0.5t-109 -0.5q-16 -93 -49 -279.5t-45 -253.5q-32 -2 -47 -2q60 346 92 535h-83l3 18t3 17q40 3 81 3q3 0 5 8q12 69 28 108t47 72
q63 67 170 67q41 0 58 -12q0 -12 -11 -27.5t-21 -19.5q-23 13 -69 13q-63 0 -98 -42q-23 -28 -34.5 -64t-24.5 -103q3 0 103.5 0.5t114.5 0.5q3 1 5 6q11 70 28.5 111.5t49.5 75.5q65 67 153 67z" />
    <glyph glyph-name="f_j" unicode="fj" horiz-adv-x="475" 
d="M358 672q58 0 101 -22q0 -11 -12.5 -28t-22.5 -20q-52 25 -98 25q-55 0 -91 -43q-25 -30 -37.5 -67t-24.5 -104q61 1 114 3q28 1 72 4t63 4q8 0 14 -21q-50 -271 -62 -328q-15 -76 -29.5 -119.5t-43.5 -87.5q-18 -26 -42 -50t-40.5 -35.5t-20.5 -11.5q-9 1 -25.5 15
t-17.5 21q77 30 113 79q32 44 53 156q4 21 29.5 162.5t29.5 171.5q-30 0 -106.5 -0.5t-106.5 -0.5q-27 -151 -98 -534q-15 -1 -47 -1q51 277 96 535h-83q4 20 5 35l81 3q3 0 5 7q10 68 28 109t51 76q65 67 153 67z" />
    <glyph glyph-name="f_f" unicode="ff" horiz-adv-x="565" 
d="M371 668q39 0 58 -12q0 -12 -11 -27.5t-21 -19.5q-23 13 -70 13q-62 0 -97 -42q-16 -19 -27.5 -47.5t-16 -49t-14.5 -70.5q32 0 107 0.5t109 0.5q4 0 6 7q11 69 28 111t48 75q63 67 154 67q35 0 54 -12q0 -12 -11 -28.5t-21 -20.5q-30 15 -67 15q-45 0 -80 -42
q-16 -19 -27.5 -49t-16.5 -51t-15 -72q26 1 78.5 1.5t78.5 0.5q-1 -15 -6 -39q-44 -1 -157 -1q-3 -15 -97 -534h-47q57 314 95 534q-31 0 -110 -0.5t-109 -0.5q-83 -469 -94 -534q-16 -1 -47 -1q19 106 51.5 296t40.5 239h-83l3 18t3 17q41 3 80 3q4 0 6 8q11 68 27 107
t47 73q65 67 171 67z" />
    <glyph glyph-name="f_f_i" unicode="ffi" horiz-adv-x="763" 
d="M371 668q41 0 58 -12q0 -12 -10.5 -27.5t-20.5 -19.5q-26 13 -70 13q-64 0 -97 -42q-23 -28 -34 -63t-25 -104q32 0 106.5 0.5t108.5 0.5q4 0 6 7q10 69 28 110t50 76q66 67 154 67q58 0 100 -22q0 -11 -12.5 -28t-22.5 -20q-52 25 -98 25q-54 0 -91 -43
q-24 -30 -36 -66.5t-25 -105.5q57 0 102.5 1.5t70.5 2.5t41.5 2.5t24 2.5t9.5 1q4 0 11 -7.5t9 -13.5q-62 -262 -90 -369q-2 -6 4 -6q22 0 79 18q4 -13 7 -32q-58 -22 -108 -22q-4 0 -16 9t-15 18q12 51 41 174.5t43 182.5h-219q-56 -306 -96 -534h-47q87 494 94 534
q-31 0 -110 -0.5t-109 -0.5q-13 -73 -45.5 -253t-50.5 -281q-16 -1 -47 -1q39 214 94 535h-83q2 19 6 35q41 3 80 3q5 0 5 8q12 69 28.5 107.5t47.5 72.5q63 67 170 67z" />
    <glyph glyph-name="f_f_l" unicode="ffl" horiz-adv-x="776" 
d="M633 672q33 0 74.5 -9.5t61.5 -20.5q-9 -38 -75 -314.5t-70 -291.5q0 -7 4 -7q31 0 89 18q3 -13 5 -33q-65 -22 -121 -22q-4 0 -13.5 8.5t-14.5 17.5q4 21 84 358h-224q-11 -63 -44 -246t-51 -288h-47q45 256 93 534q-30 0 -109 -0.5t-110 -0.5q-62 -361 -92 -534
q-16 -1 -47 -1q20 115 90 535h-83l3 18t3 17q41 3 80 3q4 0 6 8q11 69 27 108t47 72q65 67 171 67q41 0 60 -12q0 -12 -11 -27.5t-21 -19.5q-26 13 -72 13q-62 0 -97 -42q-16 -19 -27.5 -47.5t-16 -49t-14.5 -70.5q32 0 107 0.5t109 0.5q5 0 5 7q10 67 28.5 108t52.5 78
q62 65 160 65zM607 628q-68 0 -103 -42q-27 -30 -40 -68t-25 -104q35 0 114.5 0.5t113.5 1.5q24 104 45 193q-36 19 -105 19z" />
    <glyph glyph-name="f_i" unicode="fi" horiz-adv-x="497" 
d="M358 672q59 0 101 -22q0 -11 -12.5 -28t-22.5 -20q-52 25 -98 25q-55 0 -91 -43q-25 -30 -37.5 -67t-24.5 -104q57 0 102.5 1.5t70.5 3t41.5 3t24.5 2.5t10 1q8 0 20 -21q-43 -172 -90 -369q-2 -6 3 -6q23 0 80 18q4 -13 7 -32q-58 -22 -108 -22q-4 0 -16 9t-16 18
q53 217 85 357q-31 0 -110.5 -0.5t-109.5 -0.5q-27 -151 -98 -534q-15 -1 -47 -1q51 277 96 535h-83q4 20 5 35l81 3q3 0 5 7q10 68 28 109t51 76q65 67 153 67z" />
    <glyph glyph-name="f_l" unicode="fl" horiz-adv-x="510" 
d="M366 672q34 0 75.5 -9.5t61.5 -21.5q-8 -28 -39 -158t-66 -279t-40 -168q-2 -7 4 -7q31 0 89 18q2 -13 4 -33q-63 -22 -121 -22q-4 0 -13.5 8.5t-13.5 17.5q5 25 18 81t32.5 138t32.5 139q-29 0 -110 -0.5t-113 -0.5q-17 -94 -52 -285t-45 -249q-16 -1 -47 -1
q62 344 95 535h-83q2 19 6 35q9 0 25.5 1t29.5 1.5t25 0.5q4 0 6 7q10 67 28 108t52 78q63 66 159 66zM341 628q-68 0 -103 -42q-27 -31 -39.5 -68t-24.5 -105q90 0 226 2q5 20 21.5 91t24.5 102q-38 20 -105 20z" />
    <glyph glyph-name="uni0162_h" unicode="&#x162;h" horiz-adv-x="939" 
d="M598 295l6 -2q62 71 115.5 100.5t87.5 30.5q46 -7 64 -50q5 -10 5 -28q0 -78 -85 -310q-3 -7 4 -7q20 0 75 15q4 -13 7 -32q-61 -21 -116 -21q-4 0 -12.5 9.5t-9.5 17.5q45 128 69 219q17 63 17 99q0 41 -35 41q-47 0 -120 -60t-85 -104q-6 -21 -27.5 -108.5
t-26.5 -104.5h-48l145 591q3 12 -0.5 15t-18.5 3q-45 3 -247 3l-99 -574l103 -3q-3 -15 -8 -36q-50 0 -77 1l-77 -69q57 -11 57 -60q0 -32 -36 -58t-100 -26l1 30q39 1 60 16t21 32q0 16 -11 27q-9 9 -43 14q-1 3 -2 10t-2 11l83 73q-19 0 -56 -0.5t-55 -0.5q1 4 2 11.5
t2 13.5t2 11l84 3q5 0 5 3l95 571q-121 0 -155 -3q-23 -2 -29 -19l-29 -96q-20 0 -37 3q6 26 16.5 77t16.5 77q10 0 41 -0.5t52 -0.5h160h179l152 1q7 1 9.5 -1t1.5 -7q-73 -281 -91 -348z" />
    <glyph glyph-name=".notdef" horiz-adv-x="500" 
d="M0 0v700h500v-700h-500zM250 395l170 255h-340zM280 350l170 -255v510zM80 50h340l-170 255zM50 605v-510l170 255z" />
    <glyph glyph-name=".null" horiz-adv-x="0" 
 />
    <glyph glyph-name="nonmarkingreturn" horiz-adv-x="333" 
 />
    <glyph glyph-name="space" unicode=" " horiz-adv-x="205" 
 />
    <glyph glyph-name="exclam" unicode="!" horiz-adv-x="240" 
d="M219 660q2 0 2 -2q-24 -119 -101 -506q-6 0 -19 -0.5t-19 -1.5q32 213 35 235q23 148 37 261q11 5 35 9.5t30 4.5zM81 75q21 0 31 -13.5t10 -29.5t-13 -28.5t-30 -12.5q-20 0 -31.5 11.5t-11.5 27.5q0 17 13 31t32 14z" />
    <glyph glyph-name="quotedbl" unicode="&#x22;" horiz-adv-x="271" 
d="M169 698q-26 -111 -40 -189q-11 -3 -42 -3q3 29 10 95t9 88q23 9 63 9zM297 698q-19 -84 -41 -189q-13 -4 -42 -4q4 34 19 184q23 9 64 9z" />
    <glyph glyph-name="numbersign" unicode="#" horiz-adv-x="501" 
d="M399 424l-48 -141h115q-4 -22 -9 -38h-118q-45 -126 -72 -207q-1 0 -40 3q48 138 70 204q-35 -1 -113 -1q-44 -124 -71 -206q-1 0 -40 3q20 54 70 203q-20 0 -56.5 -0.5t-51.5 -0.5q1 9 9 40h113q7 21 14.5 45t17 52.5l14.5 43.5h-115q1 5 3.5 18.5t4.5 19.5h120
q6 19 29 86t34 98q6 0 42 -3q-57 -163 -64 -181q35 1 113 1q59 171 63 183q6 0 42 -3q-22 -65 -63 -180q20 0 56 0.5t51 0.5q-2 -21 -8 -40h-112zM311 283l46 141h-112l-48 -141h114z" />
    <glyph glyph-name="dollar" unicode="$" horiz-adv-x="501" 
d="M111 445q0 43 26 76.5t57 50.5q46 25 103 28q1 8 8 45t10 55q19 4 41 6q-13 -68 -19 -104q90 0 126 -24q-8 -31 -30 -47q-57 33 -104 36q-30 -166 -41 -228q71 -25 102.5 -56.5t31.5 -81.5q0 -78 -73 -130q-45 -32 -118 -41q-2 -11 -8.5 -45t-9.5 -52q-26 -2 -38 -3
q2 11 9 45.5t10 53.5q-49 -2 -97 8t-73 27q10 31 35 44q64 -44 141 -44q7 44 22 130t20 115q-65 24 -98 55t-33 81zM161 447q0 -34 19 -52.5t72 -41.5q26 146 38 213q-44 0 -76 -22q-53 -36 -53 -97zM372 191q0 39 -21 61t-73 43q-8 -45 -23.5 -132.5t-17.5 -98.5
q53 6 86 31q49 38 49 96z" />
    <glyph glyph-name="percent" unicode="%" horiz-adv-x="713" 
d="M544 612l-1 4q-122 -3 -241 -3q34 -29 34 -97q0 -90 -63 -150q-44 -41 -101 -41q-46 0 -77 28q-39 32 -39 96q0 44 18 87t50 71q44 38 96 38q309 0 368 5q10 -12 15 -24q-175 -245 -218 -306q-38 -55 -244 -343q-7 3 -19 10t-15 9q192 266 246 344q24 35 90 128.5
t101 143.5zM179 358q39 0 64 28q46 46 46 131q0 43 -18 68q-20 26 -55 26q-36 0 -63 -23q-50 -46 -50 -136q0 -46 23 -72q22 -22 53 -22zM497 -10q-48 0 -77 28q-39 32 -39 96q0 43 18 85.5t49 71.5q42 38 97 38q56 0 86 -35t30 -95q0 -86 -63 -148q-44 -41 -101 -41z
M504 23q38 0 65 28q45 47 45 127q0 46 -18 71q-19 27 -56 27t-61 -23q-51 -47 -51 -136q0 -47 23 -72q21 -22 53 -22z" />
    <glyph glyph-name="ampersand" unicode="&#x26;" horiz-adv-x="653" 
d="M540 35l72 -2q-2 -17 -6 -33q-16 -1 -111 -4q-3 4 -24 38.5t-33 52.5q-30 -25 -44 -35.5t-45 -28.5t-65.5 -25.5t-77.5 -7.5q-83 0 -131 41q-52 49 -52 121q0 64 47 121.5t129 88.5l1 4q-76 58 -76 132q0 67 58 117q45 40 120 40q64 0 98 -36q36 -38 36 -91
q0 -54 -39.5 -99.5t-112.5 -76.5v-4q99 -88 167 -196q54 68 68 161q2 11 -7 11l-60 2q1 7 6 34h96h80q-2 -10 -6 -34l-58 -2q-25 -123 -100 -203q8 -12 23 -36.5t20 -31.5q11 -18 27 -18zM174 502q0 -41 17.5 -66.5t59.5 -61.5q135 51 135 151q0 44 -25 69q-25 26 -66 26
q-52 0 -84 -29q-37 -35 -37 -89zM76 156q0 -62 39 -96q42 -34 100 -34q111 0 204 93q-103 155 -191 218q-152 -60 -152 -181z" />
    <glyph glyph-name="quotesingle" unicode="'" horiz-adv-x="156" 
d="M172 698q-19 -84 -41 -189q-10 -3 -42 -3q15 124 19 183q25 9 64 9z" />
    <glyph glyph-name="parenleft" unicode="(" horiz-adv-x="318" 
d="M53 192q0 152 86 299.5t213 219.5q6 -10 14 -32q-95 -56 -178 -193.5t-83 -294.5q0 -107 32 -175t85 -121q-9 -13 -25 -29q-31 30 -52 55.5t-44.5 65.5t-35.5 91.5t-12 113.5z" />
    <glyph glyph-name="parenright" unicode=")" horiz-adv-x="318" 
d="M278 387q0 -162 -87 -305t-211 -216q-9 16 -16 32q44 29 87 73t83.5 105t66 142.5t25.5 168.5q0 103 -34 177.5t-84 118.5q20 25 23 28q62 -49 104.5 -131.5t42.5 -192.5z" />
    <glyph glyph-name="asterisk" unicode="*" horiz-adv-x="349" 
d="M196 577l16 122q21 2 40 0l-25 -122l107 71q11 -14 20 -35l-117 -63l97 -68q-9 -15 -25 -31l-92 76l-17 -126q-13 -2 -40 0l28 126l-106 -72q-3 5 -6.5 11t-7 13l-5.5 11l116 63l-99 67q14 18 26 31z" />
    <glyph glyph-name="plus" unicode="+" horiz-adv-x="501" 
d="M228 256l1 187q30 2 44 2v-188q116 0 173 1q2 -22 -2 -45h-171q0 -34 -0.5 -101.5t-1.5 -97.5q-18 -3 -43 -3q1 68 1 202q-29 0 -86 -0.5t-84 -0.5q0 30 1 43q27 0 83 0.5t85 0.5z" />
    <glyph glyph-name="comma" unicode="," horiz-adv-x="230" 
d="M134 18q0 -44 -30.5 -82.5t-75.5 -62.5q-14 18 -19 26q66 42 66 83q0 26 -37 36q0 24 15 41.5t35 17.5q19 0 32.5 -16.5t13.5 -42.5z" />
    <glyph glyph-name="hyphen" unicode="-" horiz-adv-x="284" 
d="M131 215h-104q5 34 7 44h101q21 0 59 0.5t57 1.5q-4 -32 -7 -46h-113z" />
    <glyph glyph-name="period" unicode="." horiz-adv-x="230" 
d="M89 84q24 0 34 -15t10 -31q0 -19 -13.5 -33t-32.5 -14q-44 0 -44 45q0 18 12 33t34 15z" />
    <glyph glyph-name="slash" unicode="/" horiz-adv-x="387" 
d="M-5 -53q-5 2 -31 21q190 309 234 382q188 314 197 329q18 -10 35 -24q-32 -53 -106.5 -175t-91.5 -150q-145 -237 -237 -383z" />
    <glyph glyph-name="zero" unicode="0" horiz-adv-x="501" 
d="M478 430q0 -121 -38.5 -228t-100.5 -160q-59 -52 -135 -52q-69 0 -113 48q-47 52 -47 167q0 110 33.5 214.5t95.5 163.5q62 62 145 62q76 0 119 -55q41 -56 41 -160zM306 608q-52 0 -98 -44q-50 -49 -80 -149t-30 -209q0 -81 27 -130q26 -49 89 -49q55 0 95 40
q53 52 83.5 152t30.5 207q0 92 -24 130q-30 52 -93 52z" />
    <glyph glyph-name="one" unicode="1" horiz-adv-x="501" 
d="M49 35l145 3q4 0 4 4q48 275 90 525q-30 -8 -89 -23t-89 -23q-1 5 -3.5 16t-3.5 17q54 17 115 40t95.5 37t35.5 14q3 0 2 -4q-7 -41 -106 -602l157 -3l-6 -36h-181q-29 0 -86.5 -0.5t-86.5 -0.5q4 24 7 36z" />
    <glyph glyph-name="two" unicode="2" horiz-adv-x="501" 
d="M164 565l-25 -94q-6 1 -19.5 2t-19.5 1q20 108 25 133q74 38 159 38q86 0 133 -47q42 -44 42 -115q0 -23 -5 -46t-16 -46t-21 -42t-29 -41.5t-30.5 -36t-33.5 -34.5t-30 -28.5t-30 -26.5t-23 -20q-77 -69 -146 -118v-4q105 -2 322 3h3q-4 -25 -11 -44q-8 0 -101 0.5
t-136 0.5h-148q-6 16 -8 29q103 79 202 166q91 82 123 122q66 82 66 163q0 48 -26 84q-32 43 -101 43t-108 -30q-7 -3 -8 -12z" />
    <glyph glyph-name="three" unicode="3" horiz-adv-x="501" 
d="M299 339v-5q64 -12 99 -49.5t35 -93.5q0 -48 -24 -88.5t-62 -66.5q-64 -46 -174 -46q-95 0 -139 15q-2 92 -4 132q22 5 40 5l13 -89q2 -10 6 -11q35 -15 94 -15q83 0 135 38q60 45 60 122q0 57 -42 90.5t-115 33.5q-38 0 -62 -1q1 6 2 19.5t2 19.5q105 -3 174 40.5
t69 111.5q0 41 -25 72q-27 34 -102 34q-25 0 -56 -7t-45 -18q-5 -4 -8 -10l-23 -92q-30 2 -41 4l24 126q27 14 73.5 24.5t84.5 10.5q92 0 135 -44q37 -40 37 -96q0 -61 -45.5 -104t-115.5 -62z" />
    <glyph glyph-name="four" unicode="4" horiz-adv-x="501" 
d="M193 33l90 3q6 0 6 4l24 135h-80.5h-130.5h-66q-7 19 -14 46q51 56 176 198q41 44 112 124.5t91 101.5q16 0 42 -2q-8 -44 -34 -196t-41 -234q83 0 109 1q-2 -22 -9 -39h-107q-16 -92 -25 -139l89 -3q-1 -6 -3.5 -17.5t-3.5 -15.5h-114q-23 0 -63 -0.5t-55 -0.5
q1 12 7 34zM319 213l66 353l-6 1q-20 -23 -70.5 -80.5t-85.5 -96.5q-110 -125 -146 -169q-7 -7 2 -7q51 -1 240 -1z" />
    <glyph glyph-name="five" unicode="5" horiz-adv-x="501" 
d="M72 140l13 -89q0 -9 7 -11q29 -13 79 -13q89 0 145 47q68 58 68 152q0 62 -44.5 99.5t-127.5 37.5q-61 0 -106 -9l-5 4q11 45 37.5 142.5t35.5 132.5h153q113 0 161 1q-2 -19 -10 -44h-268q-42 -151 -52 -189q48 5 75 5q100 0 151 -52t51 -120q0 -61 -28.5 -112
t-67.5 -79q-72 -53 -183 -53q-70 0 -117 12q-2 42 -6 132q17 4 39 6z" />
    <glyph glyph-name="six" unicode="6" horiz-adv-x="501" 
d="M113 301h5q85 81 174 81q67 0 109 -46q41 -47 41 -111q0 -62 -25 -111.5t-63 -79.5q-58 -44 -133 -44q-78 0 -123 56t-45 148q0 113 37 209.5t89 153.5q82 88 196 88q50 0 89 -14q0 -82 -1 -124q-23 -4 -39 -5l-9 83q-2 10 -4 11q-15 11 -58 11q-42 0 -80 -20.5
t-63 -52.5q-65 -84 -97 -233zM276 339q-40 0 -86.5 -25t-80.5 -73q-15 -104 24 -166q11 -19 37 -34.5t61 -15.5q56 0 100 39q58 53 58 150q0 47 -26 85q-28 40 -87 40z" />
    <glyph glyph-name="seven" unicode="7" horiz-adv-x="501" 
d="M447 586l-2 5h-122.5h-103.5h-47q-25 -1 -32 -23l-27 -80q-9 1 -38 6q32 124 36 139h83h300q5 -17 9 -42q-144 -208 -271 -472q-26 -53 -37 -117q-27 -3 -57 -3q12 69 43 126q127 235 266 461z" />
    <glyph glyph-name="eight" unicode="8" horiz-adv-x="501" 
d="M26 143q0 62 44.5 113.5t123.5 85.5l1 4q-85 48 -85 126q0 40 22 76t50 57q57 40 132 40q77 0 119 -42q40 -40 40 -90q0 -116 -142 -178l-1 -4q59 -23 91 -60.5t32 -83.5q0 -100 -93 -160q-58 -37 -147 -37q-85 0 -138 44q-49 40 -49 109zM161 474q0 -44 26 -69.5
t100 -53.5q68 26 101.5 61.5t33.5 90.5q0 38 -22 69q-13 16 -39 26.5t-52 10.5q-62 0 -100 -31q-48 -39 -48 -104zM402 179q0 53 -39.5 85.5t-126.5 60.5q-67 -24 -113 -70t-46 -106q0 -53 33 -85q38 -38 108 -38t116 31q68 46 68 122z" />
    <glyph glyph-name="nine" unicode="9" horiz-adv-x="501" 
d="M49 123q12 3 39 5l16 -81q2 -9 7 -11q14 -9 53 -9q88 0 149 72q27 31 46.5 75.5t27.5 74.5t18 80l-5 1q-86 -71 -168 -71q-34 0 -66.5 14.5t-48.5 33.5q-40 49 -40 117q0 53 27 101.5t71 80.5q55 39 123 39q81 0 126 -59q42 -56 42 -144q0 -121 -37 -220.5t-83 -147.5
q-83 -84 -202 -84q-46 0 -86 8q-6 82 -9 125zM244 298q86 0 164 85q20 105 -23 175q-31 52 -94 52q-61 0 -97 -35q-65 -60 -65 -146q0 -52 24 -88q13 -19 38.5 -31t52.5 -12z" />
    <glyph glyph-name="colon" unicode=":" horiz-adv-x="230" 
d="M146 406q24 0 34 -15t10 -32q0 -18 -13.5 -32t-32.5 -14q-44 0 -44 44q0 19 12 34t34 15zM89 84q24 0 34 -15t10 -31q0 -19 -13.5 -33t-32.5 -14q-44 0 -44 45q0 18 12 33t34 15z" />
    <glyph glyph-name="semicolon" unicode=";" horiz-adv-x="230" 
d="M146 406q24 0 34 -15t10 -32q0 -18 -13.5 -32t-32.5 -14q-44 0 -44 44q0 19 12 34t34 15zM88 77q19 0 32.5 -16.5t13.5 -42.5q0 -44 -30.5 -82.5t-75.5 -62.5q-14 18 -19 26q66 42 66 83q0 26 -37 36q0 24 15 41.5t35 17.5z" />
    <glyph glyph-name="less" unicode="&#x3c;" horiz-adv-x="501" 
d="M157 236q101 -86 234 -195q-14 -22 -25 -33q-35 27 -125 98t-139 109v39q221 165 266 199q6 -7 25 -35q-150 -114 -236 -182z" />
    <glyph glyph-name="equal" unicode="=" horiz-adv-x="501" 
d="M59 281q0 18 2 42q67 1 197.5 2t189.5 1q0 -18 -2 -44q-56 0 -189.5 -0.5t-197.5 -0.5zM58 143q0 25 3 45h386q0 -28 -1 -42q-196 0 -388 -3z" />
    <glyph glyph-name="greater" unicode="&#x3e;" horiz-adv-x="501" 
d="M354 232q-166 136 -237 192q16 24 26 33q157 -120 266 -204q0 -25 -1 -38q-230 -177 -264 -203q-13 14 -26 34q77 60 236 186z" />
    <glyph glyph-name="question" unicode="?" horiz-adv-x="419" 
d="M417 528q0 -123 -182 -240q-36 -23 -36 -52q0 -23 9 -75q-3 -1 -16 -6.5t-20 -7.5q-9 14 -16.5 48.5t-7.5 62.5q0 7 2 21q53 34 82.5 55t63.5 52.5t49.5 64.5t15.5 70q0 48 -27.5 74.5t-78.5 26.5q-48 0 -79 -19q-6 -5 -10 -12l-27 -89q-23 2 -41 6q5 20 14.5 63t14.5 62
q65 27 139 27q77 0 114 -39.5t37 -92.5zM165 75q40 0 40 -43q0 -16 -14.5 -28.5t-31.5 -12.5q-20 0 -30.5 10t-10.5 26q0 18 14 33t33 15z" />
    <glyph glyph-name="at" unicode="@" horiz-adv-x="600" 
d="M371 30q6 -9 12 -29q-68 -38 -156 -38q-81 0 -136 50.5t-55 142.5q0 60 25 121t68.5 110.5t107.5 80.5t136 31q87 0 139.5 -48t52.5 -132q0 -49 -19 -95.5t-55 -77.5q-52 -44 -127 -44q-14 0 -29 17q1 9 12 51l-6 2q-71 -69 -120 -69q-10 0 -29 11t-26 22q-2 5 -2 19
q0 37 15 84q16 49 51 87t81 38q42 0 72 -28h4l17 30q4 -1 33 -8q-27 -99 -57 -217q-2 -9 7 -9q46 5 80 36q54 51 54 146q0 68 -41 110.5t-124 42.5q-75 0 -139.5 -46t-100.5 -117t-36 -146q0 -81 46 -121.5t115 -40.5q78 0 130 34zM211 163q0 -24 24 -24q22 0 67.5 36
t56.5 61q13 37 18 65q-24 30 -68 30q-27 0 -48.5 -23t-34.5 -60q-15 -43 -15 -85z" />
    <glyph glyph-name="A" unicode="A" horiz-adv-x="568" 
d="M-53 35l55 3q6 3 8 5q57 102 177 324t158 292q7 1 30 1q22 -107 65.5 -341.5t52.5 -280.5l63 -2q-4 -24 -7 -36h-83q-23 0 -62.5 -0.5t-57.5 -0.5q2 18 6 36l86 3q5 0 3 6q-18 105 -30 167q0 4 -6 4l-255 -1q-56 -108 -90 -176l98 -2l-6 -36h-130q-14 0 -41.5 -0.5
t-40.5 -0.5q4 24 7 36zM346 570h-6q-28 -52 -86 -161t-81 -151q-1 -6 2 -6h229q-50 276 -58 318z" />
    <glyph glyph-name="B" unicode="B" horiz-adv-x="540" 
d="M108 649q84 2 167 2q103 0 158 -30q64 -35 64 -111q0 -55 -42 -100t-100 -63v-5q62 -12 97.5 -50t35.5 -89q0 -86 -75 -145t-190 -59q-15 0 -61 0.5t-55 0.5h-109q4 24 7 35l73 2q7 0 8 8l95 567l-80 2q4 24 7 35zM231 611l-42 -251q11 -3 57 -3q76 0 136 40t60 104
q0 50 -35 82t-114 32q-44 0 -62 -4zM181 320l-41 -245q-5 -24 13 -32t78 -8q82 0 141.5 42t59.5 116q0 21 -7 41t-24.5 41t-56 34t-93.5 13q-60 0 -70 -2z" />
    <glyph glyph-name="C" unicode="C" horiz-adv-x="570" 
d="M516 474l4 115q0 11 -4 12q-28 17 -90 17q-103 0 -179 -67q-65 -57 -98.5 -135t-33.5 -153q0 -101 38 -154q24 -35 65.5 -56.5t92.5 -21.5q66 0 184 41q4 -22 4 -38q-126 -44 -196 -44q-103 0 -171 65q-71 68 -71 195q0 104 50 195t122 144q94 71 219 71q80 0 124 -22
l-21 -162q-6 -1 -19.5 -1.5t-19.5 -0.5z" />
    <glyph glyph-name="D" unicode="D" horiz-adv-x="665" 
d="M113 649q96 2 189 2q146 0 228 -58q52 -37 75.5 -96t23.5 -117q0 -96 -42 -181.5t-113 -135.5q-89 -64 -247 -64q-22 0 -65.5 0.5t-52.5 0.5q-14 0 -51 -0.5t-56 -0.5q4 24 7 36l70 2q8 0 8 7l96 567l-77 3q1 5 2.5 11.5t2.5 13.5t2 10zM234 611l-93 -535q-4 -25 12 -33
t82 -8q149 0 223 66q48 42 82 110.5t34 160.5q0 108 -59 169q-72 74 -218 74q-46 0 -63 -4z" />
    <glyph glyph-name="E" unicode="E" horiz-adv-x="521" 
d="M9 35l73 3q3 0 5 4l94 570l-77 2q1 6 3.5 18t3.5 18h107h213h77q-5 -49 -17 -147q-22 -2 -34 -2l1 88q0 17 -23 20q-39 4 -195 4q-7 0 -8 -4l-44 -258q118 0 177 2q26 0 30 20l12 50q19 1 37 0q-1 -6 -7 -40t-9 -52q-15 -85 -16 -92h-37l6 53q1 13 -4 17t-20 4
q-106 2 -175 2l-44 -260q-2 -13 5.5 -16t46.5 -3q141 0 179 8q12 2 22 20l44 95q16 -3 32 -10q-19 -59 -51 -150q-15 0 -122 0.5t-183 0.5q-20 0 -56.5 -0.5t-52.5 -0.5q4 24 7 36z" />
    <glyph glyph-name="F" unicode="F" horiz-adv-x="512" 
d="M10 35l71 3q6 2 6 7l96 567l-76 2l3.5 17.5t4.5 18.5h106h213q37 1 78 1q-11 -107 -17 -152q-22 -2 -36 -2l-2 93q0 18 -22 20q-41 3 -176 3h-25l-48 -273q119 0 172 1q25 1 31 21l14 52h37q-2 -11 -6 -31.5t-7 -37t-5 -30.5q-2 -12 -8 -42.5t-9 -45.5h-38l6 54
q2 12 -3 16t-21 5q-46 1 -169 1l-45 -265l119 -3q-5 -26 -8 -35h-133q-20 0 -56.5 -0.5t-52.5 -0.5q1 4 2 11.5t2 13.5t2 11z" />
    <glyph glyph-name="G" unicode="G" horiz-adv-x="629" 
d="M601 235l-52 -2q-5 0 -5 -4l-36 -205q-56 -34 -180 -34q-122 0 -196 74q-73 74 -73 192q0 102 50.5 195.5t124.5 143.5q98 65 226 65q93 0 140 -33q-4 -26 -10.5 -77t-9.5 -76l-39 -3l6 103q0 12 -7 19q-32 28 -110 28q-107 0 -188 -69q-55 -45 -91 -122t-36 -166
q0 -100 43 -153q67 -85 197 -85q32 0 58 5t38 11.5t13 11.5l29 179l-112 2l6 36h139h82q-4 -24 -7 -36z" />
    <glyph glyph-name="H" unicode="H" horiz-adv-x="705" 
d="M12 35l69 3q4 0 7 6l94 568l-75 3q4 24 7 35h104h112q-2 -19 -6 -35l-88 -3q-4 0 -4 -4l-42 -246q2 -3 6 -3h350l42 253l-90 2l6 36h116q18 0 51.5 0.5t46.5 0.5q-4 -24 -6 -35l-70 -4q-3 0 -3 -4l-99 -570l81 -3q-5 -26 -8 -35h-103q-19 0 -57 -0.5t-54 -0.5l6 36l83 3
q4 0 5 6l46 274q0 4 -4 4l-351 -2l-49 -282l96 -3q-2 -24 -5 -36q-18 0 -57.5 0.5t-59.5 0.5q-18 0 -53.5 -0.5t-49.5 -0.5z" />
    <glyph glyph-name="I" unicode="I" horiz-adv-x="296" 
d="M9 35l72 3q6 0 6 5l95 568l-82 4l3.5 17.5l3.5 17.5h113h105q-3 -17 -8 -35l-82 -3q-1 -1 -3 -4l-97 -570l90 -3q-1 -17 -8 -36q-15 0 -51.5 0.5t-55.5 0.5q-18 0 -55 -0.5t-53 -0.5q3 12 7 36z" />
    <glyph glyph-name="J" unicode="J" horiz-adv-x="464" 
d="M492 616l-75 -3q-3 0 -3 -3q-27 -174 -54 -351q-11 -73 -26 -118.5t-43 -78.5q-66 -75 -181 -75q-58 0 -105 17l9 141q13 2 37 2l2 -95q0 -10 5 -12q27 -15 68 -15q81 0 127 56q37 45 56 168q10 64 28 187.5t26 176.5l-126 3q1 7 4 19.5t3 14.5h156h99q-2 -19 -7 -34z
" />
    <glyph glyph-name="K" unicode="K" horiz-adv-x="598" 
d="M14 35l68 3q2 0 5 3l94 570l-74 4q5 28 7 35h105h98q-5 -29 -7 -36l-74 -2q-4 0 -5 -6l-44 -255q57 3 73 8q31 24 112.5 107.5t131.5 140.5q4 4 -1 4l-69 3q3 12 7 36h122h69q-2 -20 -6 -35l-54 -4q-140 -146 -269 -266l-2 -5q49 -32 95 -135q43 -93 71 -145
q11 -23 30 -23l76 -1q-4 -27 -7 -36q-12 0 -36 -0.5t-36 -1.5q-6 0 -24 -0.5t-26 -0.5q-25 34 -87 175q-64 142 -111 142q-52 0 -65 -1l-47 -275l90 -3q-1 -13 -7 -36q-15 0 -52.5 0.5t-56.5 0.5q-18 0 -52 -0.5t-49 -0.5q4 24 7 36z" />
    <glyph glyph-name="L" unicode="L" horiz-adv-x="505" 
d="M10 35l73 3q2 0 4 4l99 570l-76 2q1 7 3.5 19.5t3.5 16.5h107h116q-5 -26 -8 -36l-93 -2q-3 0 -3 -4l-98 -552q-2 -13 3.5 -16.5t34.5 -3.5q146 0 180 6q11 4 22 21l53 106q15 -2 35 -9q-24 -63 -63 -161q-12 0 -113.5 0.5t-177.5 0.5q-20 0 -56.5 -0.5t-52.5 -0.5
q1 7 3.5 19.5t3.5 16.5z" />
    <glyph glyph-name="M" unicode="M" horiz-adv-x="826" 
d="M171 612l-72 2l6 36h146q4 -16 27 -121t52 -233.5t50 -217.5h5q49 83 119 210t128.5 234.5t69.5 127.5h147q0 -5 -1 -11t-2.5 -13.5t-2.5 -11.5l-67 -2q-4 -1 -4 -6q-17 -99 -50.5 -306.5t-42.5 -261.5l75 -3q-1 -5 -3 -17l-3 -18h-106q-18 0 -53 -0.5t-49 -0.5l6 36
l79 3q7 0 7 5q26 149 90 547h-7q-237 -435 -327 -579q-5 -1 -33 -1q-46 159 -136 582h-8q-16 -98 -50.5 -293.5t-45.5 -260.5l93 -3q-2 -20 -6 -35h-119q-17 0 -47.5 -0.5t-42.5 -0.5l6 36l68 3q5 0 7 5q14 86 48.5 284.5t48.5 284.5z" />
    <glyph glyph-name="N" unicode="N" horiz-adv-x="691" 
d="M3 35l66 2q5 1 7 5l96 570l-77 3q4 24 7 35h127q11 -24 60.5 -124.5t116 -236t104.5 -213.5l6 1q16 102 45.5 288t39.5 247l-99 2q3 12 7 36h121h90q-2 -20 -6 -35l-64 -3q-4 0 -4 -5l-103 -607q-13 -5 -34 -5q-41 71 -130 247t-164 338h-6q-30 -180 -90 -542l105 -2
q-2 -18 -6 -36h-128q-17 0 -49 -0.5t-45 -0.5q4 24 7 36z" />
    <glyph glyph-name="O" unicode="O" horiz-adv-x="699" 
d="M665 391q0 -103 -43 -190t-105 -139q-89 -72 -211 -72q-102 0 -168 63q-77 70 -77 203q0 100 42.5 189t106.5 141q89 74 214 74q108 0 171 -70q70 -74 70 -199zM116 260q0 -107 53 -170q54 -62 151 -62q96 0 168 62q123 109 123 300q0 102 -52 167q-52 64 -150 64
q-101 0 -174 -67q-119 -110 -119 -294z" />
    <glyph glyph-name="P" unicode="P" horiz-adv-x="524" 
d="M14 36l67 3q6 0 6 5l95 567l-71 2q3 12 7 36q19 0 67.5 1t75.5 1q93 0 147 -20q51 -19 75.5 -59.5t24.5 -88.5q0 -71 -42.5 -125.5t-97.5 -74.5q-59 -23 -145 -23q-33 0 -51 2l-38 -223l118 -3q-5 -26 -8 -36h-137q-69 0 -100 -1q1 7 3.5 19.5zM233 611l-52 -303
q0 -9 57 -9q72 0 119 22q96 44 96 158q0 64 -41.5 99.5t-127.5 35.5q-45 0 -51 -3z" />
    <glyph glyph-name="Q" unicode="Q" horiz-adv-x="699" 
d="M62 255q0 108 44.5 197t108.5 139q89 69 210 69q81 0 140 -41q49 -36 75 -96t26 -134q0 -95 -39.5 -181t-96.5 -134q-62 -53 -136 -74l-1 -5q83 -61 140 -87q31 -13 69 -13t83 15q4 -16 6 -35q-77 -25 -130 -25q-28 0 -70 23q-67 37 -155 117h-22q-119 0 -187 75
q-65 70 -65 190zM116 267q0 -109 52 -174q54 -65 154 -65q102 0 182 77q108 106 108 283q0 106 -57 174q-50 59 -146 59q-97 0 -170 -63q-54 -47 -88.5 -123.5t-34.5 -167.5z" />
    <glyph glyph-name="R" unicode="R" horiz-adv-x="565" 
d="M12 35l67 4q7 0 7 5l95 567l-74 3q1 14 5 35q80 2 137 2q108 0 162 -17q48 -16 74 -54.5t26 -82.5q0 -66 -49 -119t-119 -73v-5q8 -3 14.5 -7.5t12.5 -11.5t11 -13t10.5 -17t9 -18.5t9.5 -23.5t9 -25t10 -29t11 -31q20 -55 29.5 -70t22.5 -16l59 -2q-2 -19 -6 -36
q-41 0 -62 -1h-45q-16 24 -49 116t-42 112q-17 34 -38 47.5t-65 13.5q-59 0 -67 -2l-43 -247l90 -3q-1 -17 -6 -37q-32 1 -112 1q-71 0 -101 -1q2 9 7 36zM232 610l-49 -285q7 -2 62 -2q98 0 153.5 50.5t55.5 115.5q0 59 -40.5 92.5t-113.5 33.5q-55 0 -68 -5z" />
    <glyph glyph-name="S" unicode="S" horiz-adv-x="471" 
d="M400 494v92q0 8 -4 14q-18 21 -82 21q-73 0 -111 -34q-50 -42 -50 -104q0 -44 22 -65.5t86 -55.5q4 -2 6.5 -3.5t6 -3t6.5 -3.5q68 -37 97 -72.5t29 -88.5q0 -90 -69 -150q-61 -51 -172 -51q-91 0 -144 29q3 24 8.5 73.5t8.5 75.5q16 3 38 1l-2 -105q-1 -9 5 -13
q30 -22 98 -22q89 0 135 42q45 42 45 111q0 27 -8 46.5t-29.5 37.5t-39 29t-56.5 32q-63 35 -91.5 67.5t-28.5 82.5q0 44 23 81.5t57 60.5q61 41 149 41q83 0 118 -27q-4 -50 -14 -136q-6 -1 -19.5 -2t-17.5 -1z" />
    <glyph glyph-name="T" unicode="T" horiz-adv-x="552" 
d="M127 35l84 3q5 0 5 3l95 571q-121 0 -155 -3q-23 -2 -29 -19l-29 -96q-20 0 -37 3q6 26 16.5 77t16.5 77q10 0 41 -0.5t52 -0.5h160h162q80 2 82 2q-6 -51 -20 -155q-22 -2 -36 -2l2 96q0 10 -4 14t-18 5q-38 2 -153 2l-99 -574l103 -3q-3 -15 -8 -36q-17 0 -58 0.5
t-61 0.5t-59.5 -0.5t-58.5 -0.5q1 4 2 11.5t2 13.5t2 11z" />
    <glyph glyph-name="U" unicode="U" horiz-adv-x="639" 
d="M674 615l-69 -4l-60 -353q-23 -134 -98 -207q-65 -61 -168 -61q-99 0 -147 57q-34 39 -40.5 94.5t7.5 123.5l58 346l-69 3q3 12 7 36h97h116q-5 -29 -7 -36l-89 -3q-2 0 -5 -5l-57 -335q-22 -127 13 -183q38 -59 121 -59q80 0 133 49q25 21 48.5 68.5t33.5 111.5
q32 189 57 349q0 4 -3 4l-88 3q3 12 7 36h111q18 0 50.5 0.5t45.5 0.5q-1 -12 -5 -36z" />
    <glyph glyph-name="V" unicode="V" horiz-adv-x="579" 
d="M647 615l-57 -4q-57 -106 -151 -282q-107 -196 -191 -339q-6 -1 -31 -1q-31 136 -69 352q-11 65 -45 267q0 4 -5 4l-57 3q4 24 6 35h88h131q-1 -14 -5 -35l-106 -4q22 -160 37 -244q42 -246 52 -299h7q63 112 156 290q56 103 125 247q1 6 -3 7l-94 2q1 12 5 36h125h88
q-2 -11 -6 -35z" />
    <glyph glyph-name="W" unicode="W" horiz-adv-x="838" 
d="M274 614l-100 -3q0 -47 6 -239q8 -238 10 -285h7q79 150 269 538q7 1 33 1q3 -25 25.5 -230t36.5 -316h7q80 192 116 280q56 135 95 246q2 6 -2 6l-95 3q3 17 8 35h125q59 0 85 1q-4 -27 -7 -36l-55 -3l-117 -276q-97 -224 -156 -346q-4 0 -16 -0.5t-17 -0.5
q-34 225 -66 534h-5q-154 -313 -274 -533q-4 0 -16 -0.5t-17 -0.5q-13 174 -21 366q-4 83 -12 253q0 4 -5 4l-60 3l3.5 17.5l3.5 17.5h90h130z" />
    <glyph glyph-name="X" unicode="X" horiz-adv-x="579" 
d="M-34 35l56 3q4 0 9 5q119 142 240 288l2 8q-92 205 -122 269q-3 4 -6 4l-62 3l3.5 17.5l3.5 17.5h88h126q-5 -29 -7 -36l-93 -3q67 -160 103 -237h6q28 34 94 119.5t84 113.5q2 3 -3 5l-87 3q1 6 3.5 18t3.5 17h122h87q-1 -14 -7 -35l-57 -4q-110 -141 -223 -272l-2 -6
q94 -206 136 -295l71 -3q-5 -26 -8 -35h-91h-121q3 11 7 35l82 3q6 3 4 7q-5 11 -51.5 114.5t-60.5 134.5h-7q-29 -35 -105 -132t-96 -124l89 -3q-5 -28 -7 -35h-125q-15 0 -44.5 -0.5t-41.5 -0.5q1 6 3.5 18t3.5 18z" />
    <glyph glyph-name="Y" unicode="Y" horiz-adv-x="521" 
d="M108 35l80 3q7 0 7 5l35 211q-94 254 -133 354q-2 4 -5 4l-54 3q2 5 4.5 17t3.5 18h79h128q-1 -14 -7 -35l-95 -4q14 -39 54.5 -154t55.5 -157h6q35 48 110.5 158.5t100.5 148.5q2 5 -3 5l-88 2q2 6 4.5 18t3.5 18h120q13 0 41.5 0.5t40.5 0.5q-4 -24 -7 -35l-51 -4
q-46 -62 -136.5 -188t-122.5 -171l-37 -215l96 -3q-1 -17 -8 -36q-17 0 -56 0.5t-59 0.5q-19 0 -58 -0.5t-58 -0.5q2 12 8 36z" />
    <glyph glyph-name="Z" unicode="Z" horiz-adv-x="548" 
d="M460 181q17 -1 38 -7q-22 -68 -59 -175q-4 0 -53.5 0.5t-113.5 0.5h-102h-175q-5 19 -8 33q64 69 266 300.5t239 272.5l-1 4q-38 0 -89 1l-76.5 1.5t-54.5 0.5t-45.5 -1t-27.5 -3q-16 -4 -25 -24l-38 -108q-15 1 -38 5q25 94 47 169q6 0 36 -0.5t50 -0.5h320q6 -21 7 -39
q-320 -372 -504 -568l2 -4h74h66.5h52.5t48 0.5t35 1.5t32.5 3t23.5 4q22 4 31 26z" />
    <glyph glyph-name="bracketleft" unicode="[" horiz-adv-x="294" 
d="M96 -80l125 -2q-5 -28 -8 -36q-27 0 -84.5 0.5t-83.5 0.5l140 818q25 0 82.5 0.5t85.5 0.5q-2 -20 -7 -34l-115 -2q-7 0 -7 -8z" />
    <glyph glyph-name="backslash" unicode="\" horiz-adv-x="524" 
d="M462 -53q-135 221 -233 383q-23 38 -93.5 156.5t-100.5 168.5q17 12 36 24q33 -55 103.5 -175.5t89.5 -153.5q150 -250 230 -382q-20 -15 -32 -21z" />
    <glyph glyph-name="bracketright" unicode="]" horiz-adv-x="294" 
d="M-34 -82l123 2l132 738q0 8 -5 8l-114 2q2 17 5 34q29 0 86.5 -0.5t81.5 -0.5l-149 -818q-25 0 -82 -0.5t-84 -0.5z" />
    <glyph glyph-name="asciicircum" unicode="^" horiz-adv-x="501" 
d="M438 346q-138 188 -168 229q-40 -58 -161 -228q-22 14 -33 23q116 172 175 261q13 1 40 1q29 -42 90 -132.5t88 -130.5q-13 -10 -31 -23z" />
    <glyph glyph-name="underscore" unicode="_" horiz-adv-x="500" 
d="M-45 -73h500v-54h-500v54z" />
    <glyph glyph-name="grave" unicode="`" horiz-adv-x="437" 
d="M182 623q53 -48 136 -129q-6 -8 -22 -24q-134 107 -148 118q15 18 34 35z" />
    <glyph glyph-name="a" unicode="a" horiz-adv-x="440" 
d="M289 124l-5 2q-65 -73 -114.5 -105.5t-77.5 -32.5q-17 3 -35.5 16.5t-28.5 31.5q-8 13 -8 36q0 68 32 156q28 76 78.5 136t112.5 60q53 0 96 -51h6l21 53q13 -3 37 -11q-54 -185 -95 -381q-2 -5 4 -5q16 0 73 19q6 -20 8 -31q-64 -25 -111 -25q-3 0 -12 7.5t-12 14.5
q1 4 12 43.5t19 66.5zM235 382q-38 0 -71 -38.5t-56 -92.5q-38 -91 -38 -172q0 -23 10 -35t25 -12q38 0 108.5 64.5t86.5 107.5q10 28 31 121q-36 57 -96 57z" />
    <glyph glyph-name="b" unicode="b" horiz-adv-x="446" 
d="M130 278l6 -2q108 149 204 149q40 -7 61 -49q7 -14 7 -41q0 -51 -16 -116.5t-49 -120.5q-64 -108 -167 -108q-52 0 -99 52l-21 -54q-12 4 -38 10q15 57 85 342.5t76 309.5l-87 -6q0 5 -1.5 15t-2.5 15q37 6 68.5 12.5t45 10t15.5 3.5q9 0 20 -17q-7 -25 -49.5 -188.5
t-57.5 -216.5zM183 28q78 0 128 96q47 91 47 204q0 23 -10.5 38t-27.5 15q-47 0 -119.5 -73.5t-89.5 -126.5q-1 -6 -10.5 -42t-12.5 -48q11 -25 40 -44t55 -19z" />
    <glyph glyph-name="c" unicode="c" horiz-adv-x="341" 
d="M22 114q0 51 21.5 116.5t64.5 115.5q36 41 72.5 59.5t87.5 18.5q38 0 64 -17q-2 -11 -14 -27t-21 -22q-47 20 -68 20q-49 0 -85 -47q-29 -39 -49.5 -98t-20.5 -110q0 -91 79 -91q45 0 125 38q6 -14 11 -30q-96 -50 -152 -50q-44 0 -79.5 32.5t-35.5 91.5z" />
    <glyph glyph-name="d" unicode="d" horiz-adv-x="462" 
d="M304 127l-6 3q-54 -66 -109 -103.5t-90 -38.5q-19 2 -38.5 15t-31.5 33q-8 16 -8 37q0 67 33 156q14 35 32 67t42.5 62t57 48t67.5 18q55 0 102 -38h5q28 113 61 261l-90 -5q-3 17 -3 31q30 4 61.5 11t49 11.5t19.5 4.5q8 0 20 -16q-5 -21 -43 -178.5t-71.5 -298.5
t-40.5 -173q0 -5 4 -5q21 0 66 17q6 -20 7 -30q-59 -24 -102 -24q-3 0 -12.5 7.5t-12.5 14.5q2 7 6 22.5t11.5 41.5t13.5 49zM113 32q44 0 119 70t87 114q26 113 28 122q-35 44 -100 44q-45 0 -81.5 -40t-59.5 -99q-35 -95 -35 -160q0 -51 42 -51z" />
    <glyph glyph-name="e" unicode="e" horiz-adv-x="383" 
d="M24 99q0 51 23.5 122t67.5 124q66 79 140 79q45 0 71.5 -30.5t27.5 -70.5q-4 -24 -18.5 -49.5t-34.5 -36.5q-73 -37 -210 -37q-16 -50 -16 -90q0 -79 71 -79q58 0 157 58q9 -15 14 -29q-106 -70 -185 -70q-41 0 -74.5 29t-33.5 80zM242 384q-50 0 -88 -49
q-34 -44 -53 -101q99 -2 156 27q45 22 45 58q0 28 -15 46.5t-45 18.5z" />
    <glyph glyph-name="f" unicode="f" horiz-adv-x="298" 
d="M375 673q35 0 54 -12q-1 -12 -12.5 -28t-21.5 -20q-23 14 -65 14q-47 0 -82 -41q-17 -20 -29 -49t-18 -52t-17 -72q52 0 144 2q-4 -26 -9 -39q-19 0 -70 -0.5t-73 -0.5q-67 -321 -113 -534q-15 -1 -47 -1q54 254 111 535h-83q2 5 4 17t4 18q54 2 80 3q4 0 6 7
q13 69 31 111t50 75q66 67 156 67z" />
    <glyph glyph-name="g" unicode="g" horiz-adv-x="400" 
d="M44 220q0 76 52 140t129 64q37 0 57 -8q6 -3 13 -3q84 0 134 2q1 -11 -1 -35q-33 -1 -103 -3l-1 -4q23 -25 23 -79q0 -70 -35 -125q-59 -92 -165 -82q-54 -34 -61 -46q-3 -5 -3 -10q0 -8 7.5 -13.5t27.5 -9t34 -5t48 -4.5q86 -8 114 -25q17 -11 28.5 -29.5t11.5 -36.5
q0 -61 -61 -105.5t-180 -44.5q-73 0 -121.5 27t-48.5 71q0 38 24 54q41 28 110 68v5q-46 13 -46 55q0 5 3 9t20 16.5t52 33.5v5q-62 31 -62 118zM95 222q0 -103 80 -103q50 0 85.5 45t35.5 118q0 50 -16 77q-18 31 -61 31q-55 0 -89.5 -49t-34.5 -119zM304 -102
q0 31 -19.5 41.5t-81.5 18.5q-19 2 -45 6t-35 5q-13 -8 -33.5 -20t-30 -17.5t-23 -14.5t-19.5 -15t-13 -13.5t-9.5 -15t-2.5 -16.5q0 -33 40 -49.5t90 -16.5q80 0 131 28t51 79z" />
    <glyph glyph-name="h" unicode="h" horiz-adv-x="479" 
d="M181 645l-92 -6q-2 20 -3 29q28 6 60.5 14t50.5 13t21 5q9 0 21 -16q-80 -309 -100 -389l5 -2q63 71 116 100.5t87 30.5q46 -7 64 -50q5 -10 5 -28q0 -76 -84 -310q-5 -7 4 -7q18 0 75 15q5 -17 6 -32q-60 -21 -116 -21q-4 0 -12 9.5t-9 17.5q41 116 68 219q18 67 18 99
q0 41 -35 41q-47 0 -120.5 -60t-85.5 -104q-6 -21 -27.5 -108.5t-26.5 -104.5h-47q16 62 157 645z" />
    <glyph glyph-name="i" unicode="i" horiz-adv-x="236" 
d="M176 609q17 0 27.5 -13.5t10.5 -28.5q0 -14 -13 -28t-29 -14q-17 0 -30 12.5t-13 28.5q0 15 13 29t34 14zM126 375l-87 -7q-2 22 -2 31q34 5 63.5 11.5t43.5 10t16 3.5q3 0 10.5 -7.5t10.5 -13.5q-15 -60 -51.5 -211t-38.5 -158q-2 -6 3 -6q19 0 79 17q7 -17 8 -31
q-66 -23 -108 -23q-4 0 -16 9.5t-16 18.5q65 268 85 356z" />
    <glyph glyph-name="j" unicode="j" horiz-adv-x="229" 
d="M174 607q19 0 29 -13t10 -26q0 -16 -12 -30t-30 -14t-29.5 12.5t-11.5 29.5q0 15 11.5 28t32.5 13zM130 374l-99 -7q-1 6 -1 16.5v15.5q38 5 70.5 11.5t47.5 10t17 3.5q4 0 10.5 -6t9.5 -12q-10 -54 -31 -167.5t-30 -162.5q-15 -77 -29.5 -120.5t-43.5 -85.5
q-17 -26 -41 -50t-40.5 -35.5t-21.5 -11.5q-9 1 -25.5 14.5t-17.5 21.5q77 30 114 78q30 42 52 157q49 270 59 330z" />
    <glyph glyph-name="k" unicode="k" horiz-adv-x="424" 
d="M118 211l6 -2q86 102 158 158.5t106 56.5q7 0 16 -13.5t11 -27.5q-52 -8 -100 -41.5t-107 -91.5v-3q49 -27 80 -117q22 -63 37 -88q6 -10 17 -8q20 0 65 15q5 -17 6 -33q-60 -21 -116 -21q-22 35 -51 113q-21 55 -36.5 80.5t-30.5 25.5q-7 0 -17 -8q-21 -20 -55 -57
q-4 -15 -17.5 -71.5t-19.5 -77.5h-47q13 51 79 322.5t78 322.5l-89 -7q-2 22 -3 31q26 5 57.5 12.5t51 13t20.5 5.5q8 0 22 -16q-48 -198 -121 -473z" />
    <glyph glyph-name="l" unicode="l" horiz-adv-x="235" 
d="M181 646l-96 -5q-3 17 -3 32q35 4 67.5 11t49 11.5t18.5 4.5q8 0 22 -16q-129 -529 -156 -648q-2 -7 4 -7q28 0 88 17q3 -13 5 -33q-65 -22 -122 -22q-3 0 -12.5 8.5t-14.5 17.5q12 49 72.5 305t77.5 324z" />
    <glyph glyph-name="m" unicode="m" horiz-adv-x="719" 
d="M128 377l-83 -10q-1 5 -1.5 10t-1 11.5t-0.5 9.5q33 6 60 12.5t38.5 10t13.5 3.5q9 0 22 -17q-23 -95 -26 -107l8 -3q104 125 182 127q38 -6 57 -41q6 -10 6 -28q0 -16 -10 -64l6 -2q103 132 188 132q15 -2 33.5 -14.5t26.5 -31.5q6 -14 6 -29q0 -71 -78 -310q-2 -7 3 -7
q18 0 74 17q3 -11 7 -33q-71 -22 -112 -22q-4 0 -12 9t-12 18q29 83 58 200q22 91 22 119q0 16 -9 27.5t-28 11.5q-43 0 -110 -65.5t-79 -111.5q-8 -29 -50 -199h-47q37 140 60 241q16 69 16 102q0 14 -8 24.5t-23 10.5q-45 0 -111 -63.5t-79 -109.5q-41 -171 -49 -205h-47
q25 105 89 377z" />
    <glyph glyph-name="n" unicode="n" horiz-adv-x="493" 
d="M127 374l-81 -8q-2 22 -2 31q27 5 55 12t43 11t17 4q10 0 20 -16q-4 -14 -14.5 -53.5t-16.5 -62.5l6 -2q57 65 114.5 99t96.5 35q41 -8 61 -49q5 -13 5 -29q0 -35 -24.5 -123.5t-60.5 -186.5q-2 -7 4 -7q20 0 76 18q3 -11 7 -33q-67 -23 -115 -23q-4 0 -12 8.5t-10 19.5
q37 106 66 215q18 70 18 102q0 41 -34 41q-49 0 -123 -61.5t-86 -106.5q-5 -18 -26.5 -104t-26.5 -105h-47q85 352 90 374z" />
    <glyph glyph-name="o" unicode="o" horiz-adv-x="418" 
d="M374 284q0 -139 -96 -236q-58 -58 -136 -58q-57 0 -88 38q-29 36 -29 91q0 71 28 138t75 113q57 54 128 54q49 0 79 -30q39 -39 39 -110zM157 26q55 0 100 52q29 33 47 87.5t18 102.5q0 57 -18 85q-20 34 -62 34q-60 0 -107 -64q-22 -31 -40 -83t-18 -108q0 -48 19 -77
q18 -29 61 -29z" />
    <glyph glyph-name="p" unicode="p" horiz-adv-x="450" 
d="M131 274l9 -2q111 152 207 153q17 -2 34.5 -16.5t26.5 -33.5q7 -15 7 -36q0 -138 -66 -247q-64 -102 -162 -102q-54 0 -96 41q-20 -100 -54 -262q-15 -1 -47 -1q115 574 122 608l-83 -7v32q34 5 60.5 11t38 9t12.5 3q4 0 11.5 -6t9.5 -11q-4 -18 -14.5 -64.5t-15.5 -68.5
zM365 329q0 22 -10 37t-28 15q-48 0 -119 -73.5t-88 -128.5q-2 -8 -10.5 -50t-10.5 -51q16 -22 42.5 -36t49.5 -14q83 0 129 96q45 91 45 205z" />
    <glyph glyph-name="q" unicode="q" horiz-adv-x="443" 
d="M301 130l-6 2q-123 -143 -199 -144q-39 6 -64 43q-10 16 -10 40q0 74 35 168q30 76 79 130.5t114 54.5q59 0 104 -45h6l18 47q18 -3 37 -11q-64 -241 -148 -605q0 -5 5 -5q18 0 79 20q5 -13 7 -32q-71 -25 -111 -25q-4 0 -15 10t-15 19q38 155 84 333zM73 79
q0 -22 10 -34.5t25 -12.5q41 0 118.5 72.5t91.5 116.5q8 28 27 110q-36 51 -102 51q-44 0 -79.5 -40t-59.5 -104q-31 -82 -31 -159z" />
    <glyph glyph-name="r" unicode="r" horiz-adv-x="343" 
d="M128 378l-80 -10q-1 5 -1.5 10.5t-1 12t-0.5 9.5q24 4 51.5 10t43.5 10t17 4q4 0 11 -6t9 -12q-9 -38 -31 -128l6 -3q43 65 88 107t72 42q23 0 45 -13q0 -13 -10.5 -32.5t-17.5 -21.5q-19 8 -37 8q-31 0 -90.5 -70.5t-76.5 -135.5q-7 -29 -37 -159h-46q33 134 86 378z
" />
    <glyph glyph-name="s" unicode="s" horiz-adv-x="348" 
d="M275 295l-3 69q0 8 -6 11q-19 14 -55 14q-34 0 -60 -13q-42 -23 -42 -68q0 -29 14.5 -43t53.5 -32q54 -25 79 -50t25 -64q0 -70 -66 -107q-38 -22 -116 -22q-60 0 -88 17q2 38 6 116q11 2 35 2l6 -76q0 -7 7 -11q19 -13 62 -13q45 0 71 16q35 24 35 69q0 17 -5 29.5
t-17 22.5t-22 15.5t-31 15.5q-50 22 -73 44t-23 64q0 33 21 61t49 42q39 20 101 20q55 0 87 -21q-4 -46 -11 -107q-10 -1 -34 -1z" />
    <glyph glyph-name="t" unicode="t" horiz-adv-x="326" 
d="M105 76q0 -45 48 -45q41 0 115 22q3 -16 5 -31q-73 -30 -137 -30q-24 0 -48 16t-32 44q-2 10 -2 15q0 15 38 192l15 63t12 53h-77q5 25 7 34q22 2 72 4q6 0 8 7l12 44t14 50q22 13 42 13q3 0 3 -3q-3 -13 -11.5 -50.5t-13.5 -60.5q104 0 154 1q-1 -18 -7 -39h-44.5h-58
h-53.5q-1 -4 -13.5 -57.5t-16.5 -73.5q-31 -139 -31 -168z" />
    <glyph glyph-name="u" unicode="u" horiz-adv-x="469" 
d="M126 375l-79 -8q-2 11 -4 31q32 6 61.5 12.5t43 10t14.5 3.5q5 0 11 -7t8 -14q-42 -123 -68 -248q-11 -50 -11 -81q0 -41 34 -41q38 0 108 61.5t81 99.5q11 40 49 219q17 1 48 1q-2 -12 -37.5 -169t-46.5 -210q0 -6 4 -6q20 0 76 19q4 -11 8 -31q-60 -25 -108 -25
q-4 0 -12.5 8.5t-13.5 17.5q3 17 23 99l-5 2q-120 -129 -187 -131q-14 2 -31.5 13t-27.5 25q-11 14 -11 41q0 78 73 308z" />
    <glyph glyph-name="v" unicode="v" horiz-adv-x="432" 
d="M104 376l-78 -8q-1 11 -3 31q21 5 48.5 11.5t43 10t17.5 3.5q9 0 22 -17q-15 -274 -18 -371q0 -11 8 -3q51 43 106 117q40 55 72.5 120.5t32.5 100.5q0 8 -11 8l-63 -7q-1 11 -3 31q17 3 42 8t41.5 8.5t19.5 3.5q4 0 14.5 -11t10.5 -15q0 -48 -39 -127t-81 -134
q-32 -43 -66 -78t-53.5 -50t-23.5 -15q-21 0 -52 3q1 99 13 380z" />
    <glyph glyph-name="w" unicode="w" horiz-adv-x="651" 
d="M348 308h-6q-34 -90 -81 -168t-76 -112.5t-35 -34.5q-26 0 -53 4q-4 189 4 378l-81 -11q-4 23 -5 31q25 6 53 13.5t42 11.5t17 4q11 0 23 -19q-10 -260 -10 -367q0 -4 2.5 -5t5.5 2q40 50 85 124q79 132 107 237q13 6 42 6q5 -303 9 -367q0 -3 2.5 -3.5t4.5 2.5
q47 53 94 132q29 51 54 114t25 93q0 9 -7 8l-66 -6q-1 5 -1.5 10t-1 11.5t-0.5 9.5q18 3 44 7.5t41.5 7t17.5 2.5q4 0 15 -11.5t11 -16.5q-1 -41 -31.5 -114.5t-70.5 -138.5q-22 -37 -50 -73.5t-47.5 -56t-23.5 -19.5q-28 0 -51 4q-8 121 -2 311z" />
    <glyph glyph-name="x" unicode="x" horiz-adv-x="421" 
d="M206 263h5q49 57 103.5 109t69.5 52q8 0 21.5 -13t15.5 -24q-97 -52 -198 -158l-2 -5q12 -30 25.5 -66t23.5 -62.5t21 -52.5q4 -8 14 -8q29 0 70 14l6 -33q-45 -21 -119 -21q-9 21 -75 200h-3q-101 -106 -137 -204q-16 -2 -64 -2q7 30 66 104t123 137l1 6
q-45 121 -53 142l-78 -19q-2 5 -4.5 15.5t-3.5 15.5q22 7 46.5 15.5t38 13.5t15.5 5q11 0 25 -12q8 -25 23.5 -74t23.5 -75z" />
    <glyph glyph-name="y" unicode="y" horiz-adv-x="412" 
d="M92 374l-81 -16q-4 23 -5 31q27 8 53.5 17t39.5 13.5t15 4.5q8 0 23 -17q22 -251 38 -402h4q52 77 82 138q29 59 54.5 127t25.5 102q0 10 -9 8l-65 -7l-3 30q21 4 46 9.5t39.5 8.5t17.5 3q4 0 15 -11.5t11 -15.5q0 -87 -98 -271q-78 -148 -209 -289q-31 -34 -59.5 -56.5
t-35.5 -22.5q-12 0 -26 12t-16 23q56 29 104 72q56 49 84 92q-25 195 -45 417z" />
    <glyph glyph-name="z" unicode="z" horiz-adv-x="399" 
d="M319 138q24 -3 37 -7q-20 -66 -42 -132q-4 0 -38 0.5t-78 0.5h-104h-90q-2 4 -6 14l-6 15q170 185 314 345l-1 5q-82 0 -164 -2q-23 0 -29 -15l-29 -80q-31 6 -36 7l33 126q3 0 33.5 -0.5t55.5 -0.5q102 -2 192 0q6 -21 7 -37q-168 -190 -314 -338v-4q165 0 202 4
q23 2 31 21z" />
    <glyph glyph-name="braceleft" unicode="{" horiz-adv-x="315" 
d="M220 -90q0 -10 -6 -32q-75 0 -116.5 37t-41.5 92q0 42 32 119t32 103q0 54 -77 50q1 13 5 36q60 -1 83 26q12 14 15.5 35.5t3.5 84.5q0 70 11.5 109t41.5 72q61 64 166 64q-5 -28 -7 -33q-90 -1 -130 -57q-20 -30 -27 -68.5t-7 -111.5q0 -113 -73 -137l-1 -6
q40 -9 40 -58q0 -31 -30.5 -112t-30.5 -113q0 -44 30.5 -71.5t86.5 -28.5z" />
    <glyph glyph-name="bar" unicode="|" horiz-adv-x="501" 
d="M230 750h43v-1000h-43v1000z" />
    <glyph glyph-name="braceright" unicode="}" horiz-adv-x="315" 
d="M-28 -122q2 19 6 35q79 1 125 54q23 27 29 64.5t6 114.5q0 66 14.5 101t56.5 49l1 6q-40 18 -40 61q0 27 26.5 104t25.5 115q0 91 -113 92q0 12 4 32q80 0 118.5 -34.5t37.5 -92.5q0 -42 -27.5 -120.5t-27.5 -96.5q0 -47 79 -47q-1 -4 -2 -11.5t-2 -13.5t-2 -11
q-55 5 -82 -26q-13 -16 -16 -39.5t-3 -82.5v-20q0 -61 -11 -97t-36 -66q-61 -70 -167 -70z" />
    <glyph glyph-name="asciitilde" unicode="~" horiz-adv-x="501" 
d="M163 305q41 0 96 -38q2 -1 12 -8t15 -10t14 -7.5t18 -6.5t18 -2q49 0 57 75h41q-2 -50 -29.5 -88.5t-71.5 -38.5q-11 0 -21.5 2.5t-21.5 8l-17 8.5t-17.5 11t-12.5 9q-2 2 -13 9t-16 10t-14.5 7.5t-18.5 6.5t-19 2q-51 0 -69 -72h-39q6 51 36 86.5t73 35.5z" />
    <glyph glyph-name="uni00A0" unicode="&#xa0;" horiz-adv-x="205" 
 />
    <glyph glyph-name="exclamdown" unicode="&#xa1;" horiz-adv-x="240" 
d="M10 -239q-2 0 -2 2q11 52 47 233.5t54 267.5q24 2 37 2q-17 -120 -35 -235q-25 -175 -36 -258q-27 -12 -65 -12zM147 340q-22 0 -31.5 13t-9.5 28q0 17 13 30t30 13q19 0 31 -12t12 -28q0 -18 -13 -31t-32 -13z" />
    <glyph glyph-name="cent" unicode="&#xa2;" horiz-adv-x="501" 
d="M83 250q0 87 58.5 171t146.5 104q4 19 10 52.5t8 46.5q13 4 41 6q-5 -29 -17 -99q7 1 27 1q24 0 47.5 -7t31.5 -15q-1 -11 -12 -24t-21 -19q-37 25 -82 24q-4 -21 -27 -151t-35 -195q59 4 120 39q2 -4 10 -31q-69 -39 -137 -47q-1 -6 -7.5 -43.5t-9.5 -55.5
q-20 -3 -38 -3q16 91 18 100q-52 2 -92 41t-40 105zM136 255q0 -41 20.5 -73t66.5 -37q8 47 59 342q-62 -15 -104 -85.5t-42 -146.5z" />
    <glyph glyph-name="sterling" unicode="&#xa3;" horiz-adv-x="501" 
d="M-24 35l67 3q13 0 18 7q63 56 84 176q4 23 7 63h-105q6 20 8 35q16 0 48 0.5t48 0.5q5 0 5 6q6 101 11 126q15 92 70 141q59 53 154 53q53 0 85 -15q-4 -64 -11 -132q-6 0 -18.5 -1.5t-19.5 -2.5l-2 91q-1 10 -8 14q-16 9 -50 9q-58 0 -96 -35q-36 -32 -52 -109
q-7 -36 -13 -145q27 0 88 0.5t99 0.5q-1 -13 -8 -36q-130 0 -181 -1q-1 -4 -2.5 -18t-3.5 -24q-19 -114 -85 -196q-8 -10 8 -10q196 0 238 6q12 5 22 21l49 98q9 -1 34 -9q-11 -31 -60 -153q-21 0 -138.5 0.5t-188.5 0.5q-18 0 -53.5 -0.5t-54.5 -0.5q2 7 7 36z" />
    <glyph glyph-name="currency" unicode="&#xa4;" horiz-adv-x="501" 
d="M261 489q59 0 102 -31q9 10 23 25.5t24.5 27.5t19.5 22q14 -12 30 -32q-27 -30 -68 -74q33 -46 33 -106q0 -78 -43 -124q45 -50 77 -86q-5 -4 -15.5 -12.5t-15.5 -12.5q-21 24 -74 84q-43 -32 -103 -32q-54 0 -95 26q-12 -13 -36 -40t-35 -39q-20 16 -30 26q26 28 71 79
q-41 44 -41 116q0 69 40 117q-42 47 -72 78l10.5 10.5t11.5 12t10 9.5q11 -12 34.5 -39t36.5 -41q44 36 105 36zM257 452q-52 0 -82 -30q-44 -46 -44 -110q0 -71 41 -109q32 -27 81 -27q51 0 81 26q44 39 44 116q0 68 -40 105q-30 29 -81 29z" />
    <glyph glyph-name="yen" unicode="&#xa5;" horiz-adv-x="501" 
d="M229 38l98 -3q-1 -17 -8 -36q-16 0 -55.5 0.5t-59.5 0.5q-18 0 -57 -0.5t-58 -0.5q4 24 7 36l83 2q7 2 8 6l16 102h-157q2 19 6 33q105 0 157 1l11 70h-160q1 3 2 9.5t2.5 12.5l2.5 10h145q-37 105 -109 311q-3 5 -6 5l-54 2q4 24 7 36q11 0 37.5 -0.5t39.5 -0.5
q24 0 65.5 0.5t58.5 0.5q-1 -13 -7 -36l-91 -3q16 -50 48.5 -150.5t48.5 -150.5h5q68 101 193 296q1 1 -0.5 3.5t-2.5 2.5l-85 2q1 5 3.5 17t3.5 18h117q12 0 39.5 0.5t38.5 0.5q-1 -14 -7 -35l-51 -4q-151 -222 -218 -315q24 0 72 0.5t71 0.5q-2 -18 -7 -33h-157l-12 -70
h157q-5 -27 -8 -33h-155z" />
    <glyph glyph-name="brokenbar" unicode="&#xa6;" horiz-adv-x="501" 
d="M230 675h43v-350h-43v350zM230 175h43v-350h-43v350z" />
    <glyph glyph-name="section" unicode="&#xa7;" horiz-adv-x="446" 
d="M378 211q0 -81 -73 -136q10 -23 10 -55q0 -89 -62 -140q-55 -46 -128 -46q-43 0 -85 16t-62 40q5 12 15.5 21.5t21.5 10.5q50 -52 121 -52q49 0 88 34q44 38 44 110q0 41 -20.5 67.5t-67.5 62.5q-56 42 -80.5 76t-24.5 80q0 76 73 135q-12 26 -12 61q0 37 20.5 73
t54.5 59q47 32 110 32q83 0 125 -46q-10 -23 -34 -31q-52 39 -105 39q-45 0 -78 -25q-47 -34 -47 -92q0 -42 18.5 -66t83.5 -75q49 -39 71.5 -74t22.5 -79zM118 311q0 -28 13.5 -52t27 -36.5t46.5 -39.5q62 -49 84 -80q45 34 45 100q0 27 -14 52t-28 38.5t-45 40.5
q-63 52 -82 74q-47 -36 -47 -97z" />
    <glyph glyph-name="dieresis" unicode="&#xa8;" horiz-adv-x="437" 
d="M189 568q19 0 27 -11t8 -25q0 -17 -11 -29t-26 -12q-17 0 -27.5 9.5t-10.5 24.5t10.5 29t29.5 14zM336 568q16 0 26 -12t10 -24q0 -16 -10.5 -28.5t-29.5 -12.5q-16 0 -25.5 11t-9.5 22q0 17 10 30.5t29 13.5z" />
    <glyph glyph-name="copyright" unicode="&#xa9;" horiz-adv-x="740" 
d="M383 660q139 0 231.5 -96.5t92.5 -236.5t-95.5 -238.5t-233.5 -98.5q-139 0 -231.5 96t-92.5 237q0 139 95.5 238t233.5 99zM381 625q-121 0 -201.5 -88t-80.5 -213q0 -126 79.5 -212.5t202.5 -86.5q121 0 201.5 88t80.5 213q0 126 -80 212.5t-202 86.5zM465 390l-8 64
q-2 7 -5 9q-17 11 -50 11q-48 0 -80 -31q-55 -51 -55 -131q0 -59 34 -98q34 -37 96 -37q48 0 100 26q4 -10 8 -34q-61 -29 -118 -29q-63 0 -112 36q-60 44 -60 124q0 100 76 166q51 43 129 43q50 0 74 -13q4 -66 5 -103q-6 -1 -34 -3z" />
    <glyph glyph-name="ordfeminine" unicode="&#xaa;" horiz-adv-x="343" 
d="M257 421l-4 2q-31 -38 -71.5 -65.5t-64.5 -27.5q-12 0 -31 11.5t-25 25.5q-3 7 -3 24q0 57 26 118q21 53 58.5 95.5t83.5 42.5q43 0 70 -32h3l15 34q5 -1 10 -3t11 -4l9 -3q-41 -156 -66 -275q0 -4 4 -4q9 0 52 10q4 -16 4 -25q-44 -15 -82 -15q-10 0 -18 17q2 17 19 74z
M222 613q-52 0 -93 -93q-26 -62 -26 -121q0 -14 7 -23.5t16 -9.5q25 0 74 41.5t63 72.5q1 5 7 26.5t11 42t6 29.5q-26 35 -65 35z" />
    <glyph glyph-name="guillemotleft" unicode="&#xab;" horiz-adv-x="404" 
d="M101 219q30 -55 79 -136q-10 -9 -29 -22q-88 117 -111 145q1 11 5 30l156 144q17 -15 24 -27q-43 -45 -124 -134zM256 219q28 -52 77 -131q-10 -8 -29 -22q-60 81 -108 140q4 16 5 29q29 26 150 140q10 -9 24 -27q-68 -72 -119 -129z" />
    <glyph glyph-name="logicalnot" unicode="&#xac;" horiz-adv-x="501" 
d="M394 40v190q-55 0 -171.5 -0.5t-171.5 -0.5q0 15 2 43q67 1 196.5 2t186.5 1q3 0 3 -4q0 -34 -1 -116.5t-1 -112.5q-26 -2 -43 -2z" />
    <glyph glyph-name="uni00AD" unicode="&#xad;" horiz-adv-x="284" 
d="M131 215h-104q5 34 7 44h101q21 0 59 0.5t57 1.5q-4 -32 -7 -46h-113z" />
    <glyph glyph-name="registered" unicode="&#xae;" horiz-adv-x="449" 
d="M256 660q75 0 126 -52.5t51 -128.5q0 -75 -52 -128.5t-127 -53.5t-125.5 52t-50.5 128q0 75 51.5 129t126.5 54zM255 632q-63 0 -104 -44.5t-41 -109.5t41 -109.5t104 -44.5t104 45t41 110q0 64 -41 108.5t-104 44.5zM195 406v146l-23 1q0 16 1 23q21 1 61 1q42 0 59 -5
q18 -4 28.5 -16.5t10.5 -26.5q0 -39 -42 -54v-4q16 -9 37 -52q7 -13 16 -13l14 -1v-23h-50q-6 8 -19 35t-17 34q-8 9 -25 9h-14v-54l26 -1q0 -3 -0.5 -11t-0.5 -12h-84v23zM232 553v-69h14q24 0 35 11t11 26q0 32 -45 32h-15z" />
    <glyph glyph-name="macron" unicode="&#xaf;" horiz-adv-x="437" 
d="M357 542q-3 -19 -8 -40h-192q1 6 3.5 19t4.5 19q128 2 192 2z" />
    <glyph glyph-name="degree" unicode="&#xb0;" horiz-adv-x="294" 
d="M170 466q-38 0 -65.5 24.5t-27.5 66.5q0 38 30 68t76 30q41 0 66.5 -24.5t25.5 -60.5q0 -46 -30 -75t-75 -29zM176 501q22 0 37 17t15 46q0 25 -12.5 40.5t-35.5 15.5q-24 0 -40 -16.5t-16 -47.5q0 -26 15 -40.5t37 -14.5z" />
    <glyph glyph-name="plusminus" unicode="&#xb1;" horiz-adv-x="501" 
d="M218 301v154q22 3 45 3q-1 -43 -1 -156h174q0 -16 -2 -44h-172q-1 -57 -1 -152q-26 -2 -43 -2v154h-170q0 29 1 42q56 1 169 1zM435 45q2 -21 -2 -44q-56 0 -189 -0.5t-197 -0.5q0 18 2 42q69 1 201 2t185 1z" />
    <glyph glyph-name="twosuperior" unicode="&#xb2;" 
d="M298 673q0 -64 -110 -152q-12 -10 -62 -43l2 -4q20 1 75 3.5t70 2.5q2 0 2 -2q0 -14 -6 -36h-132h-77q-1 4 -3 11.5t-3 11.5q63 41 103 73q96 76 96 133q0 24 -13 38q-17 19 -45 19q-32 0 -51 -14q-2 -2 -3 -6l-15 -51q-5 1 -15.5 2.5t-15.5 2.5q3 13 16 78q30 18 88 18
q54 0 79 -28q20 -20 20 -57z" />
    <glyph glyph-name="threesuperior" unicode="&#xb3;" 
d="M217 608v-5q35 -4 53 -23.5t18 -49.5q0 -45 -44 -74q-36 -23 -104 -23q-44 0 -72 7q0 12 -1.5 39.5t-2.5 42.5q9 2 31 4l8 -49l3 -5q21 -9 46 -9q46 0 68 18q22 17 22 46q0 28 -20 43.5t-54 15.5h-41q0 3 0.5 9.5t1 12t1.5 9.5q51 -2 88.5 17t37.5 49q0 17 -13 30t-48 13
q-31 0 -49 -11q0 -1 -2 -2.5t-2 -2.5l-13 -45q-23 3 -31 4l14 70q41 18 92 18q55 0 78 -25q19 -19 19 -44q0 -28 -21.5 -49t-62.5 -31z" />
    <glyph glyph-name="acute" unicode="&#xb4;" horiz-adv-x="437" 
d="M338 615q16 -15 30 -39q-16 -11 -70.5 -49t-82.5 -57q-11 13 -20 26q25 20 143 119z" />
    <glyph glyph-name="mu" unicode="&#xb5;" horiz-adv-x="501" 
d="M331 114l-4 2q-47 -50 -101 -88t-84 -38q-13 0 -26.5 8.5t-19.5 20.5l-4 -2q-17 -105 -33 -247q-26 -12 -56 -12q23 135 66 357q33 163 70 297q34 2 48 2q-39 -143 -62 -259q-10 -53 -10 -76q0 -18 11.5 -31t26.5 -13q38 0 108 60.5t81 97.5q5 15 52 219q32 2 48 2
q-77 -341 -84 -377q-2 -8 5 -8q21 0 75 19q6 -17 9 -31q-61 -25 -111 -25q-4 0 -13 8.5t-14 18.5q1 3 22 95z" />
    <glyph glyph-name="paragraph" unicode="&#xb6;" horiz-adv-x="489" 
d="M465 611l-117 -722q-7 -2 -22 -4.5l-21 -3.5l116 731h-67l-120 -731q-19 -6 -43 -9l60 373q-5 -1 -16 -1q-44 0 -79 16q-102 41 -102 164q0 67 36.5 119.5t89.5 75.5q70 32 212 32q14 0 131 -3q-1 -12 -5 -36z" />
    <glyph glyph-name="periodcentered" unicode="&#xb7;" horiz-adv-x="230" 
d="M119 310q24 0 34 -15t10 -32q0 -19 -13.5 -32.5t-32.5 -13.5q-44 0 -44 44q0 19 12 34t34 15z" />
    <glyph glyph-name="cedilla" unicode="&#xb8;" horiz-adv-x="437" 
d="M158 10h44l-73 -70q23 -3 37 -17.5t14 -35.5q0 -36 -35.5 -58.5t-87.5 -24.5v29q34 3 54.5 16t20.5 32q0 34 -49 36q-2 3 -4 9t-2 7z" />
    <glyph glyph-name="onesuperior" unicode="&#xb9;" 
d="M75 441q0 1 2 13t4 18l75 1q2 0 2 2q23 131 39 227q-8 -2 -35 -8.5t-46 -11.5q-4 16 -5 30q29 7 61.5 19t52 20t23.5 8q1 0 1 -3q-34 -190 -51 -282l77 -2q-2 -15 -6 -31q-18 0 -52 0.5t-48 0.5q-15 0 -46 -0.5t-48 -0.5z" />
    <glyph glyph-name="ordmasculine" unicode="&#xba;" horiz-adv-x="326" 
d="M325 547q0 -108 -67 -175q-44 -42 -99 -42q-47 0 -71 28q-22 25 -22 71q0 104 72 178q41 40 97 40q37 0 59 -18q31 -31 31 -82zM163 360q40 0 71 36q20 23 33.5 62t13.5 75q0 40 -13 62q-14 22 -41 22q-41 0 -73 -44q-44 -63 -44 -136q0 -40 13 -58q14 -19 40 -19z" />
    <glyph glyph-name="guillemotright" unicode="&#xbb;" horiz-adv-x="404" 
d="M131 222q-32 60 -76 130q10 9 30 21q70 -94 106 -139q0 -14 -5 -29q-29 -26 -83 -76.5t-68 -63.5q-4 5 -11.5 14.5t-11.5 13.5q69 70 119 129zM285 221q-26 48 -79 137q9 7 30 21q80 -107 111 -145q-2 -21 -5 -30q-24 -21 -50 -45t-57.5 -53.5t-48.5 -45.5q-14 14 -24 27
q61 62 123 134z" />
    <glyph glyph-name="onequarter" unicode="&#xbc;" horiz-adv-x="688" 
d="M93 336q1 5 3 15.5t3 15.5l75 1q2 0 2 2q22 126 39 226q-53 -12 -81 -20q-4 19 -5 31q29 7 61.5 19t52 20t23.5 8q1 0 1 -3q-34 -190 -51 -282l77 -2q-2 -16 -6 -31q-18 0 -52 0.5t-48 0.5q-15 0 -46 -0.5t-48 -0.5zM626 639q-222 -323 -242 -352q-18 -26 -210 -302
q-16 7 -32 18q98 139 208 300q44 64 130 189t114 166q14 -5 32 -19zM475 0q2 7 4 27l54 2q3 0 3 1q3 17 7 46h-151q-5 11 -10 30q9 9 99 105q57 61 97 102q16 0 42 -2q-12 -80 -34 -205h60q0 -4 -5 -31q-7 0 -32 0.5t-29 0.5q-3 -21 -8 -47l45 -2q-2 -20 -4 -27h-66h-72z
M579 268h-6q-35 -39 -73 -79q-57 -62 -72 -79q-4 -4 1 -4h120z" />
    <glyph glyph-name="onehalf" unicode="&#xbd;" horiz-adv-x="688" 
d="M69 336q0 1 2 13t4 18l75 1q2 0 2 2q22 126 39 226q-53 -12 -81 -20q-4 19 -5 31q29 7 61.5 19t52 20t23.5 8q1 0 1 -3q-34 -190 -51 -282l77 -2q-2 -16 -6 -31q-18 0 -52 0.5t-48 0.5q-15 0 -46 -0.5t-48 -0.5zM601 639q-48 -71 -134.5 -196.5t-107.5 -155.5
q-35 -53 -209 -302q-16 7 -32 18q98 139 208 300q44 64 130 189t114 166q16 -6 31 -19zM654 231q0 -64 -110 -152q-23 -19 -62 -42l1 -5q20 1 75.5 3.5t70.5 2.5q2 0 2 -2q-2 -21 -6 -36h-133h-76q-1 4 -3 11.5t-3 11.5q63 41 103 73q95 76 95 133q0 24 -12 39
q-16 18 -45 18q-32 0 -51 -14q-2 -2 -3 -6l-15 -51q-20 4 -31 5q3 13 16 78q30 18 87 18q54 0 80 -27q20 -22 20 -58z" />
    <glyph glyph-name="threequarters" unicode="&#xbe;" horiz-adv-x="688" 
d="M249 503v-5q35 -4 53 -23.5t18 -49.5q0 -45 -44 -74q-36 -23 -104 -23q-44 0 -72 7q0 12 -1.5 39.5t-2.5 42.5q9 2 31 4l8 -50l1 -2q1 -2 2 -2q21 -9 46 -9q46 0 68 17q22 19 22 47t-20 43.5t-54 15.5h-41q0 1 1 13t2 18q51 -2 88.5 17t37.5 49q0 17 -13 30t-48 13
q-31 0 -49 -11q0 -1 -2 -2.5t-2 -2.5l-13 -45q-23 3 -31 4l14 70q40 18 92 18q55 0 78 -25q19 -19 19 -45q0 -28 -21.5 -48.5t-62.5 -30.5zM640 639l-242 -352q-68 -101 -210 -302q-12 6 -32 18q101 140 208 300q78 113 244 355q14 -5 32 -19zM483 0q3 21 4 27l54 2q2 0 2 1
q6 30 8 46h-151q0 1 -11 30q4 4 41.5 43.5t57.5 61.5q57 61 97 102q17 0 43 -2q-29 -177 -34 -205h60q-2 -15 -6 -31q-8 0 -32 0.5t-28 0.5q-3 -21 -8 -47l45 -2q-2 -20 -4 -27h-66h-72zM586 268h-5q-48 -52 -73 -79q-57 -62 -72 -79q-2 -2 -1.5 -3t2.5 -1h119z" />
    <glyph glyph-name="questiondown" unicode="&#xbf;" horiz-adv-x="419" 
d="M271 340q-39 0 -39 42q0 17 14 29.5t31 12.5q20 0 30.5 -10t10.5 -26q0 -18 -14 -33t-33 -15zM172 -239q-79 0 -115 40t-36 92q1 66 45 122t136 114q35 24 35 50q0 34 -9 77q13 6 37 14q8 -16 16 -49.5t8 -60.5q0 -8 -2 -22q-105 -64 -157.5 -118t-52.5 -119
q0 -48 27 -75t79 -27q51 0 79 19q6 3 10 12l27 89q23 -2 40 -6q-12 -62 -28 -126q-67 -26 -139 -26z" />
    <glyph glyph-name="Agrave" unicode="&#xc0;" horiz-adv-x="568" 
d="M-53 35l55 3q6 3 8 5q57 102 177 324t158 292q7 1 30 1q22 -107 65.5 -341.5t52.5 -280.5l63 -2q-4 -24 -7 -36h-83q-23 0 -62.5 -0.5t-57.5 -0.5q2 18 6 36l86 3q5 0 3 6q-18 105 -30 167q0 4 -6 4l-255 -1q-56 -108 -90 -176l98 -2l-6 -36h-130q-14 0 -41.5 -0.5
t-40.5 -0.5q4 24 7 36zM346 570h-6q-28 -52 -86 -161t-81 -151q-1 -6 2 -6h229q-50 276 -58 318zM401 702q-39 20 -169 87q13 24 29 45q4 -3 66.5 -45.5t90.5 -60.5q-6 -13 -17 -26z" />
    <glyph glyph-name="Aacute" unicode="&#xc1;" horiz-adv-x="568" 
d="M-53 35l55 3q6 3 8 5q57 102 177 324t158 292q7 1 30 1q22 -107 65.5 -341.5t52.5 -280.5l63 -2q-4 -24 -7 -36h-83q-23 0 -62.5 -0.5t-57.5 -0.5q2 18 6 36l86 3q5 0 3 6q-18 105 -30 167q0 4 -6 4l-255 -1q-56 -108 -90 -176l98 -2l-6 -36h-130q-14 0 -41.5 -0.5
t-40.5 -0.5q4 24 7 36zM346 570h-6q-28 -52 -86 -161t-81 -151q-1 -6 2 -6h229q-50 276 -58 318zM455 833q14 -19 26 -46l-86 -43l-84 -42q-12 20 -16 28q28 17 89.5 57t70.5 46z" />
    <glyph glyph-name="Acircumflex" unicode="&#xc2;" horiz-adv-x="568" 
d="M-53 35l55 3q6 3 8 5q57 102 177 324t158 292q7 1 30 1q22 -107 65.5 -341.5t52.5 -280.5l63 -2q-4 -24 -7 -36h-83q-23 0 -62.5 -0.5t-57.5 -0.5q2 18 6 36l86 3q5 0 3 6q-18 105 -30 167q0 4 -6 4l-255 -1q-56 -108 -90 -176l98 -2l-6 -36h-130q-14 0 -41.5 -0.5
t-40.5 -0.5q4 24 7 36zM346 570h-6q-28 -52 -86 -161t-81 -151q-1 -6 2 -6h229q-50 276 -58 318zM373 780q-20 -13 -60 -37.5t-56 -34.5q-14 14 -21 25q76 58 125 93q11 1 34 1q7 -7 91 -94q-7 -9 -24 -23q-38 30 -89 70z" />
    <glyph glyph-name="Atilde" unicode="&#xc3;" horiz-adv-x="568" 
d="M-53 35l55 3q6 3 8 5q57 102 177 324t158 292q7 1 30 1q22 -107 65.5 -341.5t52.5 -280.5l63 -2q-4 -24 -7 -36h-83q-23 0 -62.5 -0.5t-57.5 -0.5q2 18 6 36l86 3q5 0 3 6q-18 105 -30 167q0 4 -6 4l-255 -1q-56 -108 -90 -176l98 -2l-6 -36h-130q-14 0 -41.5 -0.5
t-40.5 -0.5q4 24 7 36zM346 570h-6q-28 -52 -86 -161t-81 -151q-1 -6 2 -6h229q-50 276 -58 318zM316 797q26 0 65 -26q29 -20 48 -20q31 0 40 44h33q-3 -32 -27 -60.5t-57 -28.5q-8 0 -16.5 2.5t-13.5 6t-14 9t-13 7.5q-36 22 -55 22q-12 0 -24.5 -12t-17.5 -30h-32
q4 32 29.5 59t54.5 27z" />
    <glyph glyph-name="Adieresis" unicode="&#xc4;" horiz-adv-x="568" 
d="M-53 35l55 3q6 3 8 5q57 102 177 324t158 292q7 1 30 1q22 -107 65.5 -341.5t52.5 -280.5l63 -2q-4 -24 -7 -36h-83q-23 0 -62.5 -0.5t-57.5 -0.5q2 18 6 36l86 3q5 0 3 6q-18 105 -30 167q0 4 -6 4l-255 -1q-56 -108 -90 -176l98 -2l-6 -36h-130q-14 0 -41.5 -0.5
t-40.5 -0.5q4 24 7 36zM346 570h-6q-28 -52 -86 -161t-81 -151q-1 -6 2 -6h229q-50 276 -58 318zM295 798q34 0 34 -37q0 -16 -10.5 -27.5t-26.5 -11.5t-26.5 9.5t-10.5 23.5q0 17 10.5 30t29.5 13zM451 798q33 0 33 -36q0 -17 -9.5 -28.5t-26.5 -11.5q-18 0 -28 10t-10 23
q0 17 10.5 30t30.5 13z" />
    <glyph glyph-name="Aring" unicode="&#xc5;" horiz-adv-x="568" 
d="M-53 35l55 3q6 3 8 5q57 102 177 324t158 292q7 1 30 1q22 -107 65.5 -341.5t52.5 -280.5l63 -2q-4 -24 -7 -36h-83q-23 0 -62.5 -0.5t-57.5 -0.5q2 18 6 36l86 3q5 0 3 6q-18 105 -30 167q0 4 -6 4l-255 -1q-56 -108 -90 -176l98 -2l-6 -36h-130q-14 0 -41.5 -0.5
t-40.5 -0.5q4 24 7 36zM346 570h-6q-28 -52 -86 -161t-81 -151q-1 -6 2 -6h229q-50 276 -58 318zM364 701q-37 0 -60.5 19t-23.5 52q0 37 28 61t69 24q38 0 60.5 -20t22.5 -51q0 -34 -26.5 -59.5t-69.5 -25.5zM366 732q20 0 36 13t16 38q0 18 -11.5 30.5t-31.5 12.5
q-24 0 -38.5 -14t-14.5 -38q0 -18 12.5 -30t31.5 -12z" />
    <glyph glyph-name="AE" unicode="&#xc6;" horiz-adv-x="818" 
d="M419 272l-191 -1q-130 -182 -166 -233l94 -2q-2 -18 -6 -36h-129q-14 0 -42 -0.5t-41 -0.5q3 12 7 36l55 3q6 2 8 5q76 99 232.5 311.5t216.5 291.5q2 4 6 4h83h182h78l-18 -147q-20 -2 -34 -2l2 88q0 17 -23 20q-40 4 -196 4q-6 0 -7 -6l-51 -299q120 0 178 2
q15 0 21.5 4.5t9.5 16.5l12 49q12 1 36 1q-3 -13 -6 -28.5t-6.5 -35t-5.5 -29.5q-3 -19 -14 -89h-37l6 51q1 12 -3.5 16t-20.5 4q-106 2 -176 2l-37 -217q-2 -13 5 -16t46 -3q141 0 179 8q14 3 22 20l44 92q17 -3 32 -10q-19 -57 -51 -147q-15 0 -121.5 0.5t-182.5 0.5
q-21 0 -57.5 -0.5t-52.5 -0.5q1 6 3.5 18t3.5 18l74 3q1 0 5 4l38 226q0 4 -4 4zM429 308l49 299h-5q-71 -96 -214 -293q-4 -6 0 -6h170z" />
    <glyph glyph-name="Ccedilla" unicode="&#xc7;" horiz-adv-x="570" 
d="M232 -73l71 63q-103 0 -171 65q-71 68 -71 195q0 104 50 195t122 144q94 71 219 71q80 0 124 -22l-21 -162q-6 -1 -19.5 -1.5t-19.5 -0.5l4 115q0 11 -4 12q-28 17 -90 17q-103 0 -179 -67q-65 -57 -98.5 -135t-33.5 -153q0 -101 38 -154q24 -35 65.5 -56.5t92.5 -21.5
q66 0 184 41q4 -22 4 -38q-79 -28 -140 -39l-72 -64q56 -11 56 -60q0 -32 -36 -58t-99 -26v30q39 1 60 16t21 32t-11 27q-9 9 -42 14q-2 7 -4 21z" />
    <glyph glyph-name="Egrave" unicode="&#xc8;" horiz-adv-x="521" 
d="M9 35l73 3q3 0 5 4l94 570l-77 2q1 6 3.5 18t3.5 18h107h213h77q-5 -49 -17 -147q-22 -2 -34 -2l1 88q0 17 -23 20q-39 4 -195 4q-7 0 -8 -4l-44 -258q118 0 177 2q26 0 30 20l12 50q19 1 37 0q-1 -6 -7 -40t-9 -52q-15 -85 -16 -92h-37l6 53q1 13 -4 17t-20 4
q-106 2 -175 2l-44 -260q-2 -13 5.5 -16t46.5 -3q141 0 179 8q12 2 22 20l44 95q16 -3 32 -10q-19 -59 -51 -150q-15 0 -122 0.5t-183 0.5q-20 0 -56.5 -0.5t-52.5 -0.5q4 24 7 36zM396 702q-27 13 -87.5 44.5t-81.5 42.5q13 24 29 45q21 -14 76 -51.5t81 -54.5
q-7 -16 -17 -26z" />
    <glyph glyph-name="Eacute" unicode="&#xc9;" horiz-adv-x="521" 
d="M9 35l73 3q3 0 5 4l94 570l-77 2q1 6 3.5 18t3.5 18h107h213h77q-5 -49 -17 -147q-22 -2 -34 -2l1 88q0 17 -23 20q-39 4 -195 4q-7 0 -8 -4l-44 -258q118 0 177 2q26 0 30 20l12 50q19 1 37 0q-1 -6 -7 -40t-9 -52q-15 -85 -16 -92h-37l6 53q1 13 -4 17t-20 4
q-106 2 -175 2l-44 -260q-2 -13 5.5 -16t46.5 -3q141 0 179 8q12 2 22 20l44 95q16 -3 32 -10q-19 -59 -51 -150q-15 0 -122 0.5t-183 0.5q-20 0 -56.5 -0.5t-52.5 -0.5q4 24 7 36zM437 833q17 -26 26 -46q-29 -14 -90.5 -45t-80.5 -40q-9 14 -15 28q27 17 87.5 56t72.5 47z
" />
    <glyph glyph-name="Ecircumflex" unicode="&#xca;" horiz-adv-x="521" 
d="M9 35l73 3q3 0 5 4l94 570l-77 2q1 6 3.5 18t3.5 18h107h213h77q-5 -49 -17 -147q-22 -2 -34 -2l1 88q0 17 -23 20q-39 4 -195 4q-7 0 -8 -4l-44 -258q118 0 177 2q26 0 30 20l12 50q19 1 37 0q-1 -6 -7 -40t-9 -52q-15 -85 -16 -92h-37l6 53q1 13 -4 17t-20 4
q-106 2 -175 2l-44 -260q-2 -13 5.5 -16t46.5 -3q141 0 179 8q12 2 22 20l44 95q16 -3 32 -10q-19 -59 -51 -150q-15 0 -122 0.5t-183 0.5q-20 0 -56.5 -0.5t-52.5 -0.5q4 24 7 36zM351 780q-14 -9 -55 -34.5t-60 -37.5q-9 8 -22 25l126 93q11 1 33 1q51 -51 91 -94
q-4 -6 -24 -23q-43 35 -89 70z" />
    <glyph glyph-name="Edieresis" unicode="&#xcb;" horiz-adv-x="521" 
d="M9 35l73 3q3 0 5 4l94 570l-77 2q1 6 3.5 18t3.5 18h107h213h77q-5 -49 -17 -147q-22 -2 -34 -2l1 88q0 17 -23 20q-39 4 -195 4q-7 0 -8 -4l-44 -258q118 0 177 2q26 0 30 20l12 50q19 1 37 0q-1 -6 -7 -40t-9 -52q-15 -85 -16 -92h-37l6 53q1 13 -4 17t-20 4
q-106 2 -175 2l-44 -260q-2 -13 5.5 -16t46.5 -3q141 0 179 8q12 2 22 20l44 95q16 -3 32 -10q-19 -59 -51 -150q-15 0 -122 0.5t-183 0.5q-20 0 -56.5 -0.5t-52.5 -0.5q4 24 7 36zM269 798q34 0 34 -37q0 -16 -11 -27.5t-27 -11.5t-26 9.5t-10 23.5q0 17 10.5 30t29.5 13z
M424 798q17 0 25.5 -10.5t8.5 -25.5q0 -17 -10 -28.5t-26 -11.5q-18 0 -28 10t-10 23q0 17 10 30t30 13z" />
    <glyph glyph-name="Igrave" unicode="&#xcc;" horiz-adv-x="296" 
d="M9 35l72 3q6 0 6 5l95 568l-82 4l3.5 17.5l3.5 17.5h113h105q-3 -17 -8 -35l-82 -3q-1 -1 -3 -4l-97 -570l90 -3q-1 -17 -8 -36q-15 0 -51.5 0.5t-55.5 0.5q-18 0 -55 -0.5t-53 -0.5q3 12 7 36zM278 702q-39 20 -169 87q13 24 29 45q4 -3 66.5 -45.5t90.5 -60.5
q-6 -13 -17 -26z" />
    <glyph glyph-name="Iacute" unicode="&#xcd;" horiz-adv-x="296" 
d="M9 35l72 3q6 0 6 5l95 568l-82 4l3.5 17.5l3.5 17.5h113h105q-3 -17 -8 -35l-82 -3q-1 -1 -3 -4l-97 -570l90 -3q-1 -17 -8 -36q-15 0 -51.5 0.5t-55.5 0.5q-18 0 -55 -0.5t-53 -0.5q3 12 7 36zM322 833q17 -26 26 -46q-29 -14 -90.5 -45t-80.5 -40q-9 14 -15 28
q27 17 87.5 56t72.5 47z" />
    <glyph glyph-name="Icircumflex" unicode="&#xce;" horiz-adv-x="296" 
d="M9 35l72 3q6 0 6 5l95 568l-82 4l3.5 17.5l3.5 17.5h113h105q-3 -17 -8 -35l-82 -3q-1 -1 -3 -4l-97 -570l90 -3q-1 -17 -8 -36q-15 0 -51.5 0.5t-55.5 0.5q-18 0 -55 -0.5t-53 -0.5q3 12 7 36zM229 780q-14 -9 -55 -34.5t-60 -37.5q-9 8 -22 25q14 10 40 29.5t47 35
t39 28.5q11 1 33 1q51 -51 91 -94q-4 -6 -24 -23q-43 35 -89 70z" />
    <glyph glyph-name="Idieresis" unicode="&#xcf;" horiz-adv-x="296" 
d="M9 35l72 3q6 0 6 5l95 568l-82 4l3.5 17.5l3.5 17.5h113h105q-3 -17 -8 -35l-82 -3q-1 -1 -3 -4l-97 -570l90 -3q-1 -17 -8 -36q-15 0 -51.5 0.5t-55.5 0.5q-18 0 -55 -0.5t-53 -0.5q3 12 7 36zM155 798q34 0 34 -37q0 -16 -10.5 -27.5t-26.5 -11.5t-26.5 9.5t-10.5 23.5
q0 17 10.5 30t29.5 13zM311 798q33 0 33 -36q0 -17 -9.5 -28.5t-26.5 -11.5q-18 0 -28 10t-10 23q0 17 10.5 30t30.5 13z" />
    <glyph glyph-name="Eth" unicode="&#xd0;" horiz-adv-x="665" 
d="M183 611l-77 3q1 5 2.5 11.5t2.5 13.5t2 10q96 2 189 2q144 0 228 -59q53 -36 76 -94.5t23 -115.5q0 -97 -42.5 -183t-113.5 -136q-88 -64 -246 -64q-22 0 -65.5 0.5t-52.5 0.5q-14 0 -51 -0.5t-56 -0.5q4 24 7 36l70 2q8 0 8 7l43 262h-93q1 6 3 17.5t2 15.5h94z
M179 306l-38 -230q-4 -25 12 -33t82 -8q148 0 223 67q116 100 116 274q0 102 -59 165q-72 74 -218 74q-45 0 -64 -4l-48 -272q30 1 91.5 1.5t95.5 0.5q-3 -19 -8 -35h-185z" />
    <glyph glyph-name="Ntilde" unicode="&#xd1;" horiz-adv-x="691" 
d="M3 35l66 2q5 1 7 5l96 570l-77 3q4 24 7 35h127q11 -24 60.5 -124.5t116 -236t104.5 -213.5l6 1q16 102 45.5 288t39.5 247l-99 2q3 12 7 36h121h90q-2 -20 -6 -35l-64 -3q-4 0 -4 -5l-103 -607q-13 -5 -34 -5q-41 71 -130 247t-164 338h-6q-30 -180 -90 -542l105 -2
q-2 -18 -6 -36h-128q-17 0 -49 -0.5t-45 -0.5q4 24 7 36zM373 797q26 0 65 -26q29 -20 48 -20q31 0 40 44h33q-3 -32 -27 -60.5t-57 -28.5q-8 0 -16.5 2.5t-13.5 6t-14 9t-13 7.5q-36 22 -55 22q-12 0 -24.5 -12t-17.5 -30h-32q4 32 29.5 59t54.5 27z" />
    <glyph glyph-name="Ograve" unicode="&#xd2;" horiz-adv-x="699" 
d="M665 391q0 -103 -43 -190t-105 -139q-89 -72 -211 -72q-102 0 -168 63q-77 70 -77 203q0 100 42.5 189t106.5 141q89 74 214 74q108 0 171 -70q70 -74 70 -199zM116 260q0 -107 53 -170q54 -62 151 -62q96 0 168 62q123 109 123 300q0 102 -52 167q-52 64 -150 64
q-101 0 -174 -67q-119 -110 -119 -294zM473 702q-39 20 -169 87q13 24 29 45q4 -3 66.5 -45.5t90.5 -60.5q-6 -13 -17 -26z" />
    <glyph glyph-name="Oacute" unicode="&#xd3;" horiz-adv-x="699" 
d="M665 391q0 -103 -43 -190t-105 -139q-89 -72 -211 -72q-102 0 -168 63q-77 70 -77 203q0 100 42.5 189t106.5 141q89 74 214 74q108 0 171 -70q70 -74 70 -199zM116 260q0 -107 53 -170q54 -62 151 -62q96 0 168 62q123 109 123 300q0 102 -52 167q-52 64 -150 64
q-101 0 -174 -67q-119 -110 -119 -294zM519 833q14 -19 26 -46l-86 -43l-84 -42q-12 20 -16 28q28 17 89.5 57t70.5 46z" />
    <glyph glyph-name="Ocircumflex" unicode="&#xd4;" horiz-adv-x="699" 
d="M665 391q0 -103 -43 -190t-105 -139q-89 -72 -211 -72q-102 0 -168 63q-77 70 -77 203q0 100 42.5 189t106.5 141q89 74 214 74q108 0 171 -70q70 -74 70 -199zM116 260q0 -107 53 -170q54 -62 151 -62q96 0 168 62q123 109 123 300q0 102 -52 167q-52 64 -150 64
q-101 0 -174 -67q-119 -110 -119 -294zM438 780q-20 -13 -60 -37.5t-56 -34.5q-14 14 -21 25q76 58 125 93q11 1 34 1q7 -7 91 -94q-7 -9 -24 -23q-38 30 -89 70z" />
    <glyph glyph-name="Otilde" unicode="&#xd5;" horiz-adv-x="699" 
d="M665 391q0 -103 -43 -190t-105 -139q-89 -72 -211 -72q-102 0 -168 63q-77 70 -77 203q0 100 42.5 189t106.5 141q89 74 214 74q108 0 171 -70q70 -74 70 -199zM116 260q0 -107 53 -170q54 -62 151 -62q96 0 168 62q123 109 123 300q0 102 -52 167q-52 64 -150 64
q-101 0 -174 -67q-119 -110 -119 -294zM373 797q26 0 65 -26q29 -20 48 -20q31 0 40 44h33q-3 -32 -27 -60.5t-57 -28.5q-8 0 -16.5 2.5t-13.5 6t-14 9t-13 7.5q-36 22 -55 22q-12 0 -24.5 -12t-17.5 -30h-32q4 32 29.5 59t54.5 27z" />
    <glyph glyph-name="Odieresis" unicode="&#xd6;" horiz-adv-x="699" 
d="M665 391q0 -103 -43 -190t-105 -139q-89 -72 -211 -72q-102 0 -168 63q-77 70 -77 203q0 100 42.5 189t106.5 141q89 74 214 74q108 0 171 -70q70 -74 70 -199zM116 260q0 -107 53 -170q54 -62 151 -62q96 0 168 62q123 109 123 300q0 102 -52 167q-52 64 -150 64
q-101 0 -174 -67q-119 -110 -119 -294zM364 798q34 0 34 -37q0 -16 -11 -27.5t-27 -11.5t-26 9.5t-10 23.5q0 17 10.5 30t29.5 13zM519 798q17 0 25.5 -10.5t8.5 -25.5q0 -17 -10 -28.5t-26 -11.5q-18 0 -28 10t-10 23q0 17 10 30t30 13z" />
    <glyph glyph-name="multiply" unicode="&#xd7;" horiz-adv-x="501" 
d="M276 230q52 -54 158 -162q-11 -14 -27 -27q-26 27 -79.5 81t-80.5 81l-161 -161q-19 17 -27 27q104 104 157 160q-67 70 -151 152q16 19 30 32q23 -23 73.5 -74t78.5 -79q31 33 88.5 91t64.5 65q15 -12 31 -32q-51 -50 -155 -154z" />
    <glyph glyph-name="Oslash" unicode="&#xd8;" horiz-adv-x="699" 
d="M419 660q93 0 154 -53q26 33 62 78q16 -10 32 -26q-24 -28 -66 -78q64 -73 64 -189q0 -90 -35.5 -176t-96.5 -141q-92 -85 -220 -85q-94 0 -154 49q-54 -63 -70 -81l-30 21q41 46 74 84q-72 67 -72 194q0 112 49 203t118 141q82 59 191 59zM405 622q-93 0 -160 -59
q-129 -117 -129 -303q0 -105 47 -165q44 55 118 148t89 112q6 8 175 218q-30 28 -59 38.5t-81 10.5zM326 27q43 0 89 18.5t78 48.5q117 111 117 299q0 103 -41 152q-155 -195 -169 -213q-188 -231 -212 -260q49 -45 138 -45z" />
    <glyph glyph-name="Ugrave" unicode="&#xd9;" horiz-adv-x="639" 
d="M674 615l-69 -4l-60 -353q-23 -134 -98 -207q-65 -61 -168 -61q-99 0 -147 57q-34 39 -40.5 94.5t7.5 123.5l58 346l-69 3q3 12 7 36h97h116q-5 -29 -7 -36l-89 -3q-2 0 -5 -5l-57 -335q-22 -127 13 -183q38 -59 121 -59q80 0 133 49q25 21 48.5 68.5t33.5 111.5
q32 189 57 349q0 4 -3 4l-88 3q3 12 7 36h111q18 0 50.5 0.5t45.5 0.5q-1 -12 -5 -36zM438 702q-39 20 -169 87q13 24 29 45q4 -3 66.5 -45.5t90.5 -60.5q-6 -13 -17 -26z" />
    <glyph glyph-name="Uacute" unicode="&#xda;" horiz-adv-x="639" 
d="M674 615l-69 -4l-60 -353q-23 -134 -98 -207q-65 -61 -168 -61q-99 0 -147 57q-34 39 -40.5 94.5t7.5 123.5l58 346l-69 3q3 12 7 36h97h116q-5 -29 -7 -36l-89 -3q-2 0 -5 -5l-57 -335q-22 -127 13 -183q38 -59 121 -59q80 0 133 49q25 21 48.5 68.5t33.5 111.5
q32 189 57 349q0 4 -3 4l-88 3q3 12 7 36h111q18 0 50.5 0.5t45.5 0.5q-1 -12 -5 -36zM507 833q14 -19 26 -46l-86 -43l-84 -42q-12 20 -16 28q28 17 89.5 57t70.5 46z" />
    <glyph glyph-name="Ucircumflex" unicode="&#xdb;" horiz-adv-x="639" 
d="M674 615l-69 -4l-60 -353q-23 -134 -98 -207q-65 -61 -168 -61q-99 0 -147 57q-34 39 -40.5 94.5t7.5 123.5l58 346l-69 3q3 12 7 36h97h116q-5 -29 -7 -36l-89 -3q-2 0 -5 -5l-57 -335q-22 -127 13 -183q38 -59 121 -59q80 0 133 49q25 21 48.5 68.5t33.5 111.5
q32 189 57 349q0 4 -3 4l-88 3q3 12 7 36h111q18 0 50.5 0.5t45.5 0.5q-1 -12 -5 -36zM414 780q-14 -9 -55 -34.5t-60 -37.5q-9 8 -22 25q14 10 40 29.5t47 35t39 28.5q11 1 33 1q50 -51 91 -94q-4 -6 -24 -23q-43 35 -89 70z" />
    <glyph glyph-name="Udieresis" unicode="&#xdc;" horiz-adv-x="639" 
d="M674 615l-69 -4l-60 -353q-23 -134 -98 -207q-65 -61 -168 -61q-99 0 -147 57q-34 39 -40.5 94.5t7.5 123.5l58 346l-69 3q3 12 7 36h97h116q-5 -29 -7 -36l-89 -3q-2 0 -5 -5l-57 -335q-22 -127 13 -183q38 -59 121 -59q80 0 133 49q25 21 48.5 68.5t33.5 111.5
q32 189 57 349q0 4 -3 4l-88 3q3 12 7 36h111q18 0 50.5 0.5t45.5 0.5q-1 -12 -5 -36zM337 798q34 0 34 -37q0 -16 -11 -27.5t-27 -11.5t-26 9.5t-10 23.5q0 17 10.5 30t29.5 13zM492 798q17 0 25.5 -10.5t8.5 -25.5q0 -17 -10 -28.5t-26 -11.5q-18 0 -28 10t-10 23
q0 17 10 30t30 13z" />
    <glyph glyph-name="Yacute" unicode="&#xdd;" horiz-adv-x="521" 
d="M108 35l80 3q7 0 7 5l35 211q-94 254 -133 354q-2 4 -5 4l-54 3q2 5 4.5 17t3.5 18h79h128q-1 -14 -7 -35l-95 -4q14 -39 54.5 -154t55.5 -157h6q35 48 110.5 158.5t100.5 148.5q2 5 -3 5l-88 2q2 6 4.5 18t3.5 18h120q13 0 41.5 0.5t40.5 0.5q-4 -24 -7 -35l-51 -4
q-46 -62 -136.5 -188t-122.5 -171l-37 -215l96 -3q-1 -17 -8 -36q-17 0 -56 0.5t-59 0.5q-19 0 -58 -0.5t-58 -0.5q2 12 8 36zM449 833q17 -26 26 -46q-29 -14 -90.5 -45t-80.5 -40q-9 14 -15 28q27 17 87.5 56t72.5 47z" />
    <glyph glyph-name="Thorn" unicode="&#xde;" horiz-adv-x="510" 
d="M151 146l-18 -107l116 -3q-5 -26 -8 -36h-136q-67 0 -98 -1q1 7 3.5 19.5l3.5 17.5l66 3q4 0 6 5l93 568l-70 3q5 26 7 35h101h105q-1 -14 -7 -35l-81 -3q-4 -1 -4 -5l-13 -78q5 0 16 0.5t17 0.5q89 0 141 -21q47 -18 71.5 -59t24.5 -86q0 -71 -40 -123.5t-93 -73.5
q-62 -24 -147 -24q-32 0 -56 3zM210 490l-52 -299q8 -9 59 -9q76 0 119 20q96 45 96 158q0 62 -41.5 97.5t-126.5 35.5q-51 0 -54 -3z" />
    <glyph glyph-name="germandbls" unicode="&#xdf;" horiz-adv-x="516" 
d="M39 410l81 3q5 0 5 7q11 69 29.5 112t52.5 79q57 63 133 63q62 0 94 -42q39 -52 24 -161q-11 -11 -44 -30t-46 -28q-34 -24 -48 -44t-14 -45t13.5 -40t49.5 -36q50 -28 73 -55t23 -64q0 -71 -63 -112q-41 -27 -113 -27q-57 0 -87 17q2 38 6 116q23 2 35 1l6 -75
q0 -7 6 -11q21 -13 55 -13q45 0 72 21q35 24 35 74q0 29 -16.5 49t-50.5 38q-49 26 -70.5 49t-21.5 61q0 60 84 118q58 40 72 58q8 80 -22 112q-25 28 -65 28q-51 0 -91 -43q-42 -45 -69 -197q-43 -239 -103 -552q-15 -1 -46 -1q41 221 99 535h-83q4 20 5 35z" />
    <glyph glyph-name="agrave" unicode="&#xe0;" horiz-adv-x="440" 
d="M289 124l-5 2q-65 -73 -114.5 -105.5t-77.5 -32.5q-17 3 -35.5 16.5t-28.5 31.5q-8 13 -8 36q0 68 32 156q28 76 78.5 136t112.5 60q53 0 96 -51h6l21 53q13 -3 37 -11q-54 -185 -95 -381q-2 -5 4 -5q16 0 73 19q6 -20 8 -31q-64 -25 -111 -25q-3 0 -12 7.5t-12 14.5
q1 4 12 43.5t19 66.5zM235 382q-38 0 -71 -38.5t-56 -92.5q-38 -91 -38 -172q0 -23 10 -35t25 -12q38 0 108.5 64.5t86.5 107.5q10 28 31 121q-36 57 -96 57zM218 623q8 -8 136 -129q-14 -16 -22 -24q-18 14 -70 55.5t-79 62.5q12 14 35 35z" />
    <glyph glyph-name="aacute" unicode="&#xe1;" horiz-adv-x="440" 
d="M289 124l-5 2q-65 -73 -114.5 -105.5t-77.5 -32.5q-17 3 -35.5 16.5t-28.5 31.5q-8 13 -8 36q0 68 32 156q28 76 78.5 136t112.5 60q53 0 96 -51h6l21 53q13 -3 37 -11q-54 -185 -95 -381q-2 -5 4 -5q16 0 73 19q6 -20 8 -31q-64 -25 -111 -25q-3 0 -12 7.5t-12 14.5
q1 4 12 43.5t19 66.5zM235 382q-38 0 -71 -38.5t-56 -92.5q-38 -91 -38 -172q0 -23 10 -35t25 -12q38 0 108.5 64.5t86.5 107.5q10 28 31 121q-36 57 -96 57zM384 615q16 -15 30 -39q-16 -11 -70.5 -49t-82.5 -57q-11 13 -20 26q25 20 143 119z" />
    <glyph glyph-name="acircumflex" unicode="&#xe2;" horiz-adv-x="440" 
d="M289 124l-5 2q-65 -73 -114.5 -105.5t-77.5 -32.5q-17 3 -35.5 16.5t-28.5 31.5q-8 13 -8 36q0 68 32 156q28 76 78.5 136t112.5 60q53 0 96 -51h6l21 53q13 -3 37 -11q-54 -185 -95 -381q-2 -5 4 -5q16 0 73 19q6 -20 8 -31q-64 -25 -111 -25q-3 0 -12 7.5t-12 14.5
q1 4 12 43.5t19 66.5zM235 382q-38 0 -71 -38.5t-56 -92.5q-38 -91 -38 -172q0 -23 10 -35t25 -12q38 0 108.5 64.5t86.5 107.5q10 28 31 121q-36 57 -96 57zM286 553q-15 -12 -51 -42.5t-51 -43.5q-12 12 -21 24q83 81 114 110q10 1 31 1q12 -16 38.5 -57t36.5 -55
q-9 -9 -25 -21q-11 12 -35.5 41t-36.5 43z" />
    <glyph glyph-name="atilde" unicode="&#xe3;" horiz-adv-x="440" 
d="M289 124l-5 2q-65 -73 -114.5 -105.5t-77.5 -32.5q-17 3 -35.5 16.5t-28.5 31.5q-8 13 -8 36q0 68 32 156q28 76 78.5 136t112.5 60q53 0 96 -51h6l21 53q13 -3 37 -11q-54 -185 -95 -381q-2 -5 4 -5q16 0 73 19q6 -20 8 -31q-64 -25 -111 -25q-3 0 -12 7.5t-12 14.5
q1 4 12 43.5t19 66.5zM235 382q-38 0 -71 -38.5t-56 -92.5q-38 -91 -38 -172q0 -23 10 -35t25 -12q38 0 108.5 64.5t86.5 107.5q10 28 31 121q-36 57 -96 57zM247 586q6 0 12 -2t10.5 -4t11 -6.5t10 -7t9.5 -7.5t8 -7q27 -21 37 -21q26 0 34 53h31q-5 -43 -23.5 -70
t-49.5 -27q-19 0 -52 28q-30 28 -45 28q-24 0 -39 -49h-31q8 42 29 67t48 25z" />
    <glyph glyph-name="adieresis" unicode="&#xe4;" horiz-adv-x="440" 
d="M289 124l-5 2q-65 -73 -114.5 -105.5t-77.5 -32.5q-17 3 -35.5 16.5t-28.5 31.5q-8 13 -8 36q0 68 32 156q28 76 78.5 136t112.5 60q53 0 96 -51h6l21 53q13 -3 37 -11q-54 -185 -95 -381q-2 -5 4 -5q16 0 73 19q6 -20 8 -31q-64 -25 -111 -25q-3 0 -12 7.5t-12 14.5
q1 4 12 43.5t19 66.5zM235 382q-38 0 -71 -38.5t-56 -92.5q-38 -91 -38 -172q0 -23 10 -35t25 -12q38 0 108.5 64.5t86.5 107.5q10 28 31 121q-36 57 -96 57zM210 568q19 0 27 -11t8 -25q0 -17 -11 -29t-26 -12q-17 0 -27.5 9.5t-10.5 24.5t10.5 29t29.5 14zM357 568
q16 0 26 -12t10 -24q0 -16 -10.5 -28.5t-29.5 -12.5q-16 0 -25.5 11t-9.5 22q0 17 10 30.5t29 13.5z" />
    <glyph glyph-name="aring" unicode="&#xe5;" horiz-adv-x="440" 
d="M289 124l-5 2q-65 -73 -114.5 -105.5t-77.5 -32.5q-17 3 -35.5 16.5t-28.5 31.5q-8 13 -8 36q0 68 32 156q28 76 78.5 136t112.5 60q53 0 96 -51h6l21 53q13 -3 37 -11q-54 -185 -95 -381q-2 -5 4 -5q16 0 73 19q6 -20 8 -31q-64 -25 -111 -25q-3 0 -12 7.5t-12 14.5
q1 4 12 43.5t19 66.5zM235 382q-38 0 -71 -38.5t-56 -92.5q-38 -91 -38 -172q0 -23 10 -35t25 -12q38 0 108.5 64.5t86.5 107.5q10 28 31 121q-36 57 -96 57zM302 636q33 0 54.5 -20t21.5 -48q0 -38 -29.5 -63.5t-66.5 -25.5q-32 0 -55.5 20t-23.5 49q0 38 29 63t70 25z
M298 606q-23 0 -39 -15t-16 -39q0 -18 12.5 -30t30.5 -12q21 0 36.5 15t15.5 40q0 20 -11 30.5t-29 10.5z" />
    <glyph glyph-name="ae" unicode="&#xe6;" horiz-adv-x="635" 
d="M362 349h4q61 75 144 75q40 0 67.5 -29.5t28.5 -66.5q-2 -23 -16.5 -50t-33.5 -39q-72 -39 -213 -39q-16 -56 -16 -91q0 -78 71 -78q58 0 156 58q8 -13 15 -29q-112 -70 -185 -70q-44 0 -73 29t-29 73q0 17 1 26l-4 2q-48 -57 -100.5 -94.5t-84.5 -37.5q-16 2 -36 16
t-29 33q-8 16 -8 34q0 71 34 160q17 45 41.5 85.5t64.5 74t83 33.5q65 0 118 -75zM494 384q-58 0 -95 -51q-28 -36 -48 -99q101 -2 158 27q45 23 45 59q0 27 -16 45.5t-44 18.5zM72 79q0 -22 10 -34.5t24 -12.5q39 0 104.5 61t84.5 105q20 67 44 117q-36 67 -100 67
q-75 0 -131 -136q-36 -86 -36 -167z" />
    <glyph glyph-name="ccedilla" unicode="&#xe7;" horiz-adv-x="341" 
d="M77 -67l60 57q-44 0 -79.5 32.5t-35.5 91.5q0 51 21.5 116.5t64.5 115.5q36 41 72.5 59.5t87.5 18.5q38 0 64 -17q-2 -11 -14 -27t-21 -22q-47 20 -68 20q-49 0 -85 -47q-29 -39 -49.5 -98t-20.5 -110q0 -91 79 -91q45 0 125 38q6 -14 11 -30q-60 -31 -99 -41l-61 -59
q23 -3 37 -17.5t14 -35.5q0 -36 -35.5 -58.5t-87.5 -24.5v29q34 3 54.5 16t20.5 32q0 34 -49 36q-2 3 -4 9t-2 7z" />
    <glyph glyph-name="egrave" unicode="&#xe8;" horiz-adv-x="383" 
d="M24 99q0 51 23.5 122t67.5 124q66 79 140 79q45 0 71.5 -30.5t27.5 -70.5q-4 -24 -18.5 -49.5t-34.5 -36.5q-73 -37 -210 -37q-16 -50 -16 -90q0 -79 71 -79q58 0 157 58q9 -15 14 -29q-106 -70 -185 -70q-41 0 -74.5 29t-33.5 80zM242 384q-50 0 -88 -49
q-34 -44 -53 -101q99 -2 156 27q45 22 45 58q0 28 -15 46.5t-45 18.5zM191 623q53 -48 136 -129q-6 -8 -22 -24q-134 107 -148 118q15 18 34 35z" />
    <glyph glyph-name="eacute" unicode="&#xe9;" horiz-adv-x="383" 
d="M24 99q0 51 23.5 122t67.5 124q66 79 140 79q45 0 71.5 -30.5t27.5 -70.5q-4 -24 -18.5 -49.5t-34.5 -36.5q-73 -37 -210 -37q-16 -50 -16 -90q0 -79 71 -79q58 0 157 58q9 -15 14 -29q-106 -70 -185 -70q-41 0 -74.5 29t-33.5 80zM242 384q-50 0 -88 -49
q-34 -44 -53 -101q99 -2 156 27q45 22 45 58q0 28 -15 46.5t-45 18.5zM351 615q16 -15 30 -39q-16 -11 -70.5 -49t-82.5 -57q-11 13 -20 26q25 20 143 119z" />
    <glyph glyph-name="ecircumflex" unicode="&#xea;" horiz-adv-x="383" 
d="M24 99q0 51 23.5 122t67.5 124q66 79 140 79q45 0 71.5 -30.5t27.5 -70.5q-4 -24 -18.5 -49.5t-34.5 -36.5q-73 -37 -210 -37q-16 -50 -16 -90q0 -79 71 -79q58 0 157 58q9 -15 14 -29q-106 -70 -185 -70q-41 0 -74.5 29t-33.5 80zM242 384q-50 0 -88 -49
q-34 -44 -53 -101q99 -2 156 27q45 22 45 58q0 28 -15 46.5t-45 18.5zM271 553q-15 -12 -51 -42.5t-51 -43.5q-12 12 -21 24q83 81 114 110q10 1 31 1q12 -16 38.5 -57t36.5 -55q-9 -9 -25 -21q-10 12 -35 41t-37 43z" />
    <glyph glyph-name="edieresis" unicode="&#xeb;" horiz-adv-x="383" 
d="M24 99q0 51 23.5 122t67.5 124q66 79 140 79q45 0 71.5 -30.5t27.5 -70.5q-4 -24 -18.5 -49.5t-34.5 -36.5q-73 -37 -210 -37q-16 -50 -16 -90q0 -79 71 -79q58 0 157 58q9 -15 14 -29q-106 -70 -185 -70q-41 0 -74.5 29t-33.5 80zM242 384q-50 0 -88 -49
q-34 -44 -53 -101q99 -2 156 27q45 22 45 58q0 28 -15 46.5t-45 18.5zM197 568q19 0 27 -11t8 -25q0 -17 -11 -29t-26 -12q-17 0 -27.5 9.5t-10.5 24.5t10.5 29t29.5 14zM344 568q16 0 26 -12t10 -24q0 -16 -10.5 -28.5t-29.5 -12.5q-16 0 -25.5 11t-9.5 22q0 17 10 30.5
t29 13.5z" />
    <glyph glyph-name="igrave" unicode="&#xec;" horiz-adv-x="236" 
d="M126 375l-87 -7q-2 22 -2 31q34 5 63.5 11.5t43.5 10t16 3.5q3 0 10.5 -7.5t10.5 -13.5q-15 -60 -51.5 -211t-38.5 -158q-2 -6 3 -6q19 0 79 17q7 -17 8 -31q-66 -23 -108 -23q-4 0 -16 9.5t-16 18.5q65 268 85 356zM78 623q53 -48 136 -129q-6 -8 -22 -24
q-134 107 -148 118q15 18 34 35z" />
    <glyph glyph-name="iacute" unicode="&#xed;" horiz-adv-x="236" 
d="M126 375l-87 -7q-2 22 -2 31q34 5 63.5 11.5t43.5 10t16 3.5q3 0 10.5 -7.5t10.5 -13.5q-15 -60 -51.5 -211t-38.5 -158q-2 -6 3 -6q19 0 79 17q7 -17 8 -31q-66 -23 -108 -23q-4 0 -16 9.5t-16 18.5q65 268 85 356zM260 615q16 -15 30 -39q-16 -11 -70.5 -49t-82.5 -57
q-11 13 -20 26q25 20 143 119z" />
    <glyph glyph-name="icircumflex" unicode="&#xee;" horiz-adv-x="236" 
d="M126 375l-87 -7q-2 22 -2 31q34 5 63.5 11.5t43.5 10t16 3.5q3 0 10.5 -7.5t10.5 -13.5q-15 -60 -51.5 -211t-38.5 -158q-2 -6 3 -6q19 0 79 17q7 -17 8 -31q-66 -23 -108 -23q-4 0 -16 9.5t-16 18.5q65 268 85 356zM173 553q-15 -12 -51.5 -42.5t-51.5 -43.5
q-2 3 -6.5 7.5t-8 8.5t-6.5 8q82 80 115 110q10 1 30 1q13 -17 41 -59.5t35 -52.5q-18 -15 -26 -21q-10 12 -71 84z" />
    <glyph glyph-name="idieresis" unicode="&#xef;" horiz-adv-x="236" 
d="M126 375l-87 -7q-2 22 -2 31q34 5 63.5 11.5t43.5 10t16 3.5q3 0 10.5 -7.5t10.5 -13.5q-15 -60 -51.5 -211t-38.5 -158q-2 -6 3 -6q19 0 79 17q7 -17 8 -31q-66 -23 -108 -23q-4 0 -16 9.5t-16 18.5q65 268 85 356zM87 568q19 0 27 -11t8 -25q0 -17 -11 -29t-26 -12
q-17 0 -27.5 9.5t-10.5 24.5t10.5 29t29.5 14zM234 568q16 0 26 -12t10 -24q0 -16 -10.5 -28.5t-29.5 -12.5q-16 0 -25.5 11t-9.5 22q0 17 10 30.5t29 13.5z" />
    <glyph glyph-name="eth" unicode="&#xf0;" horiz-adv-x="410" 
d="M25 123q0 68 27 132t72 106q56 53 121 53q48 0 79 -36l5 2q-16 107 -55 166q-14 -6 -61.5 -27.5t-76.5 -34.5q-8 15 -15 34q131 58 134 59q-48 63 -125 82q7 17 13 31q93 -17 152 -97q16 7 56 26t61 29q7 -16 14 -36q-21 -9 -58.5 -25.5t-52.5 -23.5q27 -41 42 -102.5
t15 -118.5q0 -197 -97 -295q-55 -57 -128 -57q-61 0 -91 38q-31 35 -31 95zM76 132q0 -49 19 -77q21 -30 61 -30q52 0 96 53q29 36 50 95t21 120q0 22 -2.5 30.5t-12.5 21.5q-24 32 -72 32q-52 0 -105 -65q-19 -23 -37 -74t-18 -106z" />
    <glyph glyph-name="ntilde" unicode="&#xf1;" horiz-adv-x="493" 
d="M127 374l-81 -8q-2 22 -2 31q27 5 55 12t43 11t17 4q10 0 20 -16q-4 -14 -14.5 -53.5t-16.5 -62.5l6 -2q57 65 114.5 99t96.5 35q41 -8 61 -49q5 -13 5 -29q0 -35 -24.5 -123.5t-60.5 -186.5q-2 -7 4 -7q20 0 76 18q3 -11 7 -33q-67 -23 -115 -23q-4 0 -12 8.5t-10 19.5
q37 106 66 215q18 70 18 102q0 41 -34 41q-49 0 -123 -61.5t-86 -106.5q-5 -18 -26.5 -104t-26.5 -105h-47q85 352 90 374zM268 586q8 0 17.5 -4t15 -7.5t16 -12t12.5 -10.5q25 -21 37 -21q25 0 34 53h31q-6 -43 -24 -70t-49 -27q-19 0 -52 28q-32 28 -45 28q-25 0 -40 -49
h-30q7 42 28.5 67t48.5 25z" />
    <glyph glyph-name="ograve" unicode="&#xf2;" horiz-adv-x="418" 
d="M374 284q0 -139 -96 -236q-58 -58 -136 -58q-57 0 -88 38q-29 36 -29 91q0 71 28 138t75 113q57 54 128 54q49 0 79 -30q39 -39 39 -110zM157 26q55 0 100 52q29 33 47 87.5t18 102.5q0 57 -18 85q-20 34 -62 34q-60 0 -107 -64q-22 -31 -40 -83t-18 -108q0 -48 19 -77
q18 -29 61 -29zM198 623q8 -8 136 -129q-14 -16 -22 -24q-18 14 -70 55.5t-79 62.5q12 14 35 35z" />
    <glyph glyph-name="oacute" unicode="&#xf3;" horiz-adv-x="418" 
d="M374 284q0 -139 -96 -236q-58 -58 -136 -58q-57 0 -88 38q-29 36 -29 91q0 71 28 138t75 113q57 54 128 54q49 0 79 -30q39 -39 39 -110zM157 26q55 0 100 52q29 33 47 87.5t18 102.5q0 57 -18 85q-20 34 -62 34q-60 0 -107 -64q-22 -31 -40 -83t-18 -108q0 -48 19 -77
q18 -29 61 -29zM359 615q16 -15 30 -39q-16 -11 -70.5 -49t-82.5 -57q-11 13 -20 26q25 20 143 119z" />
    <glyph glyph-name="ocircumflex" unicode="&#xf4;" horiz-adv-x="418" 
d="M374 284q0 -139 -96 -236q-58 -58 -136 -58q-57 0 -88 38q-29 36 -29 91q0 71 28 138t75 113q57 54 128 54q49 0 79 -30q39 -39 39 -110zM157 26q55 0 100 52q29 33 47 87.5t18 102.5q0 57 -18 85q-20 34 -62 34q-60 0 -107 -64q-22 -31 -40 -83t-18 -108q0 -48 19 -77
q18 -29 61 -29zM269 553q-15 -12 -51 -42.5t-51 -43.5q-12 12 -21 24q83 81 114 110q10 1 31 1q12 -16 38.5 -57t36.5 -55q-9 -9 -25 -21q-10 12 -35 41t-37 43z" />
    <glyph glyph-name="otilde" unicode="&#xf5;" horiz-adv-x="418" 
d="M374 284q0 -139 -96 -236q-58 -58 -136 -58q-57 0 -88 38q-29 36 -29 91q0 71 28 138t75 113q57 54 128 54q49 0 79 -30q39 -39 39 -110zM157 26q55 0 100 52q29 33 47 87.5t18 102.5q0 57 -18 85q-20 34 -62 34q-60 0 -107 -64q-22 -31 -40 -83t-18 -108q0 -48 19 -77
q18 -29 61 -29zM231 586q8 0 17.5 -4t15 -7.5t16 -12t12.5 -10.5q25 -21 37 -21q25 0 34 53h31q-6 -43 -24 -70t-49 -27q-19 0 -52 28q-32 28 -45 28q-25 0 -40 -49h-30q7 42 28.5 67t48.5 25z" />
    <glyph glyph-name="odieresis" unicode="&#xf6;" horiz-adv-x="418" 
d="M374 284q0 -139 -96 -236q-58 -58 -136 -58q-57 0 -88 38q-29 36 -29 91q0 71 28 138t75 113q57 54 128 54q49 0 79 -30q39 -39 39 -110zM157 26q55 0 100 52q29 33 47 87.5t18 102.5q0 57 -18 85q-20 34 -62 34q-60 0 -107 -64q-22 -31 -40 -83t-18 -108q0 -48 19 -77
q18 -29 61 -29zM203 568q19 0 27 -11t8 -25q0 -17 -11 -29t-26 -12q-17 0 -27.5 9.5t-10.5 24.5t10.5 29t29.5 14zM350 568q16 0 26 -12t10 -24q0 -16 -10.5 -28.5t-29.5 -12.5q-16 0 -25.5 11t-9.5 22q0 17 10 30.5t29 13.5z" />
    <glyph glyph-name="divide" unicode="&#xf7;" horiz-adv-x="501" 
d="M250 407q18 0 29 -12.5t11 -29.5q0 -15 -10.5 -29t-27.5 -14q-23 0 -33.5 13.5t-10.5 29.5q0 17 11 29.5t31 12.5zM444 260q0 -17 -2 -45h-386q0 7 0.5 21.5t0.5 20.5q67 1 197.5 2t189.5 1zM249 152q19 0 29.5 -12.5t10.5 -29.5q0 -16 -10 -29.5t-28 -13.5
q-23 0 -33.5 13.5t-10.5 29.5t11 29t31 13z" />
    <glyph glyph-name="oslash" unicode="&#xf8;" horiz-adv-x="418" 
d="M257 424q54 0 77 -32q9 10 24 27.5t22 25.5q12 -9 25 -25q-7 -8 -24 -27.5t-26 -29.5q20 -32 20 -83q0 -58 -24 -121t-72 -112q-57 -57 -130 -57q-51 0 -86 33q-27 -30 -50 -52q-9 6 -24 21q1 1 22.5 23.5t32.5 34.5q-19 34 -19 74q0 68 28 134t75 112q55 54 129 54z
M243 387q-61 0 -108 -66q-22 -30 -41 -81t-19 -102q0 -34 4 -54q24 29 103.5 125t123.5 149q-15 29 -63 29zM160 26q54 0 97 52q29 35 49 88t20 107q0 26 -2 56q-104 -123 -232 -272q21 -31 68 -31z" />
    <glyph glyph-name="ugrave" unicode="&#xf9;" horiz-adv-x="469" 
d="M126 375l-79 -8q-2 11 -4 31q32 6 61.5 12.5t43 10t14.5 3.5q5 0 11 -7t8 -14q-42 -123 -68 -248q-11 -50 -11 -81q0 -41 34 -41q38 0 108 61.5t81 99.5q11 40 49 219q17 1 48 1q-2 -12 -37.5 -169t-46.5 -210q0 -6 4 -6q20 0 76 19q4 -11 8 -31q-60 -25 -108 -25
q-4 0 -12.5 8.5t-13.5 17.5q3 17 23 99l-5 2q-120 -129 -187 -131q-14 2 -31.5 13t-27.5 25q-11 14 -11 41q0 78 73 308zM213 623q8 -8 136 -129q-14 -16 -22 -24q-18 14 -70 55.5t-79 62.5q12 14 35 35z" />
    <glyph glyph-name="uacute" unicode="&#xfa;" horiz-adv-x="469" 
d="M126 375l-79 -8q-2 11 -4 31q32 6 61.5 12.5t43 10t14.5 3.5q5 0 11 -7t8 -14q-42 -123 -68 -248q-11 -50 -11 -81q0 -41 34 -41q38 0 108 61.5t81 99.5q11 40 49 219q17 1 48 1q-2 -12 -37.5 -169t-46.5 -210q0 -6 4 -6q20 0 76 19q4 -11 8 -31q-60 -25 -108 -25
q-4 0 -12.5 8.5t-13.5 17.5q3 17 23 99l-5 2q-120 -129 -187 -131q-14 2 -31.5 13t-27.5 25q-11 14 -11 41q0 78 73 308zM396 615q16 -15 30 -39q-16 -11 -70.5 -49t-82.5 -57q-11 13 -20 26q25 20 143 119z" />
    <glyph glyph-name="ucircumflex" unicode="&#xfb;" horiz-adv-x="469" 
d="M126 375l-79 -8q-2 11 -4 31q32 6 61.5 12.5t43 10t14.5 3.5q5 0 11 -7t8 -14q-42 -123 -68 -248q-11 -50 -11 -81q0 -41 34 -41q38 0 108 61.5t81 99.5q11 40 49 219q17 1 48 1q-2 -12 -37.5 -169t-46.5 -210q0 -6 4 -6q20 0 76 19q4 -11 8 -31q-60 -25 -108 -25
q-4 0 -12.5 8.5t-13.5 17.5q3 17 23 99l-5 2q-120 -129 -187 -131q-14 2 -31.5 13t-27.5 25q-11 14 -11 41q0 78 73 308zM310 553q-15 -12 -51.5 -42.5t-51.5 -43.5l-21 24q82 80 115 110q10 1 30 1q13 -17 41 -59.5t35 -52.5q-18 -15 -26 -21q-11 12 -71 84z" />
    <glyph glyph-name="udieresis" unicode="&#xfc;" horiz-adv-x="469" 
d="M126 375l-79 -8q-2 11 -4 31q32 6 61.5 12.5t43 10t14.5 3.5q5 0 11 -7t8 -14q-42 -123 -68 -248q-11 -50 -11 -81q0 -41 34 -41q38 0 108 61.5t81 99.5q11 40 49 219q17 1 48 1q-2 -12 -37.5 -169t-46.5 -210q0 -6 4 -6q20 0 76 19q4 -11 8 -31q-60 -25 -108 -25
q-4 0 -12.5 8.5t-13.5 17.5q3 17 23 99l-5 2q-120 -129 -187 -131q-14 2 -31.5 13t-27.5 25q-11 14 -11 41q0 78 73 308zM225 568q19 0 27 -11t8 -25q0 -17 -11 -29t-26 -12q-17 0 -27.5 9.5t-10.5 24.5t10.5 29t29.5 14zM372 568q16 0 26 -12t10 -24q0 -16 -10.5 -28.5
t-29.5 -12.5q-16 0 -25.5 11t-9.5 22q0 17 10 30.5t29 13.5z" />
    <glyph glyph-name="yacute" unicode="&#xfd;" horiz-adv-x="413" 
d="M92 374l-81 -16q-4 23 -5 31q27 8 53.5 17t39.5 13.5t15 4.5q8 0 23 -17q22 -251 38 -402h4q52 77 82 138q29 59 54.5 127t25.5 102q0 10 -9 8l-65 -7l-3 30q21 4 46 9.5t39.5 8.5t17.5 3q4 0 15 -11.5t11 -15.5q0 -87 -98 -271q-78 -148 -209 -289q-31 -34 -59.5 -56.5
t-35.5 -22.5q-12 0 -26 12t-16 23q56 29 104 72q56 49 84 92q-25 195 -45 417zM347 615q16 -15 30 -39q-16 -11 -70.5 -49t-82.5 -57q-11 13 -20 26q25 20 143 119z" />
    <glyph glyph-name="thorn" unicode="&#xfe;" horiz-adv-x="448" 
d="M129 274l8 -3q58 79 107 116t99 38q21 -3 38.5 -18.5t25.5 -34.5q6 -14 6 -32q0 -140 -66 -247q-27 -44 -69 -73.5t-94 -29.5q-57 0 -97 41q-8 -45 -27.5 -138.5t-25.5 -123.5q-15 -1 -46 -1q22 113 75 383.5t81 413.5l-83 -6v31q34 5 61.5 10.5t40 8.5t13.5 3
q4 0 11.5 -5.5t9.5 -10.5q-46 -227 -68 -322zM362 329q0 52 -39 52q-47 0 -118.5 -73.5t-87.5 -125.5q-9 -29 -22 -103q15 -23 41.5 -37t52.5 -14q43 0 76 28t52 68q45 93 45 205z" />
    <glyph glyph-name="ydieresis" unicode="&#xff;" horiz-adv-x="412" 
d="M92 374l-81 -16q-4 23 -5 31q27 8 53.5 17t39.5 13.5t15 4.5q8 0 23 -17q22 -251 38 -402h4q52 77 82 138q29 59 54.5 127t25.5 102q0 10 -9 8l-65 -7l-3 30q21 4 46 9.5t39.5 8.5t17.5 3q4 0 15 -11.5t11 -15.5q0 -87 -98 -271q-78 -148 -209 -289q-31 -34 -59.5 -56.5
t-35.5 -22.5q-12 0 -26 12t-16 23q56 29 104 72q56 49 84 92q-25 195 -45 417zM183 568q19 0 27 -11t8 -25q0 -16 -11.5 -28.5t-25.5 -12.5q-18 0 -28.5 9.5t-10.5 24.5t11 29t30 14zM330 568q16 0 25.5 -11.5t9.5 -24.5q0 -16 -10.5 -28.5t-28.5 -12.5q-16 0 -26 11t-10 22
q0 17 10.5 30.5t29.5 13.5z" />
    <glyph glyph-name="Amacron" unicode="&#x100;" horiz-adv-x="568" 
d="M-53 35l55 3q6 3 8 5q57 102 177 324t158 292q7 1 30 1q22 -107 65.5 -341.5t52.5 -280.5l63 -2q-4 -24 -7 -36h-83q-23 0 -62.5 -0.5t-57.5 -0.5q2 18 6 36l86 3q5 0 3 6q-18 105 -30 167q0 4 -6 4l-255 -1q-56 -108 -90 -176l98 -2l-6 -36h-130q-14 0 -41.5 -0.5
t-40.5 -0.5q4 24 7 36zM346 570h-6q-28 -52 -86 -161t-81 -151q-1 -6 2 -6h229q-50 276 -58 318zM472 781q-3 -20 -8 -44q-137 0 -199 1q4 28 8 41q33 1 99.5 1.5t99.5 0.5z" />
    <glyph glyph-name="amacron" unicode="&#x101;" horiz-adv-x="440" 
d="M289 124l-5 2q-65 -73 -114.5 -105.5t-77.5 -32.5q-17 3 -35.5 16.5t-28.5 31.5q-8 13 -8 36q0 68 32 156q28 76 78.5 136t112.5 60q53 0 96 -51h6l21 53q13 -3 37 -11q-54 -185 -95 -381q-2 -5 4 -5q16 0 73 19q6 -20 8 -31q-64 -25 -111 -25q-3 0 -12 7.5t-12 14.5
q1 4 12 43.5t19 66.5zM235 382q-38 0 -71 -38.5t-56 -92.5q-38 -91 -38 -172q0 -23 10 -35t25 -12q38 0 108.5 64.5t86.5 107.5q10 28 31 121q-36 57 -96 57zM390 542q-1 -8 -8 -40h-191q4 26 7 38q128 2 192 2z" />
    <glyph glyph-name="Abreve" unicode="&#x102;" horiz-adv-x="568" 
d="M-53 35l55 3q6 3 8 5q57 102 177 324t158 292q7 1 30 1q22 -107 65.5 -341.5t52.5 -280.5l63 -2q-4 -24 -7 -36h-83q-23 0 -62.5 -0.5t-57.5 -0.5q2 18 6 36l86 3q5 0 3 6q-18 105 -30 167q0 4 -6 4l-255 -1q-56 -108 -90 -176l98 -2l-6 -36h-130q-14 0 -41.5 -0.5
t-40.5 -0.5q4 24 7 36zM346 570h-6q-28 -52 -86 -161t-81 -151q-1 -6 2 -6h229q-50 276 -58 318zM448 822q24 -4 39 -9q-12 -34 -46 -61.5t-81 -27.5q-43 0 -69.5 27t-31.5 63q11 4 38 11q19 -54 68 -54q54 0 83 51z" />
    <glyph glyph-name="abreve" unicode="&#x103;" horiz-adv-x="440" 
d="M289 124l-5 2q-65 -73 -114.5 -105.5t-77.5 -32.5q-17 3 -35.5 16.5t-28.5 31.5q-8 13 -8 36q0 68 32 156q28 76 78.5 136t112.5 60q53 0 96 -51h6l21 53q13 -3 37 -11q-54 -185 -95 -381q-2 -5 4 -5q16 0 73 19q6 -20 8 -31q-64 -25 -111 -25q-3 0 -12 7.5t-12 14.5
q1 4 12 43.5t19 66.5zM235 382q-38 0 -71 -38.5t-56 -92.5q-38 -91 -38 -172q0 -23 10 -35t25 -12q38 0 108.5 64.5t86.5 107.5q10 28 31 121q-36 57 -96 57zM293 481q-40 0 -64 27t-28 62q15 8 32 11q18 -57 66 -57q51 0 78 54q20 -4 33 -8q-11 -35 -41 -62t-76 -27z" />
    <glyph glyph-name="Aogonek" unicode="&#x104;" horiz-adv-x="568" 
d="M346 570h-6q-28 -52 -86 -161t-81 -151q-1 -6 2 -6h229q-50 276 -58 318zM549 0h-40q-37 -2 -85 -46.5t-48 -84.5q0 -17 10.5 -25.5t25.5 -8.5q26 0 55 24q10 -11 12 -22q-46 -43 -89 -43q-29 0 -48.5 18.5t-19.5 49.5q0 37 34 75t78 63q-7 0 -44.5 -0.5t-43.5 -0.5
q2 18 6 36l86 3q5 0 3 6q-18 105 -30 167q0 4 -6 4l-255 -1q-56 -108 -90 -176l98 -2l-6 -36h-130q-14 0 -41.5 -0.5t-40.5 -0.5q4 24 7 36l55 3q6 3 8 5q57 102 177 324t158 292q10 1 30 1q22 -107 65.5 -341.5t52.5 -280.5l63 -2q-4 -24 -7 -36z" />
    <glyph glyph-name="aogonek" unicode="&#x105;" horiz-adv-x="440" 
d="M393 17q-32 -11 -57 -18q-49 -28 -83 -63t-34 -67q0 -17 10.5 -25.5t24.5 -8.5q26 0 56 24q8 -11 12 -22q-46 -43 -89 -43q-29 0 -49 17t-20 46q0 25 19 52t40 44.5t53 40.5q-15 15 -18 20q1 4 12 43.5t19 66.5l-5 2q-65 -73 -114.5 -105.5t-77.5 -32.5q-17 3 -35.5 16.5
t-28.5 31.5q-8 13 -8 36q0 68 32 156q28 76 78.5 136t112.5 60q53 0 96 -51h6l21 53q13 -3 37 -11q-54 -185 -95 -381q-2 -5 4 -5q16 0 73 19q6 -20 8 -31zM235 382q-38 0 -71 -38.5t-56 -92.5q-38 -91 -38 -172q0 -23 10 -35t25 -12q38 0 108.5 64.5t86.5 107.5
q10 28 31 121q-36 57 -96 57z" />
    <glyph glyph-name="Cacute" unicode="&#x106;" horiz-adv-x="570" 
d="M516 474l4 115q0 11 -4 12q-28 17 -90 17q-103 0 -179 -67q-65 -57 -98.5 -135t-33.5 -153q0 -101 38 -154q24 -35 65.5 -56.5t92.5 -21.5q66 0 184 41q4 -22 4 -38q-126 -44 -196 -44q-103 0 -171 65q-71 68 -71 195q0 104 50 195t122 144q94 71 219 71q80 0 124 -22
l-21 -162q-6 -1 -19.5 -1.5t-19.5 -0.5zM518 833q14 -19 26 -46l-86 -43l-84 -42q-12 20 -16 28q28 17 89.5 57t70.5 46z" />
    <glyph glyph-name="cacute" unicode="&#x107;" horiz-adv-x="341" 
d="M22 114q0 51 21.5 116.5t64.5 115.5q36 41 72.5 59.5t87.5 18.5q38 0 64 -17q-2 -11 -14 -27t-21 -22q-47 20 -68 20q-49 0 -85 -47q-29 -39 -49.5 -98t-20.5 -110q0 -91 79 -91q45 0 125 38q6 -14 11 -30q-96 -50 -152 -50q-44 0 -79.5 32.5t-35.5 91.5zM336 615
q16 -15 30 -39q-16 -11 -70.5 -49t-82.5 -57q-11 13 -20 26q25 20 143 119z" />
    <glyph glyph-name="Ccaron" unicode="&#x10c;" horiz-adv-x="570" 
d="M516 474l4 115q0 11 -4 12q-28 17 -90 17q-103 0 -179 -67q-65 -57 -98.5 -135t-33.5 -153q0 -101 38 -154q24 -35 65.5 -56.5t92.5 -21.5q66 0 184 41q4 -22 4 -38q-126 -44 -196 -44q-103 0 -171 65q-71 68 -71 195q0 104 50 195t122 144q94 71 219 71q80 0 124 -22
l-21 -162q-6 -1 -19.5 -1.5t-19.5 -0.5zM420 759q18 12 58.5 37t58.5 37q9 -9 18 -25q-95 -70 -127 -94q-21 0 -31 1q-44 46 -93 93q12 14 24 24q27 -21 92 -73z" />
    <glyph glyph-name="ccaron" unicode="&#x10d;" horiz-adv-x="341" 
d="M22 114q0 51 21.5 116.5t64.5 115.5q36 41 72.5 59.5t87.5 18.5q38 0 64 -17q-2 -11 -14 -27t-21 -22q-47 20 -68 20q-49 0 -85 -47q-29 -39 -49.5 -98t-20.5 -110q0 -91 79 -91q45 0 125 38q6 -14 11 -30q-96 -50 -152 -50q-44 0 -79.5 32.5t-35.5 91.5zM240 526
q20 16 59 48t50 41q13 -11 21 -22q-99 -96 -119 -115q-15 -2 -32 0q-10 16 -37 57.5t-42 63.5q11 8 25 17q21 -24 75 -90z" />
    <glyph glyph-name="Dcaron" unicode="&#x10e;" horiz-adv-x="665" 
d="M113 649q96 2 189 2q146 0 228 -58q52 -37 75.5 -96t23.5 -117q0 -96 -42 -181.5t-113 -135.5q-89 -64 -247 -64q-22 0 -65.5 0.5t-52.5 0.5q-14 0 -51 -0.5t-56 -0.5q4 24 7 36l70 2q8 0 8 7l96 567l-77 3q1 5 2.5 11.5t2.5 13.5t2 10zM234 611l-93 -535q-4 -25 12 -33
t82 -8q149 0 223 66q48 42 82 110.5t34 160.5q0 108 -59 169q-72 74 -218 74q-46 0 -63 -4zM397 759q18 12 58.5 37t58.5 37q9 -9 18 -25q-95 -70 -127 -94q-21 0 -31 1q-44 46 -93 93q12 14 24 24q27 -21 92 -73z" />
    <glyph glyph-name="dcaron" unicode="&#x10f;" horiz-adv-x="505" 
d="M587 698q-40 -101 -79 -176q-6 0 -33 6q28 69 58 171q36 4 54 -1zM304 127l-6 3q-54 -66 -109 -103.5t-90 -38.5q-19 2 -38.5 15t-31.5 33q-8 16 -8 37q0 67 33 156q14 35 32 67t42.5 62t57 48t67.5 18q55 0 102 -38h5q28 113 61 261l-90 -5q-3 17 -3 31q30 4 61.5 11
t49 11.5t19.5 4.5q8 0 20 -16q-5 -21 -43 -178.5t-71.5 -298.5t-40.5 -173q0 -5 4 -5q21 0 66 17q6 -20 7 -30q-59 -24 -102 -24q-3 0 -12.5 7.5t-12.5 14.5q2 7 6 22.5t11.5 41.5t13.5 49zM113 32q44 0 119 70t87 114q26 113 28 122q-35 44 -100 44q-45 0 -81.5 -40
t-59.5 -99q-35 -95 -35 -160q0 -51 42 -51z" />
    <glyph glyph-name="Dcroat" unicode="&#x110;" horiz-adv-x="665" 
d="M183 611l-77 3q1 5 2.5 11.5t2.5 13.5t2 10q96 2 189 2q144 0 228 -59q53 -36 76 -94.5t23 -115.5q0 -97 -42.5 -183t-113.5 -136q-88 -64 -246 -64q-22 0 -65.5 0.5t-52.5 0.5q-14 0 -51 -0.5t-56 -0.5q4 24 7 36l70 2q8 0 8 7l43 262h-93q1 6 3 17.5t2 15.5h94z
M179 306l-38 -230q-4 -25 12 -33t82 -8q148 0 223 67q116 100 116 274q0 102 -59 165q-72 74 -218 74q-45 0 -64 -4l-48 -272q30 1 91.5 1.5t95.5 0.5q-3 -19 -8 -35h-185z" />
    <glyph glyph-name="dcroat" unicode="&#x111;" horiz-adv-x="462" 
d="M421 647l-90 -5q-3 17 -3 31q30 4 61.5 11t49 11.5t19.5 4.5q8 0 20 -16q-1 -5 -6.5 -28.5t-12.5 -52.5l-14 -58q49 0 74 1q-2 -22 -6 -38h-77q-93 -386 -113 -474q0 -5 4 -5q21 0 66 17q6 -20 7 -30q-59 -24 -102 -24q-3 0 -12.5 7.5t-12.5 14.5q2 7 6 22.5t11.5 41.5
t13.5 49l-6 3q-54 -66 -109 -103.5t-90 -38.5q-19 2 -38.5 15t-31.5 33q-8 16 -8 37q0 67 33 156q14 35 32 67t42.5 62t57 48t67.5 18q55 0 102 -38h5q18 73 29 122h-140q4 24 5 36q97 0 143 1q3 15 11.5 49.5t12.5 52.5zM113 32q44 0 119 70t87 114q26 113 28 122
q-35 44 -100 44q-45 0 -81.5 -40t-59.5 -99q-35 -95 -35 -160q0 -51 42 -51z" />
    <glyph glyph-name="Emacron" unicode="&#x112;" horiz-adv-x="521" 
d="M9 35l73 3q3 0 5 4l94 570l-77 2q1 6 3.5 18t3.5 18h107h213h77q-5 -49 -17 -147q-22 -2 -34 -2l1 88q0 17 -23 20q-39 4 -195 4q-7 0 -8 -4l-44 -258q118 0 177 2q26 0 30 20l12 50q19 1 37 0q-1 -6 -7 -40t-9 -52q-15 -85 -16 -92h-37l6 53q1 13 -4 17t-20 4
q-106 2 -175 2l-44 -260q-2 -13 5.5 -16t46.5 -3q141 0 179 8q12 2 22 20l44 95q16 -3 32 -10q-19 -59 -51 -150q-15 0 -122 0.5t-183 0.5q-20 0 -56.5 -0.5t-52.5 -0.5q4 24 7 36zM447 781q-4 -25 -9 -44q-136 0 -199 1q2 13 8 41q33 1 99.5 1.5t100.5 0.5z" />
    <glyph glyph-name="emacron" unicode="&#x113;" horiz-adv-x="383" 
d="M24 99q0 51 23.5 122t67.5 124q66 79 140 79q45 0 71.5 -30.5t27.5 -70.5q-4 -24 -18.5 -49.5t-34.5 -36.5q-73 -37 -210 -37q-16 -50 -16 -90q0 -79 71 -79q58 0 157 58q9 -15 14 -29q-106 -70 -185 -70q-41 0 -74.5 29t-33.5 80zM242 384q-50 0 -88 -49
q-34 -44 -53 -101q99 -2 156 27q45 22 45 58q0 28 -15 46.5t-45 18.5zM362 542q-3 -19 -8 -40h-192q1 6 3.5 19t4.5 19q128 2 192 2z" />
    <glyph glyph-name="Edotaccent" unicode="&#x116;" horiz-adv-x="521" 
d="M9 35l73 3q3 0 5 4l94 570l-77 2q1 6 3.5 18t3.5 18h107h213h77q-5 -49 -17 -147q-22 -2 -34 -2l1 88q0 17 -23 20q-39 4 -195 4q-7 0 -8 -4l-44 -258q118 0 177 2q26 0 30 20l12 50q19 1 37 0q-1 -6 -7 -40t-9 -52q-15 -85 -16 -92h-37l6 53q1 13 -4 17t-20 4
q-106 2 -175 2l-44 -260q-2 -13 5.5 -16t46.5 -3q141 0 179 8q12 2 22 20l44 95q16 -3 32 -10q-19 -59 -51 -150q-15 0 -122 0.5t-183 0.5q-20 0 -56.5 -0.5t-52.5 -0.5q4 24 7 36zM347 806q17 0 27.5 -13.5t10.5 -28.5q0 -14 -13 -27.5t-29 -13.5q-17 0 -30 12.5t-13 28.5
q0 15 13 28.5t34 13.5z" />
    <glyph glyph-name="edotaccent" unicode="&#x117;" horiz-adv-x="383" 
d="M24 99q0 51 23.5 122t67.5 124q66 79 140 79q45 0 71.5 -30.5t27.5 -70.5q-4 -24 -18.5 -49.5t-34.5 -36.5q-73 -37 -210 -37q-16 -50 -16 -90q0 -79 71 -79q58 0 157 58q9 -15 14 -29q-106 -70 -185 -70q-41 0 -74.5 29t-33.5 80zM242 384q-50 0 -88 -49
q-34 -44 -53 -101q99 -2 156 27q45 22 45 58q0 28 -15 46.5t-45 18.5zM283 609q18 0 28.5 -13.5t10.5 -28.5q0 -14 -13.5 -28t-29.5 -14q-17 0 -29.5 12.5t-12.5 28.5q0 15 12.5 29t33.5 14z" />
    <glyph glyph-name="Eogonek" unicode="&#x118;" horiz-adv-x="521" 
d="M416 -1q-126 -63 -126 -130q0 -17 10.5 -25.5t24.5 -8.5q27 0 56 24q8 -11 12 -22q-46 -43 -89 -43q-29 0 -49.5 17t-20.5 46q0 64 122 142q-15 0 -92 0.5t-153 0.5q-20 0 -56.5 -0.5t-52.5 -0.5q4 24 7 36l73 3q3 0 5 4l94 570l-77 2q1 6 3.5 18t3.5 18h107h213h77
q-5 -49 -17 -147q-22 -2 -34 -2l1 88q0 17 -23 20q-39 4 -195 4q-7 0 -8 -4l-44 -258q118 0 177 2q26 0 30 20l12 50q19 1 37 0q-1 -6 -7 -40t-9 -52q-15 -85 -16 -92h-37l6 53q1 13 -4 17t-20 4q-106 2 -175 2l-44 -260q-2 -13 5.5 -16t46.5 -3q141 0 179 8q12 2 22 20
l44 95q16 -3 32 -10q-27 -84 -51 -150z" />
    <glyph glyph-name="eogonek" unicode="&#x119;" horiz-adv-x="383" 
d="M242 384q-50 0 -88 -49q-34 -44 -53 -101q99 -2 156 27q45 22 45 58q0 28 -15 46.5t-45 18.5zM317 60q-36 -23 -92 -89t-56 -102q0 -17 10.5 -25.5t24.5 -8.5q28 0 56 24q8 -11 12 -22q-46 -43 -89 -43q-29 0 -49.5 17t-20.5 46q0 64 105 153q-43 -20 -86 -20
q-41 0 -74.5 29t-33.5 81q0 50 23.5 121t67.5 124q66 79 140 79q45 0 71.5 -30.5t27.5 -70.5q-4 -24 -18.5 -49.5t-34.5 -36.5q-73 -37 -210 -37q-16 -50 -16 -90q0 -79 71 -79q58 0 157 58q9 -17 14 -29z" />
    <glyph glyph-name="Ecaron" unicode="&#x11a;" horiz-adv-x="521" 
d="M9 35l73 3q3 0 5 4l94 570l-77 2q1 6 3.5 18t3.5 18h107h213h77q-5 -49 -17 -147q-22 -2 -34 -2l1 88q0 17 -23 20q-39 4 -195 4q-7 0 -8 -4l-44 -258q118 0 177 2q26 0 30 20l12 50q19 1 37 0q-1 -6 -7 -40t-9 -52q-15 -85 -16 -92h-37l6 53q1 13 -4 17t-20 4
q-106 2 -175 2l-44 -260q-2 -13 5.5 -16t46.5 -3q141 0 179 8q12 2 22 20l44 95q16 -3 32 -10q-19 -59 -51 -150q-15 0 -122 0.5t-183 0.5q-20 0 -56.5 -0.5t-52.5 -0.5q4 24 7 36zM347 759q18 12 58.5 37t58.5 37q9 -9 18 -25q-95 -70 -127 -94q-21 0 -31 1q-44 46 -93 93
q12 14 24 24q27 -21 92 -73z" />
    <glyph glyph-name="ecaron" unicode="&#x11b;" horiz-adv-x="383" 
d="M24 99q0 51 23.5 122t67.5 124q66 79 140 79q45 0 71.5 -30.5t27.5 -70.5q-4 -24 -18.5 -49.5t-34.5 -36.5q-73 -37 -210 -37q-16 -50 -16 -90q0 -79 71 -79q58 0 157 58q9 -15 14 -29q-106 -70 -185 -70q-41 0 -74.5 29t-33.5 80zM242 384q-50 0 -88 -49
q-34 -44 -53 -101q99 -2 156 27q45 22 45 58q0 28 -15 46.5t-45 18.5zM257 526q20 16 59 48t50 41q13 -11 21 -22q-99 -96 -119 -115q-15 -2 -32 0q-10 16 -37 57.5t-42 63.5q11 8 25 17q21 -24 75 -90z" />
    <glyph glyph-name="Gbreve" unicode="&#x11e;" horiz-adv-x="629" 
d="M601 235l-52 -2q-5 0 -5 -4l-36 -205q-56 -34 -180 -34q-122 0 -196 74q-73 74 -73 192q0 102 50.5 195.5t124.5 143.5q98 65 226 65q93 0 140 -33q-4 -26 -10.5 -77t-9.5 -76l-39 -3l6 103q0 12 -7 19q-32 28 -110 28q-107 0 -188 -69q-55 -45 -91 -122t-36 -166
q0 -100 43 -153q67 -85 197 -85q32 0 58 5t38 11.5t13 11.5l29 179l-112 2l6 36h139h82q-4 -24 -7 -36zM513 822q24 -4 39 -9q-12 -34 -46 -61.5t-81 -27.5q-43 0 -69.5 27t-31.5 63q11 4 38 11q19 -54 68 -54q54 0 83 51z" />
    <glyph glyph-name="gbreve" unicode="&#x11f;" horiz-adv-x="400" 
d="M44 220q0 76 52 140t129 64q37 0 57 -8q6 -3 13 -3q84 0 134 2q1 -11 -1 -35q-33 -1 -103 -3l-1 -4q23 -25 23 -79q0 -70 -35 -125q-59 -92 -165 -82q-54 -34 -61 -46q-3 -5 -3 -10q0 -8 7.5 -13.5t27.5 -9t34 -5t48 -4.5q86 -8 114 -25q17 -11 28.5 -29.5t11.5 -36.5
q0 -61 -61 -105.5t-180 -44.5q-73 0 -121.5 27t-48.5 71q0 38 24 54q41 28 110 68v5q-46 13 -46 55q0 5 3 9t20 16.5t52 33.5v5q-62 31 -62 118zM95 222q0 -103 80 -103q50 0 85.5 45t35.5 118q0 50 -16 77q-18 31 -61 31q-55 0 -89.5 -49t-34.5 -119zM304 -102
q0 31 -19.5 41.5t-81.5 18.5q-19 2 -45 6t-35 5q-13 -8 -33.5 -20t-30 -17.5t-23 -14.5t-19.5 -15t-13 -13.5t-9.5 -15t-2.5 -16.5q0 -33 40 -49.5t90 -16.5q80 0 131 28t51 79zM233 481q-40 0 -64 27t-28 62q15 8 32 11q18 -57 66 -57q51 0 78 54q20 -4 33 -8
q-11 -35 -41 -62t-76 -27z" />
    <glyph glyph-name="uni0122" unicode="&#x122;" horiz-adv-x="629" 
d="M601 235l-52 -2q-5 0 -5 -4l-36 -205q-56 -34 -180 -34q-122 0 -196 74q-73 74 -73 192q0 102 50.5 195.5t124.5 143.5q98 65 226 65q93 0 140 -33q-4 -26 -10.5 -77t-9.5 -76l-39 -3l6 103q0 12 -7 19q-32 28 -110 28q-107 0 -188 -69q-55 -45 -91 -122t-36 -166
q0 -100 43 -153q67 -85 197 -85q32 0 58 5t38 11.5t13 11.5l29 179l-112 2l6 36h139h82q-4 -24 -7 -36zM348 -108q0 -38 -29 -74.5t-71 -58.5q-12 13 -19 25q62 39 62 77q0 14 -8 20.5t-25 10.5q0 21 13.5 36t32.5 15q18 0 31 -14.5t13 -36.5z" />
    <glyph glyph-name="uni0123" unicode="&#x123;" horiz-adv-x="400" 
d="M190 528q0 39 28 74.5t69 57.5q11 -11 17 -24q-60 -39 -60 -76q0 -24 32 -32q1 -22 -13 -38t-32 -16q-16 0 -28.5 15.5t-12.5 38.5zM44 220q0 76 52 140t129 64q37 0 57 -8q6 -3 13 -3q84 0 134 2q1 -11 -1 -35q-33 -1 -103 -3l-1 -4q23 -25 23 -79q0 -70 -35 -125
q-59 -92 -165 -82q-54 -34 -61 -46q-3 -5 -3 -10q0 -8 7.5 -13.5t27.5 -9t34 -5t48 -4.5q86 -8 114 -25q17 -11 28.5 -29.5t11.5 -36.5q0 -61 -61 -105.5t-180 -44.5q-73 0 -121.5 27t-48.5 71q0 38 24 54q41 28 110 68v5q-46 13 -46 55q0 5 3 9t20 16.5t52 33.5v5
q-62 31 -62 118zM95 222q0 -103 80 -103q50 0 85.5 45t35.5 118q0 50 -16 77q-18 31 -61 31q-55 0 -89.5 -49t-34.5 -119zM304 -102q0 31 -19.5 41.5t-81.5 18.5q-19 2 -45 6t-35 5q-13 -8 -33.5 -20t-30 -17.5t-23 -14.5t-19.5 -15t-13 -13.5t-9.5 -15t-2.5 -16.5
q0 -33 40 -49.5t90 -16.5q80 0 131 28t51 79z" />
    <glyph glyph-name="Imacron" unicode="&#x12a;" horiz-adv-x="296" 
d="M9 35l72 3q6 0 6 5l95 568l-82 4l3.5 17.5l3.5 17.5h113h105q-3 -17 -8 -35l-82 -3q-1 -1 -3 -4l-97 -570l90 -3q-1 -17 -8 -36q-15 0 -51.5 0.5t-55.5 0.5q-18 0 -55 -0.5t-53 -0.5q3 12 7 36zM338 781q-4 -25 -9 -44q-136 0 -199 1q2 13 8 41q33 1 99.5 1.5t100.5 0.5z
" />
    <glyph glyph-name="imacron" unicode="&#x12b;" horiz-adv-x="236" 
d="M126 375l-87 -7q-2 22 -2 31q34 5 63.5 11.5t43.5 10t16 3.5q3 0 10.5 -7.5t10.5 -13.5q-15 -60 -51.5 -211t-38.5 -158q-2 -6 3 -6q19 0 79 17q7 -17 8 -31q-66 -23 -108 -23q-4 0 -16 9.5t-16 18.5q65 268 85 356zM252 542q-3 -19 -8 -40h-192q1 6 3.5 19t4.5 19
q128 2 192 2z" />
    <glyph glyph-name="Iogonek" unicode="&#x12e;" horiz-adv-x="296" 
d="M217 -1l-45 1q-37 -2 -84.5 -46.5t-47.5 -84.5q0 -17 10.5 -25.5t24.5 -8.5q26 0 56 24q8 -9 12 -22q-46 -43 -90 -43q-29 0 -48.5 18.5t-19.5 49.5q0 37 34 75t78 63q-19 0 -48.5 -0.5t-46.5 -0.5q3 12 7 36l72 3q6 0 6 5l95 568l-82 4l3.5 17.5l3.5 17.5h113h105
q-3 -17 -8 -35l-82 -3q-1 -1 -3 -4l-97 -570l90 -3q-1 -14 -8 -36z" />
    <glyph glyph-name="iogonek" unicode="&#x12f;" horiz-adv-x="236" 
d="M176 609q17 0 27.5 -13.5t10.5 -28.5q0 -14 -13 -28t-29 -14q-17 0 -30 12.5t-13 28.5q0 15 13 29t34 14zM181 14q-27 -8 -60 -17q-43 -25 -72.5 -60.5t-29.5 -67.5q0 -17 10.5 -25.5t24.5 -8.5q27 0 56 24q8 -11 12 -22q-46 -43 -89 -43q-28 0 -48.5 17t-20.5 46
q0 69 101 138q-14 8 -24 24q65 268 85 356l-87 -7q-2 22 -2 31q34 5 63.5 11.5t43.5 10t16 3.5q3 0 10.5 -7.5t10.5 -13.5q-43 -172 -90 -369q-2 -6 3 -6q22 0 79 18q7 -19 8 -32z" />
    <glyph glyph-name="Idotaccent" unicode="&#x130;" horiz-adv-x="296" 
d="M9 35l72 3q6 0 6 5l95 568l-82 4l3.5 17.5l3.5 17.5h113h105q-3 -17 -8 -35l-82 -3q-1 -1 -3 -4l-97 -570l90 -3q-1 -17 -8 -36q-15 0 -51.5 0.5t-55.5 0.5q-18 0 -55 -0.5t-53 -0.5q3 12 7 36zM238 806q18 0 28.5 -13.5t10.5 -28.5q0 -13 -13.5 -27t-29.5 -14
q-17 0 -29.5 12t-12.5 29q0 15 12.5 28.5t33.5 13.5z" />
    <glyph glyph-name="dotlessi" unicode="&#x131;" horiz-adv-x="236" 
d="M126 375l-87 -7q-2 22 -2 31q34 5 63.5 11.5t43.5 10t16 3.5q3 0 10.5 -7.5t10.5 -13.5q-15 -60 -51.5 -211t-38.5 -158q-2 -6 3 -6q19 0 79 17q7 -17 8 -31q-66 -23 -108 -23q-4 0 -16 9.5t-16 18.5q65 268 85 356z" />
    <glyph glyph-name="uni0136" unicode="&#x136;" horiz-adv-x="598" 
d="M14 35l68 3q2 0 5 3l94 570l-74 4q5 28 7 35h105h98q-5 -29 -7 -36l-74 -2q-4 0 -5 -6l-44 -255q57 3 73 8q31 24 112.5 107.5t131.5 140.5q4 4 -1 4l-69 3q3 12 7 36h122h69q-2 -20 -6 -35l-54 -4q-140 -146 -269 -266l-2 -5q49 -32 95 -135q43 -93 71 -145
q11 -23 30 -23l76 -1q-4 -27 -7 -36q-12 0 -36 -0.5t-36 -1.5q-6 0 -24 -0.5t-26 -0.5q-25 34 -87 175q-64 142 -111 142q-52 0 -65 -1l-47 -275l90 -3q-1 -13 -7 -36q-15 0 -52.5 0.5t-56.5 0.5q-18 0 -52 -0.5t-49 -0.5q4 24 7 36zM344 -108q0 -38 -29 -74.5t-71 -58.5
q-12 13 -19 25q62 39 62 77q0 14 -8 20.5t-25 10.5q0 21 13.5 36t32.5 15q18 0 31 -14.5t13 -36.5z" />
    <glyph glyph-name="uni0137" unicode="&#x137;" horiz-adv-x="424" 
d="M118 211l6 -2q86 102 158 158.5t106 56.5q7 0 16 -13.5t11 -27.5q-52 -8 -100 -41.5t-107 -91.5v-3q49 -27 80 -117q22 -63 37 -88q6 -10 17 -8q20 0 65 15q5 -17 6 -33q-60 -21 -116 -21q-22 35 -51 113q-21 55 -36.5 80.5t-30.5 25.5q-7 0 -17 -8q-21 -20 -55 -57
q-4 -15 -17.5 -71.5t-19.5 -77.5h-47q13 51 79 322.5t78 322.5l-89 -7q-2 22 -3 31q26 5 57.5 12.5t51 13t20.5 5.5q8 0 22 -16q-48 -198 -121 -473zM222 -111q0 -36 -27 -68t-68 -53q-11 12 -18 24q59 34 59 65q0 24 -32 32q-1 22 13 38t32 16q16 0 28.5 -15.5t12.5 -38.5z
" />
    <glyph glyph-name="Lacute" unicode="&#x139;" horiz-adv-x="505" 
d="M10 35l73 3q2 0 4 4l99 570l-76 2q1 7 3.5 19.5t3.5 16.5h107h116q-5 -26 -8 -36l-93 -2q-3 0 -3 -4l-98 -552q-2 -13 3.5 -16.5t34.5 -3.5q146 0 180 6q11 4 22 21l53 106q15 -2 35 -9q-24 -63 -63 -161q-12 0 -113.5 0.5t-177.5 0.5q-20 0 -56.5 -0.5t-52.5 -0.5
q1 7 3.5 19.5t3.5 16.5zM378 833q17 -26 26 -46q-29 -14 -90.5 -45t-80.5 -40q-9 14 -15 28q27 17 87.5 56t72.5 47z" />
    <glyph glyph-name="lacute" unicode="&#x13a;" horiz-adv-x="235" 
d="M181 646l-96 -5q-3 17 -3 32q35 4 67.5 11t49 11.5t18.5 4.5q8 0 22 -16q-129 -529 -156 -648q-2 -7 4 -7q28 0 88 17q3 -13 5 -33q-65 -22 -122 -22q-3 0 -12.5 8.5t-14.5 17.5q12 49 72.5 305t77.5 324zM300 853q17 -26 26 -46q-29 -14 -90.5 -45t-80.5 -40
q-9 14 -15 28q27 17 87.5 56t72.5 47z" />
    <glyph glyph-name="uni013B" unicode="&#x13b;" horiz-adv-x="505" 
d="M10 35l73 3q2 0 4 4l99 570l-76 2q1 7 3.5 19.5t3.5 16.5h107h116q-5 -26 -8 -36l-93 -2q-3 0 -3 -4l-98 -552q-2 -13 3.5 -16.5t34.5 -3.5q146 0 180 6q11 4 22 21l53 106q15 -2 35 -9q-24 -63 -63 -161q-12 0 -113.5 0.5t-177.5 0.5q-20 0 -56.5 -0.5t-52.5 -0.5
q1 7 3.5 19.5t3.5 16.5zM281 -108q0 -38 -29.5 -74.5t-71.5 -58.5q-3 4 -9.5 12.5t-9.5 12.5q62 38 62 77q0 14 -7.5 20.5t-25.5 10.5q0 21 13.5 36t32.5 15q18 0 31.5 -14.5t13.5 -36.5z" />
    <glyph glyph-name="uni013C" unicode="&#x13c;" horiz-adv-x="235" 
d="M181 646l-96 -5q-3 17 -3 32q35 4 67.5 11t49 11.5t18.5 4.5q8 0 22 -16q-129 -529 -156 -648q-2 -7 4 -7q28 0 88 17q3 -13 5 -33q-65 -22 -122 -22q-3 0 -12.5 8.5t-14.5 17.5q12 49 72.5 305t77.5 324zM113 -111q0 -36 -27 -68t-68 -53q-10 12 -18 24q59 34 59 65
q0 24 -32 32q-1 22 13 38t32 16q16 0 28.5 -15.5t12.5 -38.5z" />
    <glyph glyph-name="Lcaron" unicode="&#x13d;" horiz-adv-x="505" 
d="M492 698q-44 -106 -80 -176q-6 0 -33 6q31 78 59 171q35 4 54 -1zM10 35l73 3q2 0 4 4l99 570l-76 2q1 7 3.5 19.5t3.5 16.5h107h116q-5 -26 -8 -36l-93 -2q-3 0 -3 -4l-98 -552q-2 -13 3.5 -16.5t34.5 -3.5q146 0 180 6q11 4 22 21l53 106q15 -2 35 -9q-24 -63 -63 -161
q-12 0 -113.5 0.5t-177.5 0.5q-20 0 -56.5 -0.5t-52.5 -0.5q1 7 3.5 19.5t3.5 16.5z" />
    <glyph glyph-name="lcaron" unicode="&#x13e;" horiz-adv-x="265" 
d="M348 698q-44 -106 -80 -176q-6 0 -33 6q31 78 59 171q35 4 54 -1zM181 646l-96 -5q-3 17 -3 32q35 4 67.5 11t49 11.5t18.5 4.5q8 0 22 -16q-129 -529 -156 -648q-2 -7 4 -7q28 0 88 17q3 -13 5 -33q-65 -22 -122 -22q-3 0 -12.5 8.5t-14.5 17.5q12 49 72.5 305t77.5 324
z" />
    <glyph glyph-name="Lslash" unicode="&#x141;" horiz-adv-x="511" 
d="M138 311l54 301l-76 2q1 7 3.5 19.5t3.5 16.5h107h116q-5 -26 -8 -36l-93 -2q-3 0 -3 -4l-52 -273q7 3 154 73q9 -21 13 -38q-54 -22 -173 -78l-40 -236q-2 -13 3.5 -16.5t34.5 -3.5q146 0 180 6q11 4 22 21l53 106q15 -2 35 -9q-24 -63 -63 -161q-12 0 -113.5 0.5
t-177.5 0.5q-20 0 -56.5 -0.5t-52.5 -0.5q1 7 3.5 19.5t3.5 16.5l73 3q2 0 4 4l39 227q-12 -6 -43 -20t-51 -23q-7 13 -12 33q7 3 49 23t63 29z" />
    <glyph glyph-name="lslash" unicode="&#x142;" horiz-adv-x="274" 
d="M201 646l-96 -5q-3 17 -3 32q35 4 67.5 11t49.5 11.5t19 4.5q9 0 21 -16q-11 -47 -35 -142.5t-33 -133.5q23 9 86 37q7 -29 8 -33q-96 -41 -103 -44q-15 -60 -79 -332q-2 -7 4 -7q28 0 88 17q3 -13 5 -33q-65 -22 -122 -22q-3 0 -12.5 8.5t-14.5 17.5q6 23 33.5 138.5
t45.5 189.5q-73 -32 -80 -35q-8 19 -10 30q19 9 54 24.5t44 19.5q16 68 37.5 156.5t25.5 105.5z" />
    <glyph glyph-name="Nacute" unicode="&#x143;" horiz-adv-x="691" 
d="M3 35l66 2q5 1 7 5l96 570l-77 3q4 24 7 35h127q11 -24 60.5 -124.5t116 -236t104.5 -213.5l6 1q16 102 45.5 288t39.5 247l-99 2q3 12 7 36h121h90q-2 -20 -6 -35l-64 -3q-4 0 -4 -5l-103 -607q-13 -5 -34 -5q-41 71 -130 247t-164 338h-6q-30 -180 -90 -542l105 -2
q-2 -18 -6 -36h-128q-17 0 -49 -0.5t-45 -0.5q4 24 7 36zM527 833q14 -19 26 -46l-86 -43l-84 -42q-12 20 -16 28q28 17 89.5 57t70.5 46z" />
    <glyph glyph-name="nacute" unicode="&#x144;" horiz-adv-x="493" 
d="M127 374l-81 -8q-2 22 -2 31q27 5 55 12t43 11t17 4q10 0 20 -16q-4 -14 -14.5 -53.5t-16.5 -62.5l6 -2q57 65 114.5 99t96.5 35q41 -8 61 -49q5 -13 5 -29q0 -35 -24.5 -123.5t-60.5 -186.5q-2 -7 4 -7q20 0 76 18q3 -11 7 -33q-67 -23 -115 -23q-4 0 -12 8.5t-10 19.5
q37 106 66 215q18 70 18 102q0 41 -34 41q-49 0 -123 -61.5t-86 -106.5q-5 -18 -26.5 -104t-26.5 -105h-47q85 352 90 374zM402 615q16 -15 30 -39q-16 -11 -70.5 -49t-82.5 -57q-11 13 -20 26q25 20 143 119z" />
    <glyph glyph-name="uni0145" unicode="&#x145;" horiz-adv-x="691" 
d="M3 35l66 2q5 1 7 5l96 570l-77 3q4 24 7 35h127q11 -24 60.5 -124.5t116 -236t104.5 -213.5l6 1q16 102 45.5 288t39.5 247l-99 2q3 12 7 36h121h90q-2 -20 -6 -35l-64 -3q-4 0 -4 -5l-103 -607q-13 -5 -34 -5q-41 71 -130 247t-164 338h-6q-30 -180 -90 -542l105 -2
q-2 -18 -6 -36h-128q-17 0 -49 -0.5t-45 -0.5q4 24 7 36zM377 -108q0 -38 -29 -74.5t-71 -58.5q-12 13 -19 25q62 39 62 77q0 14 -8 20.5t-25 10.5q0 21 13.5 36t32.5 15q18 0 31 -14.5t13 -36.5z" />
    <glyph glyph-name="uni0146" unicode="&#x146;" horiz-adv-x="493" 
d="M127 374l-81 -8q-2 22 -2 31q27 5 55 12t43 11t17 4q10 0 20 -16q-4 -14 -14.5 -53.5t-16.5 -62.5l6 -2q57 65 114.5 99t96.5 35q41 -8 61 -49q5 -13 5 -29q0 -35 -24.5 -123.5t-60.5 -186.5q-2 -7 4 -7q20 0 76 18q3 -11 7 -33q-67 -23 -115 -23q-4 0 -12 8.5t-10 19.5
q37 106 66 215q18 70 18 102q0 41 -34 41q-49 0 -123 -61.5t-86 -106.5q-5 -18 -26.5 -104t-26.5 -105h-47q85 352 90 374zM240 -111q0 -36 -27 -68t-68 -53q-11 12 -18 24q59 34 59 65q0 24 -32 32q-1 22 13 38t32 16q16 0 28.5 -15.5t12.5 -38.5z" />
    <glyph glyph-name="Ncaron" unicode="&#x147;" horiz-adv-x="691" 
d="M3 35l66 2q5 1 7 5l96 570l-77 3q4 24 7 35h127q11 -24 60.5 -124.5t116 -236t104.5 -213.5l6 1q16 102 45.5 288t39.5 247l-99 2q3 12 7 36h121h90q-2 -20 -6 -35l-64 -3q-4 0 -4 -5l-103 -607q-13 -5 -34 -5q-41 71 -130 247t-164 338h-6q-30 -180 -90 -542l105 -2
q-2 -18 -6 -36h-128q-17 0 -49 -0.5t-45 -0.5q4 24 7 36zM425 759q77 48 117 74q9 -9 18 -25q-95 -70 -127 -94q-20 0 -30 1l-93 93q9 12 23 24q40 -30 92 -73z" />
    <glyph glyph-name="ncaron" unicode="&#x148;" horiz-adv-x="493" 
d="M127 374l-81 -8q-2 22 -2 31q27 5 55 12t43 11t17 4q10 0 20 -16q-4 -14 -14.5 -53.5t-16.5 -62.5l6 -2q57 65 114.5 99t96.5 35q41 -8 61 -49q5 -13 5 -29q0 -35 -24.5 -123.5t-60.5 -186.5q-2 -7 4 -7q20 0 76 18q3 -11 7 -33q-67 -23 -115 -23q-4 0 -12 8.5t-10 19.5
q37 106 66 215q18 70 18 102q0 41 -34 41q-49 0 -123 -61.5t-86 -106.5q-5 -18 -26.5 -104t-26.5 -105h-47q85 352 90 374zM291 526q20 16 58 48t50 41q8 -6 22 -22q-18 -17 -60 -58t-59 -57q-16 -2 -33 0q-10 16 -37 57.5t-42 63.5q18 12 26 17q45 -53 75 -90z" />
    <glyph glyph-name="Omacron" unicode="&#x14c;" horiz-adv-x="699" 
d="M665 391q0 -103 -43 -190t-105 -139q-89 -72 -211 -72q-102 0 -168 63q-77 70 -77 203q0 100 42.5 189t106.5 141q89 74 214 74q108 0 171 -70q70 -74 70 -199zM116 260q0 -107 53 -170q54 -62 151 -62q96 0 168 62q123 109 123 300q0 102 -52 167q-52 64 -150 64
q-101 0 -174 -67q-119 -110 -119 -294zM546 781q-3 -20 -8 -44q-137 0 -199 1q4 28 8 41q33 1 99.5 1.5t99.5 0.5z" />
    <glyph glyph-name="omacron" unicode="&#x14d;" horiz-adv-x="418" 
d="M374 284q0 -139 -96 -236q-58 -58 -136 -58q-57 0 -88 38q-29 36 -29 91q0 71 28 138t75 113q57 54 128 54q49 0 79 -30q39 -39 39 -110zM157 26q55 0 100 52q29 33 47 87.5t18 102.5q0 57 -18 85q-20 34 -62 34q-60 0 -107 -64q-22 -31 -40 -83t-18 -108q0 -48 19 -77
q18 -29 61 -29zM357 542q-3 -19 -8 -40h-192q1 6 3.5 19t4.5 19q128 2 192 2z" />
    <glyph glyph-name="Ohungarumlaut" unicode="&#x150;" horiz-adv-x="699" 
d="M665 391q0 -103 -43 -190t-105 -139q-89 -72 -211 -72q-102 0 -168 63q-77 70 -77 203q0 100 42.5 189t106.5 141q89 74 214 74q108 0 171 -70q70 -74 70 -199zM116 260q0 -107 53 -170q54 -62 151 -62q96 0 168 62q123 109 123 300q0 102 -52 167q-52 64 -150 64
q-101 0 -174 -67q-119 -110 -119 -294zM490 846q14 -18 26 -43q-17 -9 -160 -87l-18 30q72 46 152 100zM634 844q12 -16 25 -44q-88 -46 -158 -84q-7 10 -19 30q76 48 152 98z" />
    <glyph glyph-name="ohungarumlaut" unicode="&#x151;" horiz-adv-x="418" 
d="M374 284q0 -139 -96 -236q-58 -58 -136 -58q-57 0 -88 38q-29 36 -29 91q0 71 28 138t75 113q57 54 128 54q49 0 79 -30q39 -39 39 -110zM157 26q55 0 100 52q29 33 47 87.5t18 102.5q0 57 -18 85q-20 34 -62 34q-60 0 -107 -64q-22 -31 -40 -83t-18 -108q0 -48 19 -77
q18 -29 61 -29zM277 622q17 -14 33 -35q-113 -91 -134 -108q-14 17 -23 24q76 72 124 119zM395 618q19 -17 31 -36q-27 -21 -77 -61.5t-57 -46.5q-1 1 -22 25q96 91 125 119z" />
    <glyph glyph-name="OE" unicode="&#x152;" horiz-adv-x="969" 
d="M58 257q0 114 52 207.5t127 142.5q77 53 189 53q70 0 121 -29t76 -71q1 9 6 41.5t7 48.5h76h167h77q-8 -74 -18 -147q-20 -2 -34 -2l2 88q0 17 -23 20q-39 4 -190 4q-8 0 -13 -2l-44 -257q120 0 179 2q26 0 30 20l12 50q18 2 35 0q-12 -74 -16 -93q-3 -19 -15 -91h-36
l6 53q1 13 -4 17t-21 4q-107 2 -176 1l-45 -262q-2 -13 6 -16t47 -3q139 0 179 8q12 2 22 20l44 95q17 -3 32 -10q-19 -59 -51 -150q-26 0 -118.5 0.5t-113.5 0.5q-19 0 -54 -0.5t-50 -0.5q8 45 15 96q-92 -105 -239 -105q-120 0 -192 86q-54 64 -54 181zM113 258
q0 -100 48 -162q54 -69 155 -69q82 0 143 42.5t99 115.5q28 160 51 308q-47 129 -196 129q-104 0 -174 -62q-49 -44 -87.5 -119.5t-38.5 -182.5z" />
    <glyph glyph-name="oe" unicode="&#x153;" horiz-adv-x="654" 
d="M304 79h-5q-69 -89 -153 -89q-58 0 -91 37q-30 34 -30 91q0 72 28 138.5t74 112.5q56 55 127 55q91 0 108 -106h6q38 54 74.5 80t86.5 26q41 0 68 -30t28 -67q-2 -23 -17 -50t-34 -38q-73 -39 -213 -39q-15 -53 -15 -91q0 -78 72 -78q60 0 155 58q9 -13 15 -29
q-108 -70 -184 -70q-35 0 -64.5 23t-35.5 66zM157 26q56 0 100 51q28 33 47 87.5t19 103.5q0 52 -18 85q-19 34 -61 34q-61 0 -109 -64q-22 -31 -40 -82.5t-18 -107.5q0 -49 19 -78q18 -29 61 -29zM513 384q-51 0 -89 -49q-34 -44 -53 -101q98 -2 157 27q45 23 45 60
q0 26 -15.5 44.5t-44.5 18.5z" />
    <glyph glyph-name="Racute" unicode="&#x154;" horiz-adv-x="565" 
d="M12 35l67 4q7 0 7 5l95 567l-74 3q1 14 5 35q80 2 137 2q108 0 162 -17q48 -16 74 -54.5t26 -82.5q0 -66 -49 -119t-119 -73v-5q8 -3 14.5 -7.5t12.5 -11.5t11 -13t10.5 -17t9 -18.5t9.5 -23.5t9 -25t10 -29t11 -31q20 -55 29.5 -70t22.5 -16l59 -2q-2 -19 -6 -36
q-41 0 -62 -1h-45q-16 24 -49 116t-42 112q-17 34 -38 47.5t-65 13.5q-59 0 -67 -2l-43 -247l90 -3q-1 -17 -6 -37q-32 1 -112 1q-71 0 -101 -1q2 9 7 36zM232 610l-49 -285q7 -2 62 -2q98 0 153.5 50.5t55.5 115.5q0 59 -40.5 92.5t-113.5 33.5q-55 0 -68 -5zM456 833
q14 -19 26 -46l-86 -43l-84 -42q-12 20 -16 28q28 17 89.5 57t70.5 46z" />
    <glyph glyph-name="racute" unicode="&#x155;" horiz-adv-x="343" 
d="M128 378l-80 -10q-1 5 -1.5 10.5t-1 12t-0.5 9.5q24 4 51.5 10t43.5 10t17 4q4 0 11 -6t9 -12q-9 -38 -31 -128l6 -3q43 65 88 107t72 42q23 0 45 -13q0 -13 -10.5 -32.5t-17.5 -21.5q-19 8 -37 8q-31 0 -90.5 -70.5t-76.5 -135.5q-7 -29 -37 -159h-46q33 134 86 378z
M327 615q16 -15 30 -39q-16 -11 -70.5 -49t-82.5 -57q-11 13 -20 26q25 20 143 119z" />
    <glyph glyph-name="uni0156" unicode="&#x156;" horiz-adv-x="565" 
d="M12 35l67 4q7 0 7 5l95 567l-74 3q1 14 5 35q80 2 137 2q108 0 162 -17q48 -16 74 -54.5t26 -82.5q0 -66 -49 -119t-119 -73v-5q8 -3 14.5 -7.5t12.5 -11.5t11 -13t10.5 -17t9 -18.5t9.5 -23.5t9 -25t10 -29t11 -31q20 -55 29.5 -70t22.5 -16l59 -2q-2 -19 -6 -36
q-41 0 -62 -1h-45q-16 24 -49 116t-42 112q-17 34 -38 47.5t-65 13.5q-59 0 -67 -2l-43 -247l90 -3q-1 -17 -6 -37q-32 1 -112 1q-71 0 -101 -1q2 9 7 36zM232 610l-49 -285q7 -2 62 -2q98 0 153.5 50.5t55.5 115.5q0 59 -40.5 92.5t-113.5 33.5q-55 0 -68 -5zM331 -108
q0 -38 -29.5 -74.5t-71.5 -58.5q-3 4 -9.5 12.5t-9.5 12.5q62 38 62 77q0 14 -7.5 20.5t-25.5 10.5q0 21 13.5 36t32.5 15q18 0 31.5 -14.5t13.5 -36.5z" />
    <glyph glyph-name="uni0157" unicode="&#x157;" horiz-adv-x="343" 
d="M128 378l-80 -10q-1 5 -1.5 10.5t-1 12t-0.5 9.5q24 4 51.5 10t43.5 10t17 4q4 0 11 -6t9 -12q-9 -38 -31 -128l6 -3q43 65 88 107t72 42q23 0 45 -13q0 -13 -10.5 -32.5t-17.5 -21.5q-19 8 -37 8q-31 0 -90.5 -70.5t-76.5 -135.5q-7 -29 -37 -159h-46q33 134 86 378z
M100 -111q0 -36 -27 -68t-68 -53q-15 20 -17 24q58 35 58 65q0 24 -32 32q0 22 13.5 38t31.5 16q16 0 28.5 -15.5t12.5 -38.5z" />
    <glyph glyph-name="Rcaron" unicode="&#x158;" horiz-adv-x="565" 
d="M12 35l67 4q7 0 7 5l95 567l-74 3q1 14 5 35q80 2 137 2q108 0 162 -17q48 -16 74 -54.5t26 -82.5q0 -66 -49 -119t-119 -73v-5q8 -3 14.5 -7.5t12.5 -11.5t11 -13t10.5 -17t9 -18.5t9.5 -23.5t9 -25t10 -29t11 -31q20 -55 29.5 -70t22.5 -16l59 -2q-2 -19 -6 -36
q-41 0 -62 -1h-45q-16 24 -49 116t-42 112q-17 34 -38 47.5t-65 13.5q-59 0 -67 -2l-43 -247l90 -3q-1 -17 -6 -37q-32 1 -112 1q-71 0 -101 -1q2 9 7 36zM232 610l-49 -285q7 -2 62 -2q98 0 153.5 50.5t55.5 115.5q0 59 -40.5 92.5t-113.5 33.5q-55 0 -68 -5zM342 759
q77 48 117 74q9 -9 18 -25q-95 -70 -127 -94q-20 0 -30 1l-93 93q9 12 23 24q40 -30 92 -73z" />
    <glyph glyph-name="rcaron" unicode="&#x159;" horiz-adv-x="343" 
d="M128 378l-80 -10q-1 5 -1.5 10.5t-1 12t-0.5 9.5q24 4 51.5 10t43.5 10t17 4q4 0 11 -6t9 -12q-9 -38 -31 -128l6 -3q43 65 88 107t72 42q23 0 45 -13q0 -13 -10.5 -32.5t-17.5 -21.5q-19 8 -37 8q-31 0 -90.5 -70.5t-76.5 -135.5q-7 -29 -37 -159h-46q33 134 86 378z
M227 526q20 16 58 48t50 41q8 -6 22 -22q-18 -17 -60 -58t-59 -57q-16 -2 -33 0q-10 16 -37 57.5t-42 63.5q18 12 26 17q45 -53 75 -90z" />
    <glyph glyph-name="Sacute" unicode="&#x15a;" horiz-adv-x="471" 
d="M400 494v92q0 8 -4 14q-18 21 -82 21q-73 0 -111 -34q-50 -42 -50 -104q0 -44 22 -65.5t86 -55.5q4 -2 6.5 -3.5t6 -3t6.5 -3.5q68 -37 97 -72.5t29 -88.5q0 -90 -69 -150q-61 -51 -172 -51q-91 0 -144 29q3 24 8.5 73.5t8.5 75.5q16 3 38 1l-2 -105q-1 -9 5 -13
q30 -22 98 -22q89 0 135 42q45 42 45 111q0 27 -8 46.5t-29.5 37.5t-39 29t-56.5 32q-63 35 -91.5 67.5t-28.5 82.5q0 44 23 81.5t57 60.5q61 41 149 41q83 0 118 -27q-4 -50 -14 -136q-6 -1 -19.5 -2t-17.5 -1zM418 833q14 -19 26 -46l-86 -43l-84 -42q-12 20 -16 28
q28 17 89.5 57t70.5 46z" />
    <glyph glyph-name="sacute" unicode="&#x15b;" horiz-adv-x="348" 
d="M275 295l-3 69q0 8 -6 11q-19 14 -55 14q-34 0 -60 -13q-42 -23 -42 -68q0 -29 14.5 -43t53.5 -32q54 -25 79 -50t25 -64q0 -70 -66 -107q-38 -22 -116 -22q-60 0 -88 17q2 38 6 116q11 2 35 2l6 -76q0 -7 7 -11q19 -13 62 -13q45 0 71 16q35 24 35 69q0 17 -5 29.5
t-17 22.5t-22 15.5t-31 15.5q-50 22 -73 44t-23 64q0 33 21 61t49 42q39 20 101 20q55 0 87 -21q-4 -46 -11 -107q-10 -1 -34 -1zM306 615q16 -15 30 -39q-16 -11 -70.5 -49t-82.5 -57q-11 13 -20 26q25 20 143 119z" />
    <glyph glyph-name="uni015E" unicode="&#x15e;" horiz-adv-x="471" 
d="M76 169l-2 -105q-1 -9 5 -13q30 -22 98 -22q89 0 135 42q45 42 45 111q0 27 -8 46.5t-29.5 37.5t-39 29t-56.5 32q-63 35 -91.5 67.5t-28.5 82.5q0 44 23 81.5t57 60.5q61 41 149 41q83 0 118 -27q-4 -50 -14 -136q-6 -1 -19.5 -2t-17.5 -1v92q0 8 -4 14q-18 21 -82 21
q-73 0 -111 -34q-50 -42 -50 -104q0 -44 22 -65.5t86 -55.5q4 -2 6.5 -3.5t6 -3t6.5 -3.5q68 -37 97 -72.5t29 -88.5q0 -90 -69 -150q-41 -34 -98 -44l-74 -66q57 -11 57 -60q0 -32 -36 -58t-100 -26l1 30q39 1 60 16t21 32q0 16 -11 27q-9 9 -43 14q-1 4 -2.5 11t-1.5 10
l72 63h-17q-91 0 -144 29q3 24 8.5 73.5t8.5 75.5q16 3 38 1z" />
    <glyph glyph-name="uni015F" unicode="&#x15f;" horiz-adv-x="348" 
d="M275 295l-3 69q0 8 -6 11q-19 14 -55 14q-34 0 -60 -13q-42 -23 -42 -68q0 -29 14.5 -43t53.5 -32q54 -25 79 -50t25 -64q0 -70 -66 -107q-17 -11 -44 -17l-58 -55q23 -3 37 -17.5t14 -35.5q0 -36 -35.5 -58.5t-87.5 -24.5v29q34 3 54.5 16t20.5 32q0 34 -49 36
q-2 3 -4 9t-2 7l60 57h-22q-60 0 -88 17q2 38 6 116q11 2 35 2l6 -76q0 -7 7 -11q19 -13 62 -13q45 0 71 16q35 24 35 69q0 17 -5 29.5t-17 22.5t-22 15.5t-31 15.5q-50 22 -73 44t-23 64q0 33 21 61t49 42q39 20 101 20q55 0 87 -21q-4 -46 -11 -107q-10 -1 -34 -1z" />
    <glyph glyph-name="Scaron" unicode="&#x160;" horiz-adv-x="471" 
d="M400 494v92q0 8 -4 14q-18 21 -82 21q-73 0 -111 -34q-50 -42 -50 -104q0 -44 22 -65.5t86 -55.5q4 -2 6.5 -3.5t6 -3t6.5 -3.5q68 -37 97 -72.5t29 -88.5q0 -90 -69 -150q-61 -51 -172 -51q-91 0 -144 29q3 24 8.5 73.5t8.5 75.5q16 3 38 1l-2 -105q-1 -9 5 -13
q30 -22 98 -22q89 0 135 42q45 42 45 111q0 27 -8 46.5t-29.5 37.5t-39 29t-56.5 32q-63 35 -91.5 67.5t-28.5 82.5q0 44 23 81.5t57 60.5q61 41 149 41q83 0 118 -27q-4 -50 -14 -136q-6 -1 -19.5 -2t-17.5 -1zM323 759q77 48 117 74q9 -9 18 -25q-95 -70 -127 -94
q-20 0 -30 1l-93 93q9 12 23 24q40 -30 92 -73z" />
    <glyph glyph-name="scaron" unicode="&#x161;" horiz-adv-x="348" 
d="M275 295l-3 69q0 8 -6 11q-19 14 -55 14q-34 0 -60 -13q-42 -23 -42 -68q0 -29 14.5 -43t53.5 -32q54 -25 79 -50t25 -64q0 -70 -66 -107q-38 -22 -116 -22q-60 0 -88 17q2 38 6 116q11 2 35 2l6 -76q0 -7 7 -11q19 -13 62 -13q45 0 71 16q35 24 35 69q0 17 -5 29.5
t-17 22.5t-22 15.5t-31 15.5q-50 22 -73 44t-23 64q0 33 21 61t49 42q39 20 101 20q55 0 87 -21q-4 -46 -11 -107q-10 -1 -34 -1zM226 526q20 16 59 48t50 41q13 -11 21 -22q-99 -96 -119 -115q-15 -2 -32 0q-10 16 -37 57.5t-42 63.5q11 8 25 17q21 -24 75 -90z" />
    <glyph glyph-name="uni0162" unicode="&#x162;" horiz-adv-x="552" 
d="M127 590l-29 -96q-20 0 -37 3q6 26 16.5 77t16.5 77q10 0 41 -0.5t52 -0.5h160h162q80 2 82 2q-6 -51 -20 -155q-22 -2 -36 -2l2 96q0 10 -4 14t-18 5q-38 2 -153 2l-99 -574l103 -3q-3 -15 -8 -36q-50 0 -77 1l-77 -69q57 -11 57 -60q0 -32 -36 -58t-100 -26l1 30
q39 1 60 16t21 32q0 16 -11 27q-9 9 -43 14q-1 3 -2 10t-2 11l83 73q-19 0 -56 -0.5t-55 -0.5q1 4 2 11.5t2 13.5t2 11l84 3q5 0 5 3l95 571q-121 0 -155 -3q-23 -2 -29 -19z" />
    <glyph glyph-name="uni0163" unicode="&#x163;" horiz-adv-x="326" 
d="M70 10h16q-23 18 -30 42q-2 10 -2 15q0 15 38 192l15 63t12 53h-77q5 25 7 34q22 2 72 4q6 0 8 7l12 44t14 50q22 13 42 13q3 0 3 -3q-3 -13 -11.5 -50.5t-13.5 -60.5q104 0 154 1q-1 -18 -7 -39h-44.5h-58h-53.5q-1 -4 -13.5 -57.5t-16.5 -73.5q-31 -139 -31 -168
q0 -45 48 -45q41 0 115 22q3 -16 5 -31q-73 -30 -137 -30q-15 0 -33 8l-62 -60q23 -3 37 -17.5t14 -35.5q0 -36 -35.5 -58.5t-87.5 -24.5v29q34 3 54.5 16t20.5 32q0 34 -49 36q-2 3 -4 9t-2 7z" />
    <glyph glyph-name="Tcaron" unicode="&#x164;" horiz-adv-x="552" 
d="M127 35l84 3q5 0 5 3l95 571q-121 0 -155 -3q-23 -2 -29 -19l-29 -96q-20 0 -37 3q6 26 16.5 77t16.5 77q10 0 41 -0.5t52 -0.5h160h162q80 2 82 2q-6 -51 -20 -155q-22 -2 -36 -2l2 96q0 10 -4 14t-18 5q-38 2 -153 2l-99 -574l103 -3q-3 -15 -8 -36q-17 0 -58 0.5
t-61 0.5t-59.5 -0.5t-58.5 -0.5q1 4 2 11.5t2 13.5t2 11zM349 759q18 12 58.5 37t58.5 37q9 -9 18 -25q-95 -70 -127 -94q-21 0 -31 1q-44 46 -93 93q12 14 24 24q27 -21 92 -73z" />
    <glyph glyph-name="tcaron" unicode="&#x165;" horiz-adv-x="326" 
d="M368 698q-28 -73 -79 -176q-3 0 -32 6q33 89 56 171q36 4 55 -1zM105 76q0 -45 48 -45q41 0 115 22q3 -16 5 -31q-73 -30 -137 -30q-24 0 -48 16t-32 44q-2 10 -2 15q0 15 38 192l15 63t12 53h-77q5 25 7 34q22 2 72 4q6 0 8 7l12 44t14 50q22 13 42 13q3 0 3 -3
q-3 -13 -11.5 -50.5t-13.5 -60.5q104 0 154 1q-1 -18 -7 -39h-44.5h-58h-53.5q-1 -4 -13.5 -57.5t-16.5 -73.5q-31 -139 -31 -168z" />
    <glyph glyph-name="Umacron" unicode="&#x16a;" horiz-adv-x="639" 
d="M674 615l-69 -4l-60 -353q-23 -134 -98 -207q-65 -61 -168 -61q-99 0 -147 57q-34 39 -40.5 94.5t7.5 123.5l58 346l-69 3q3 12 7 36h97h116q-5 -29 -7 -36l-89 -3q-2 0 -5 -5l-57 -335q-22 -127 13 -183q38 -59 121 -59q80 0 133 49q25 21 48.5 68.5t33.5 111.5
q32 189 57 349q0 4 -3 4l-88 3q3 12 7 36h111q18 0 50.5 0.5t45.5 0.5q-1 -12 -5 -36zM510 781q-4 -25 -9 -44q-136 0 -199 1q2 13 8 41q33 1 99.5 1.5t100.5 0.5z" />
    <glyph glyph-name="umacron" unicode="&#x16b;" horiz-adv-x="469" 
d="M126 375l-79 -8q-2 11 -4 31q32 6 61.5 12.5t43 10t14.5 3.5q5 0 11 -7t8 -14q-42 -123 -68 -248q-11 -50 -11 -81q0 -41 34 -41q38 0 108 61.5t81 99.5q11 40 49 219q17 1 48 1q-2 -12 -37.5 -169t-46.5 -210q0 -6 4 -6q20 0 76 19q4 -11 8 -31q-60 -25 -108 -25
q-4 0 -12.5 8.5t-13.5 17.5q3 17 23 99l-5 2q-120 -129 -187 -131q-14 2 -31.5 13t-27.5 25q-11 14 -11 41q0 78 73 308zM392 542q-1 -8 -8 -40h-191q4 26 7 38q128 2 192 2z" />
    <glyph glyph-name="Uring" unicode="&#x16e;" horiz-adv-x="639" 
d="M674 615l-69 -4l-60 -353q-23 -134 -98 -207q-65 -61 -168 -61q-99 0 -147 57q-34 39 -40.5 94.5t7.5 123.5l58 346l-69 3q3 12 7 36h97h116q-5 -29 -7 -36l-89 -3q-2 0 -5 -5l-57 -335q-22 -127 13 -183q38 -59 121 -59q80 0 133 49q25 21 48.5 68.5t33.5 111.5
q32 189 57 349q0 4 -3 4l-88 3q3 12 7 36h111q18 0 50.5 0.5t45.5 0.5q-1 -12 -5 -36zM403 701q-37 0 -60.5 19t-23.5 52q0 37 28 61t69 24q38 0 60.5 -20t22.5 -51q0 -34 -26.5 -59.5t-69.5 -25.5zM405 732q20 0 36 13t16 38q0 18 -11.5 30.5t-31.5 12.5q-24 0 -38.5 -14
t-14.5 -38q0 -18 12.5 -30t31.5 -12z" />
    <glyph glyph-name="uring" unicode="&#x16f;" horiz-adv-x="469" 
d="M126 375l-79 -8q-2 11 -4 31q32 6 61.5 12.5t43 10t14.5 3.5q5 0 11 -7t8 -14q-42 -123 -68 -248q-11 -50 -11 -81q0 -41 34 -41q38 0 108 61.5t81 99.5q11 40 49 219q17 1 48 1q-2 -12 -37.5 -169t-46.5 -210q0 -6 4 -6q20 0 76 19q4 -11 8 -31q-60 -25 -108 -25
q-4 0 -12.5 8.5t-13.5 17.5q3 17 23 99l-5 2q-120 -129 -187 -131q-14 2 -31.5 13t-27.5 25q-11 14 -11 41q0 78 73 308zM310 636q33 0 54.5 -20t21.5 -48q0 -38 -29.5 -63.5t-66.5 -25.5q-32 0 -55.5 20t-23.5 49q0 38 29 63t70 25zM306 606q-23 0 -39 -15t-16 -39
q0 -18 12.5 -30t30.5 -12q21 0 36.5 15t15.5 40q0 20 -11 30.5t-29 10.5z" />
    <glyph glyph-name="Uhungarumlaut" unicode="&#x170;" horiz-adv-x="639" 
d="M674 615l-69 -4l-60 -353q-23 -134 -98 -207q-65 -61 -168 -61q-99 0 -147 57q-34 39 -40.5 94.5t7.5 123.5l58 346l-69 3q3 12 7 36h97h116q-5 -29 -7 -36l-89 -3q-2 0 -5 -5l-57 -335q-22 -127 13 -183q38 -59 121 -59q80 0 133 49q25 21 48.5 68.5t33.5 111.5
q32 189 57 349q0 4 -3 4l-88 3q3 12 7 36h111q18 0 50.5 0.5t45.5 0.5q-1 -12 -5 -36zM463 846q14 -18 26 -43q-20 -11 -74.5 -40.5t-85.5 -46.5q-3 5 -8.5 15t-8.5 15q112 73 151 100zM607 844q12 -16 25 -44q-48 -25 -158 -84l-18 30q104 67 151 98z" />
    <glyph glyph-name="uhungarumlaut" unicode="&#x171;" horiz-adv-x="469" 
d="M126 375l-79 -8q-2 11 -4 31q32 6 61.5 12.5t43 10t14.5 3.5q5 0 11 -7t8 -14q-42 -123 -68 -248q-11 -50 -11 -81q0 -41 34 -41q38 0 108 61.5t81 99.5q11 40 49 219q17 1 48 1q-2 -12 -37.5 -169t-46.5 -210q0 -6 4 -6q20 0 76 19q4 -11 8 -31q-60 -25 -108 -25
q-4 0 -12.5 8.5t-13.5 17.5q3 17 23 99l-5 2q-120 -129 -187 -131q-14 2 -31.5 13t-27.5 25q-11 14 -11 41q0 78 73 308zM326 622q17 -14 33 -35q-113 -91 -134 -108q-14 17 -23 24q76 72 124 119zM444 618q19 -17 31 -36q-27 -21 -77 -61.5t-57 -46.5q-1 1 -22 25
q96 91 125 119z" />
    <glyph glyph-name="Uogonek" unicode="&#x172;" horiz-adv-x="639" 
d="M95 650h97h116q-5 -29 -7 -36l-89 -3q-2 0 -5 -5l-57 -335q-22 -127 13 -183q38 -59 121 -59q80 0 133 49q25 21 48.5 68.5t33.5 111.5q32 189 57 349q0 4 -3 4l-88 3q3 12 7 36h111q18 0 50.5 0.5t45.5 0.5q-1 -12 -5 -36l-69 -4l-60 -353q-24 -139 -99 -207
q-33 -29 -94 -50q-39 -14 -82.5 -54.5t-43.5 -77.5q0 -17 10.5 -25.5t24.5 -8.5q26 0 56 24q10 -13 12 -22q-46 -43 -89 -43q-29 0 -49 17t-20 46q0 60 107 133q-98 0 -146 57q-34 39 -40.5 94.5t7.5 123.5l58 346l-69 3q3 12 7 36z" />
    <glyph glyph-name="uogonek" unicode="&#x173;" horiz-adv-x="469" 
d="M426 17q-30 -12 -57 -18q-48 -26 -83.5 -62t-35.5 -68q0 -17 10.5 -25.5t24.5 -8.5q27 0 56 24q8 -11 12 -22q-46 -43 -89 -43q-28 0 -48.5 17t-20.5 46q0 59 115 139q-14 14 -18 22q3 17 23 99l-5 2q-120 -129 -187 -131q-14 2 -31.5 13t-27.5 25q-11 14 -11 41
q0 78 73 308l-79 -8q-2 11 -4 31q32 6 61.5 12.5t43 10t14.5 3.5q5 0 11 -7t8 -14q-42 -123 -68 -248q-11 -50 -11 -81q0 -41 34 -41q38 0 108 61.5t81 99.5q11 40 49 219q17 1 48 1q-2 -12 -37.5 -169t-46.5 -210q0 -6 4 -6q20 0 76 19q4 -11 8 -31z" />
    <glyph glyph-name="Ydieresis" unicode="&#x178;" horiz-adv-x="521" 
d="M108 35l80 3q7 0 7 5l35 211q-94 254 -133 354q-2 4 -5 4l-54 3q2 5 4.5 17t3.5 18h79h128q-1 -14 -7 -35l-95 -4q14 -39 54.5 -154t55.5 -157h6q35 48 110.5 158.5t100.5 148.5q2 5 -3 5l-88 2q2 6 4.5 18t3.5 18h120q13 0 41.5 0.5t40.5 0.5q-4 -24 -7 -35l-51 -4
q-46 -62 -136.5 -188t-122.5 -171l-37 -215l96 -3q-1 -17 -8 -36q-17 0 -56 0.5t-59 0.5q-19 0 -58 -0.5t-58 -0.5q2 12 8 36zM272 798q34 0 34 -37q0 -16 -11 -27.5t-27 -11.5t-26 9.5t-10 23.5q0 17 10.5 30t29.5 13zM427 798q17 0 25.5 -10.5t8.5 -25.5q0 -17 -10 -28.5
t-26 -11.5q-18 0 -28 10t-10 23q0 17 10 30t30 13z" />
    <glyph glyph-name="Zacute" unicode="&#x179;" horiz-adv-x="548" 
d="M460 181q17 -1 38 -7q-22 -68 -59 -175q-4 0 -53.5 0.5t-113.5 0.5h-102h-175q-5 19 -8 33q64 69 266 300.5t239 272.5l-1 4q-38 0 -89 1l-76.5 1.5t-54.5 0.5t-45.5 -1t-27.5 -3q-16 -4 -25 -24l-38 -108q-15 1 -38 5q25 94 47 169q6 0 36 -0.5t50 -0.5h320q6 -21 7 -39
q-320 -372 -504 -568l2 -4h74h66.5h52.5t48 0.5t35 1.5t32.5 3t23.5 4q22 4 31 26zM456 833q14 -19 26 -46l-86 -43l-84 -42q-12 20 -16 28q28 17 89.5 57t70.5 46z" />
    <glyph glyph-name="zacute" unicode="&#x17a;" horiz-adv-x="400" 
d="M319 138q24 -3 37 -7q-20 -66 -42 -132q-4 0 -38 0.5t-78 0.5h-104h-90q-2 4 -6 14l-6 15q170 185 314 345l-1 5q-82 0 -164 -2q-23 0 -29 -15l-29 -80q-31 6 -36 7l33 126q3 0 33.5 -0.5t55.5 -0.5q102 -2 192 0q6 -21 7 -37q-168 -190 -314 -338v-4q165 0 202 4
q23 2 31 21zM320 615q16 -15 30 -39q-16 -11 -70.5 -49t-82.5 -57q-11 13 -20 26q25 20 143 119z" />
    <glyph glyph-name="Zdotaccent" unicode="&#x17b;" horiz-adv-x="548" 
d="M460 181q17 -1 38 -7q-22 -68 -59 -175q-4 0 -53.5 0.5t-113.5 0.5h-102h-175q-5 19 -8 33q64 69 266 300.5t239 272.5l-1 4q-38 0 -89 1l-76.5 1.5t-54.5 0.5t-45.5 -1t-27.5 -3q-16 -4 -25 -24l-38 -108q-15 1 -38 5q25 94 47 169q6 0 36 -0.5t50 -0.5h320q6 -21 7 -39
q-320 -372 -504 -568l2 -4h74h66.5h52.5t48 0.5t35 1.5t32.5 3t23.5 4q22 4 31 26zM363 806q17 0 27.5 -13.5t10.5 -28.5q0 -14 -13 -27.5t-29 -13.5q-17 0 -30 12.5t-13 28.5q0 15 13 28.5t34 13.5z" />
    <glyph glyph-name="zdotaccent" unicode="&#x17c;" horiz-adv-x="399" 
d="M319 138q24 -3 37 -7q-20 -66 -42 -132q-4 0 -38 0.5t-78 0.5h-104h-90q-2 4 -6 14l-6 15q170 185 314 345l-1 5q-82 0 -164 -2q-23 0 -29 -15l-29 -80q-31 6 -36 7l33 126q3 0 33.5 -0.5t55.5 -0.5q102 -2 192 0q6 -21 7 -37q-168 -190 -314 -338v-4q165 0 202 4
q23 2 31 21zM242 609q18 0 28.5 -13.5t10.5 -28.5q0 -14 -13.5 -28t-29.5 -14q-17 0 -29.5 12.5t-12.5 28.5q0 15 12.5 29t33.5 14z" />
    <glyph glyph-name="Zcaron" unicode="&#x17d;" horiz-adv-x="548" 
d="M460 181q17 -1 38 -7q-22 -68 -59 -175q-4 0 -53.5 0.5t-113.5 0.5h-102h-175q-5 19 -8 33q64 69 266 300.5t239 272.5l-1 4q-38 0 -89 1l-76.5 1.5t-54.5 0.5t-45.5 -1t-27.5 -3q-16 -4 -25 -24l-38 -108q-15 1 -38 5q25 94 47 169q6 0 36 -0.5t50 -0.5h320q6 -21 7 -39
q-320 -372 -504 -568l2 -4h74h66.5h52.5t48 0.5t35 1.5t32.5 3t23.5 4q22 4 31 26zM363 759q77 48 117 74q9 -9 18 -25q-95 -70 -127 -94q-20 0 -30 1l-93 93q9 12 23 24q40 -30 92 -73z" />
    <glyph glyph-name="zcaron" unicode="&#x17e;" horiz-adv-x="400" 
d="M319 138q24 -3 37 -7q-20 -66 -42 -132q-4 0 -38 0.5t-78 0.5h-104h-90q-2 4 -6 14l-6 15q170 185 314 345l-1 5q-82 0 -164 -2q-23 0 -29 -15l-29 -80q-31 6 -36 7l33 126q3 0 33.5 -0.5t55.5 -0.5q102 -2 192 0q6 -21 7 -37q-168 -190 -314 -338v-4q165 0 202 4
q23 2 31 21zM239 526q20 16 59 48t50 41q13 -11 21 -22q-99 -96 -119 -115q-15 -2 -32 0q-10 16 -37 57.5t-42 63.5q11 8 25 17q21 -24 75 -90z" />
    <glyph glyph-name="florin" unicode="&#x192;" horiz-adv-x="501" 
d="M467 646q32 0 50 -10q-2 -12 -10.5 -26.5t-19.5 -22.5q-3 0 -15.5 3t-28 5t-28.5 2q-45 0 -81 -34q-29 -28 -45.5 -68.5t-34.5 -133.5q28 0 89 0.5t96 0.5q-2 -19 -9 -37q-130 0 -184 -1q-43 -220 -60 -280q-24 -85 -83 -136t-129 -51q-26 0 -47 7q2 10 11 26.5t18 23.5
q27 -8 54 -8q41 0 78.5 37t52.5 104q29 120 57 277h-105q2 12 8 36q17 0 49 0.5t49 0.5q5 0 8 8q18 91 36 133t58 78q73 66 166 66z" />
    <glyph glyph-name="uni0218" unicode="&#x218;" horiz-adv-x="471" 
d="M400 494v92q0 8 -4 14q-18 21 -82 21q-73 0 -111 -34q-50 -42 -50 -104q0 -44 22 -65.5t86 -55.5q4 -2 6.5 -3.5t6 -3t6.5 -3.5q68 -37 97 -72.5t29 -88.5q0 -90 -69 -150q-61 -51 -172 -51q-91 0 -144 29q3 24 8.5 73.5t8.5 75.5q16 3 38 1l-2 -105q-1 -9 5 -13
q30 -22 98 -22q89 0 135 42q45 42 45 111q0 27 -8 46.5t-29.5 37.5t-39 29t-56.5 32q-63 35 -91.5 67.5t-28.5 82.5q0 44 23 81.5t57 60.5q61 41 149 41q83 0 118 -27q-4 -50 -14 -136q-6 -1 -19.5 -2t-17.5 -1zM254 -108q0 -38 -29 -74.5t-71 -58.5q-12 13 -19 25
q62 39 62 77q0 14 -8 20.5t-25 10.5q0 21 13.5 36t32.5 15q18 0 31 -14.5t13 -36.5z" />
    <glyph glyph-name="uni0219" unicode="&#x219;" horiz-adv-x="348" 
d="M275 295l-3 69q0 8 -6 11q-19 14 -55 14q-34 0 -60 -13q-42 -23 -42 -68q0 -29 14.5 -43t53.5 -32q54 -25 79 -50t25 -64q0 -70 -66 -107q-38 -22 -116 -22q-60 0 -88 17q2 38 6 116q11 2 35 2l6 -76q0 -7 7 -11q19 -13 62 -13q45 0 71 16q35 24 35 69q0 17 -5 29.5
t-17 22.5t-22 15.5t-31 15.5q-50 22 -73 44t-23 64q0 33 21 61t49 42q39 20 101 20q55 0 87 -21q-4 -46 -11 -107q-10 -1 -34 -1zM170 -111q0 -36 -27 -68t-68 -53q-11 12 -18 24q59 34 59 65q0 24 -32 32q-1 22 13 38t32 16q16 0 28.5 -15.5t12.5 -38.5z" />
    <glyph glyph-name="uni021A" unicode="&#x21a;" horiz-adv-x="552" 
d="M127 35l84 3q5 0 5 3l95 571q-121 0 -155 -3q-23 -2 -29 -19l-29 -96q-20 0 -37 3q6 26 16.5 77t16.5 77q10 0 41 -0.5t52 -0.5h160h162q80 2 82 2q-6 -51 -20 -155q-22 -2 -36 -2l2 96q0 10 -4 14t-18 5q-38 2 -153 2l-99 -574l103 -3q-3 -15 -8 -36q-17 0 -58 0.5
t-61 0.5t-59.5 -0.5t-58.5 -0.5q1 4 2 11.5t2 13.5t2 11zM268 -108q0 -38 -29 -74.5t-71 -58.5q-12 13 -19 25q62 39 62 77q0 14 -8 20.5t-25 10.5q0 21 13.5 36t32.5 15q18 0 31 -14.5t13 -36.5z" />
    <glyph glyph-name="uni021B" unicode="&#x21b;" horiz-adv-x="326" 
d="M105 76q0 -45 48 -45q41 0 115 22q3 -16 5 -31q-73 -30 -137 -30q-24 0 -48 16t-32 44q-2 10 -2 15q0 15 38 192l15 63t12 53h-77q5 25 7 34q22 2 72 4q6 0 8 7l12 44t14 50q22 13 42 13q3 0 3 -3q-3 -13 -11.5 -50.5t-13.5 -60.5q104 0 154 1q-1 -18 -7 -39h-44.5h-58
h-53.5q-1 -4 -13.5 -57.5t-16.5 -73.5q-31 -139 -31 -168zM174 -111q0 -36 -27 -68t-68 -53q-12 13 -17 24q58 35 58 65q0 24 -32 32q0 22 13.5 38t31.5 16q16 0 28.5 -15.5t12.5 -38.5z" />
    <glyph glyph-name="circumflex" unicode="&#x2c6;" horiz-adv-x="437" 
d="M268 553q-15 -12 -51.5 -42.5t-51.5 -43.5l-21 24q82 80 115 110q10 1 30 1q13 -17 41 -59.5t35 -52.5q-18 -15 -26 -21q-11 12 -71 84z" />
    <glyph glyph-name="caron" unicode="&#x2c7;" horiz-adv-x="437" 
d="M252 526q20 16 59 48t50 41q13 -11 21 -22q-99 -96 -119 -115q-15 -2 -32 0q-10 16 -37 57.5t-42 63.5q11 8 25 17q21 -24 75 -90z" />
    <glyph glyph-name="uni02C9" unicode="&#x2c9;" horiz-adv-x="437" 
d="M357 542q-3 -19 -8 -40h-192q1 6 3.5 19t4.5 19q128 2 192 2z" />
    <glyph glyph-name="breve" unicode="&#x2d8;" horiz-adv-x="437" 
d="M253 481q-40 0 -64 27t-28 62q15 8 32 11q18 -57 66 -57q51 0 78 54q20 -4 33 -8q-11 -35 -41 -62t-76 -27z" />
    <glyph glyph-name="dotaccent" unicode="&#x2d9;" horiz-adv-x="437" 
d="M259 609q17 0 27.5 -13.5t10.5 -28.5q0 -14 -13 -28t-29 -14q-17 0 -30 12.5t-13 28.5q0 15 13 29t34 14z" />
    <glyph glyph-name="ring" unicode="&#x2da;" horiz-adv-x="437" 
d="M273 636q33 0 54.5 -20t21.5 -48q0 -38 -29.5 -63.5t-66.5 -25.5q-32 0 -55.5 20t-23.5 49q0 38 29 63t70 25zM269 606q-23 0 -39 -15t-16 -39q0 -18 12.5 -30t30.5 -12q21 0 36.5 15t15.5 40q0 20 -11 30.5t-29 10.5z" />
    <glyph glyph-name="ogonek" unicode="&#x2db;" horiz-adv-x="437" 
d="M299 4h49q-122 -81 -122 -135q0 -17 10.5 -25.5t24.5 -8.5q27 0 56 24q8 -11 12 -22q-46 -43 -89 -43q-29 0 -49.5 17t-20.5 46q0 27 22.5 56.5t45.5 47t61 43.5z" />
    <glyph glyph-name="tilde" unicode="&#x2dc;" horiz-adv-x="437" 
d="M224 586q8 0 17.5 -4t15 -7.5t16 -12t12.5 -10.5q25 -21 37 -21q25 0 34 53h31q-6 -43 -24 -70t-49 -27q-19 0 -52 28q-32 28 -45 28q-25 0 -40 -49h-30q7 42 28.5 67t48.5 25z" />
    <glyph glyph-name="hungarumlaut" unicode="&#x2dd;" horiz-adv-x="437" 
d="M273 622q17 -14 33 -35q-113 -91 -134 -108q-14 17 -23 24q76 72 124 119zM391 618q19 -17 31 -36q-27 -21 -77 -61.5t-57 -46.5q-1 1 -22 25q96 91 125 119z" />
    <glyph glyph-name="pi" unicode="&#x3c0;" horiz-adv-x="528" 
d="M522 435h-71l-54 -295q-17 -97 -10 -140h-45q-12 31 6 134l57 301h-177q-1 -5 -10.5 -44t-15.5 -61q-67 -245 -127 -330h-48q70 108 128 328q14 52 27 107q-66 0 -105 -11l-2 31q27 21 112 21h345z" />
    <glyph glyph-name="uni2010" unicode="&#x2010;" horiz-adv-x="284" 
d="M131 215h-104q5 34 7 44h101q21 0 59 0.5t57 1.5q-4 -32 -7 -46h-113z" />
    <glyph glyph-name="figuredash" unicode="&#x2012;" horiz-adv-x="501" 
d="M253 279h-217q2 22 6 40h217q41 0 114 0.5t112 1.5q-3 -28 -7 -42h-225z" />
    <glyph glyph-name="endash" unicode="&#x2013;" horiz-adv-x="500" 
d="M238 225h-211q1 7 3 22t3 22q36 0 106.5 0.5t105.5 0.5q155 0 222 1q-4 -32 -7 -46h-222z" />
    <glyph glyph-name="emdash" unicode="&#x2014;" horiz-adv-x="1000" 
d="M474 225h-447q1 7 3 22t3 22q74 0 221.5 0.5t221.5 0.5q164 1 491 1q0 -7 -6 -46h-487z" />
    <glyph glyph-name="quoteleft" unicode="&#x2018;" horiz-adv-x="164" 
d="M133 504q-17 0 -31 17t-14 41q0 44 29.5 81t73.5 61q8 -8 20 -26q-64 -38 -64 -82q0 -24 34 -34q0 -23 -14.5 -40.5t-33.5 -17.5z" />
    <glyph glyph-name="quoteright" unicode="&#x2019;" horiz-adv-x="164" 
d="M183 639q0 -42 -29 -79t-73 -61q-3 4 -9.5 12.5t-9.5 12.5q63 40 63 82q0 25 -34 33q-1 24 13.5 41.5t34.5 17.5q17 0 30.5 -17t13.5 -42z" />
    <glyph glyph-name="quotesinglbase" unicode="&#x201a;" horiz-adv-x="212" 
d="M85 77q18 0 31.5 -17t13.5 -42q0 -42 -29 -79t-73 -61q-12 14 -19 26q63 38 63 81q0 25 -35 33q-1 24 14 41.5t34 17.5z" />
    <glyph glyph-name="quotedblleft" unicode="&#x201c;" horiz-adv-x="299" 
d="M134 507q-18 0 -32 16.5t-14 40.5q0 44 29 80.5t73 59.5q11 -9 20 -26q-63 -40 -63 -81q0 -23 35 -33q0 -23 -14 -40t-34 -17zM270 507q-17 0 -30.5 16.5t-13.5 40.5q0 44 28.5 80.5t72.5 59.5q8 -8 20 -26q-63 -40 -63 -81q0 -23 35 -33q0 -23 -14.5 -40t-34.5 -17z" />
    <glyph glyph-name="quotedblright" unicode="&#x201d;" horiz-adv-x="299" 
d="M137 698q18 0 31.5 -16.5t13.5 -41.5q0 -42 -29.5 -79t-72.5 -60q-14 19 -18 25q61 40 61 81q0 26 -34 33q-1 24 14 41t34 17zM274 698q18 0 31.5 -16.5t13.5 -41.5q0 -42 -29 -79t-72 -60q-12 13 -19 25q62 40 62 81q0 25 -35 33q0 24 14.5 41t33.5 17z" />
    <glyph glyph-name="quotedblbase" unicode="&#x201e;" horiz-adv-x="349" 
d="M85 77q18 0 31.5 -16.5t13.5 -41.5q0 -42 -29 -78.5t-72 -60.5q-4 5 -10.5 14t-8.5 12q62 39 62 80q0 25 -35 33q0 24 14.5 41t33.5 17zM223 77q17 0 31 -16.5t14 -41.5q0 -42 -29 -78.5t-73 -60.5q-14 18 -19 26q62 39 62 80q0 25 -35 33q0 24 14.5 41t34.5 17z" />
    <glyph glyph-name="dagger" unicode="&#x2020;" horiz-adv-x="415" 
d="M290 651q1 0 1 -4q-19 -95 -43 -217q24 0 74.5 0.5t77.5 0.5q0 -18 -6 -40h-153q-75 -384 -101 -513q-26 -2 -41 -2q58 324 91 515h-139q1 6 3 19.5t3 17.5q90 2 132 2q7 0 10 7q6 34 18 103.5t18 100.5q24 10 55 10z" />
    <glyph glyph-name="daggerdbl" unicode="&#x2021;" horiz-adv-x="415" 
d="M299 651q1 0 0 -4q-8 -41 -23.5 -122t-18.5 -95q25 0 75.5 0.5t77.5 0.5q-2 -26 -6 -40h-154q-32 -164 -48 -245q25 0 76.5 0.5t77.5 0.5q0 -20 -6 -38q-22 0 -77 -0.5t-79 -0.5q-9 -45 -24.5 -125t-20.5 -105q-26 -2 -41 -2q2 12 18 98.5t24 132.5q-94 0 -141 -1
q0 2 6 40h137q6 0 7 7q6 36 21 123t20 115h-139q2 20 6 37q88 2 131 2q9 0 11 7q24 132 36 203q22 11 54 11z" />
    <glyph glyph-name="bullet" unicode="&#x2022;" horiz-adv-x="275" 
d="M222 268q0 -36 -24 -62.5t-60 -26.5q-40 0 -63 25t-23 61q0 34 25 63t63 29q40 0 61 -27.5t21 -61.5z" />
    <glyph glyph-name="onedotenleader" unicode="&#x2024;" horiz-adv-x="248" 
d="M119 84q24 0 34 -15t10 -31q0 -19 -13.5 -33t-32.5 -14q-22 0 -33.5 12.5t-11.5 32.5q0 18 12.5 33t34.5 15z" />
    <glyph glyph-name="twodotenleader" unicode="&#x2025;" horiz-adv-x="497" 
d="M119 84q24 0 34 -15t10 -31q0 -19 -13.5 -33t-32.5 -14q-22 0 -33.5 12.5t-11.5 32.5q0 18 12.5 33t34.5 15zM367 84q24 0 34 -15t10 -31q0 -19 -13.5 -33t-32.5 -14q-44 0 -44 45q0 18 12 33t34 15z" />
    <glyph glyph-name="ellipsis" unicode="&#x2026;" horiz-adv-x="745" 
d="M119 84q24 0 34 -15t10 -31q0 -19 -13.5 -33t-32.5 -14q-22 0 -33.5 12.5t-11.5 32.5q0 18 12.5 33t34.5 15zM367 84q24 0 34 -15t10 -31q0 -19 -13.5 -33t-32.5 -14q-44 0 -44 45q0 18 12 33t34 15zM616 84q24 0 33.5 -14.5t9.5 -31.5q0 -19 -13 -33t-32 -14
q-22 0 -33.5 12.5t-11.5 32.5q0 18 12.5 33t34.5 15z" />
    <glyph glyph-name="perthousand" unicode="&#x2030;" horiz-adv-x="1042" 
d="M825 -10q-46 0 -77 28q-39 34 -39 96q0 43 18 85.5t50 71.5q42 38 96 38q56 0 86 -35q31 -34 31 -95q0 -36 -16 -76.5t-48 -71.5q-42 -41 -101 -41zM833 23q39 0 64 28q46 48 46 127q0 46 -18 71q-19 27 -56 27t-61 -23q-52 -46 -52 -136q0 -48 24 -72q21 -22 53 -22z
M544 612l-1 4q-122 -3 -241 -3q34 -29 34 -97q0 -90 -63 -150q-44 -41 -101 -41q-46 0 -77 28q-39 32 -39 96q0 44 18 87t50 71q44 38 96 38q309 0 368 5q10 -12 15 -24q-175 -245 -218 -306q-38 -55 -244 -343q-7 3 -19 10t-15 9q192 266 246 344q24 35 90 128.5t101 143.5
zM179 358q39 0 64 28q46 46 46 131q0 43 -18 68q-20 26 -55 26q-36 0 -63 -23q-50 -46 -50 -136q0 -46 23 -72q22 -22 53 -22zM497 -10q-48 0 -77 28q-39 32 -39 96q0 43 18 85.5t49 71.5q42 38 97 38q56 0 86 -35t30 -95q0 -86 -63 -148q-44 -41 -101 -41zM504 23
q38 0 65 28q45 47 45 127q0 46 -18 71q-19 27 -56 27t-61 -23q-51 -47 -51 -136q0 -47 23 -72q21 -22 53 -22z" />
    <glyph glyph-name="guilsinglleft" unicode="&#x2039;" horiz-adv-x="255" 
d="M101 218q18 -36 79 -137q-4 -3 -29 -21q-80 107 -111 145q1 11 5 30q95 84 156 144q17 -15 24 -27q-18 -19 -59.5 -64.5t-64.5 -69.5z" />
    <glyph glyph-name="guilsinglright" unicode="&#x203a;" horiz-adv-x="255" 
d="M136 222q-36 65 -79 136q17 13 30 21q60 -85 110 -145q0 -10 -4 -30q-18 -15 -157 -144l-24 27q51 51 124 135z" />
    <glyph glyph-name="fraction" unicode="&#x2044;" horiz-adv-x="118" 
d="M319 639q-48 -71 -134.5 -196.5t-107.5 -155.5q-35 -53 -209 -302q-16 7 -32 18q98 139 208 300q44 64 130 189t114 166q16 -6 31 -19z" />
    <glyph glyph-name="zero.superior" unicode="&#x2070;" 
d="M308 649q0 -56 -19.5 -109t-49.5 -79q-31 -28 -76 -28q-36 0 -62 29q-24 27 -24 84q0 43 15 93t45 82q35 36 83 36q42 0 66 -32q22 -31 22 -76zM213 727q-22 0 -41 -19q-24 -24 -36.5 -69.5t-12.5 -93.5q0 -43 12 -61q12 -21 35 -21t41 19q52 55 52 165q0 42 -15 64
q-13 16 -35 16z" />
    <glyph glyph-name="four.superior" unicode="&#x2074;" 
d="M143 441q2 8 4 28l54 1q3 0 3 2q6 30 8 45h-152q-2 5 -5 15t-5 15q67 72 99 106q64 68 97 101q14 1 43 -1q-29 -177 -34 -205h59q0 -14 -5 -31h-60q-2 -7 -4.5 -23.5t-3.5 -23.5l44 -1q0 -10 -4 -28q-10 0 -32.5 0.5t-32.5 0.5q-13 0 -37.5 -0.5t-35.5 -0.5zM247 710h-5
q-48 -52 -74 -79q-11 -13 -35.5 -40t-36.5 -39q-4 -4 1 -4h120z" />
    <glyph glyph-name="five.superior" unicode="&#x2075;" 
d="M289 553q0 -55 -41 -87q-40 -32 -108 -32q-46 0 -71 7q-4 51 -5 79q9 2 31 4l7 -49q0 -2 4 -4q13 -7 41 -7q42 0 71 23q27 22 27 59q0 25 -19 44.5t-66 19.5q-29 0 -61 -4l-2 2q15 57 37 142h89h88q-1 -15 -5 -33h-141q-5 -19 -24 -78q28 2 40 2q46 0 77 -24t31 -64z" />
    <glyph glyph-name="six.superior" unicode="&#x2076;" 
d="M126 601h3q43 34 86 34q41 0 63 -28q19 -20 19 -57q0 -59 -43 -92q-32 -25 -78 -25q-40 0 -64 22q-33 31 -33 86q0 50 18 96.5t46 75.5q42 44 106 44q36 0 59 -9q0 -16 -2 -70q-5 -1 -16.5 -2t-14.5 -1l-5 39q-2 6 -6 8q-8 4 -25 4q-40 0 -64 -27q-30 -35 -49 -98z
M202 600q-46 0 -79 -40q-8 -50 16 -77q15 -20 43 -20q26 0 46 18q27 22 27 65q0 23 -14 40q-11 14 -39 14z" />
    <glyph glyph-name="seven.superior" unicode="&#x2077;" 
d="M85 671q14 50 21 79h58h152q6 -19 7 -33q-83 -116 -133 -221q-11 -23 -18 -56q-28 -2 -44 -2q5 31 20 62q63 117 130 215l-1 2h-131q-12 -1 -15 -11l-14 -42q-24 5 -32 7z" />
    <glyph glyph-name="eight.superior" unicode="&#x2078;" 
d="M237 604v-2q59 -22 59 -73q0 -46 -44 -75q-32 -21 -82 -21q-55 0 -82 24q-23 20 -23 53q0 30 22.5 56t61.5 41v2q-42 25 -42 64q0 43 42 67q30 17 68 17q41 0 66 -20q23 -18 23 -49q0 -55 -69 -84zM148 675q0 -22 11.5 -34t43.5 -25q62 23 62 68q0 18 -12 31
q-14 14 -40 14q-27 0 -43 -12q-22 -15 -22 -42zM254 525q0 27 -16.5 42t-57.5 28q-31 -13 -52 -34.5t-21 -46.5q0 -26 18 -39q17 -14 50 -14q34 0 54 16q25 20 25 48z" />
    <glyph glyph-name="nine.superior" unicode="&#x2079;" 
d="M257 590h-4q-34 -28 -79 -28q-40 0 -64 24q-23 21 -23 61q0 44 34 78q30 32 84 32q46 0 72 -31q26 -30 26 -81t-19.5 -103t-54.5 -78q-41 -31 -93 -31q-39 0 -60 9q-4 44 -5 69q7 1 30 4l9 -41q0 -3 5 -5q10 -6 30 -6q34 0 61 24q35 31 51 103zM184 592q38 0 73 36
q9 48 -11 77q-16 23 -48 23q-30 0 -47 -19q-23 -25 -23 -56q0 -28 15 -45q13 -16 41 -16z" />
    <glyph glyph-name="parenleft.superior" unicode="&#x207d;" horiz-adv-x="173" 
d="M83 541q0 79 45.5 153.5t110.5 107.5q5 -7 12 -23q-48 -30 -87 -96t-39 -142q0 -86 56 -144q-11 -13 -20 -21q-78 58 -78 165z" />
    <glyph glyph-name="parenright.superior" unicode="&#x207e;" horiz-adv-x="173" 
d="M173 638q0 -82 -45.5 -152.5t-111.5 -109.5q-8 12 -14 25q51 35 90 96t39 141q0 89 -58 141q5 7 19 23q81 -59 81 -164z" />
    <glyph glyph-name="n.superior" unicode="&#x207f;" horiz-adv-x="370" 
d="M128 607l-60 -7q0 11 -2 27q20 3 41 8.5t32.5 8.5t13.5 3q3 0 9 -4.5t8 -8.5q-1 -3 -8.5 -32.5t-13.5 -47.5l5 -2q41 46 83 70.5t72 25.5q32 -6 47 -37q3 -12 3 -22q0 -54 -62 -224q-2 -5 3 -5q16 0 56 14q3 -10 5 -26q-46 -17 -89 -17q-4 0 -10 6t-8 13q31 84 49 157
q13 50 13 72q0 29 -23 29q-35 0 -89.5 -43.5t-63.5 -75.5q-3 -10 -18.5 -73t-19.5 -79h-40q5 20 67 270z" />
    <glyph glyph-name="zero.inferior" unicode="&#x2080;" 
d="M260 102q0 -56 -19.5 -109.5t-50.5 -78.5q-31 -28 -75 -28q-38 0 -62 29q-24 27 -24 84q0 44 15 93.5t45 81.5q33 36 83 36q41 0 65 -32q23 -32 23 -76zM165 180q-24 0 -41 -19q-24 -24 -37 -69.5t-13 -92.5q0 -41 12 -62t35 -21q24 0 42 19q51 54 51 165q0 44 -15 64
q-12 16 -34 16z" />
    <glyph glyph-name="one.inferior" unicode="&#x2081;" 
d="M27 -105q1 2 2.5 13t3.5 17l74 2q2 0 2 1q9 46 23 128.5t17 98.5q-10 -2 -36.5 -8.5t-45.5 -11.5q0 4 -2 14.5t-3 15.5q29 7 62 19t52.5 20t22.5 8t1 -3q-34 -190 -51 -282l78 -2q-2 -16 -6 -30h-101h-93z" />
    <glyph glyph-name="two.inferior" unicode="&#x2082;" 
d="M249 126q0 -63 -109 -152q-20 -16 -63 -43l2 -4q20 1 75.5 3.5t70.5 2.5q2 0 2 -2q-2 -21 -6 -36h-133h-76q-5 13 -6 23q54 35 103 73q95 76 95 133q0 23 -12 38q-17 19 -45 19q-32 0 -51 -14q-2 -1 -4 -6l-14 -51q-5 1 -15.5 2.5t-15.5 2.5q11 57 16 78q30 18 87 18
q55 0 80 -28q19 -20 19 -57z" />
    <glyph glyph-name="three.inferior" unicode="&#x2083;" 
d="M168 61v-5q35 -4 53.5 -23.5t18.5 -49.5q0 -44 -45 -74q-36 -23 -103 -23q-43 0 -73 7q-1 26 -3 82q7 1 30 4l9 -49l3 -5q20 -9 46 -9q47 0 67 18q23 17 23 46q0 28 -20.5 43.5t-53.5 15.5h-42q0 3 1 14.5t2 16.5q52 -2 89.5 17t37.5 49q0 17 -13 30q-15 13 -49 13
q-32 0 -48 -11q-3 -3 -4 -5l-13 -45q-26 3 -32 4q2 9 5 23.5t5 26t4 20.5q43 18 93 18q53 0 78 -25q19 -21 19 -44q0 -28 -22 -49t-63 -31z" />
    <glyph glyph-name="four.inferior" unicode="&#x2084;" 
d="M95 -105q3 21 4 27l54 1q3 0 3 2q3 15 7 45h-151q-2 5 -5.5 15t-5.5 15q67 72 99 106q19 19 53.5 55t43.5 46q16 1 43 -1q-12 -80 -34 -205h60q0 -9 -6 -31h-60q-4 -25 -8 -47l45 -1q-2 -20 -4 -27h-66h-72zM198 163h-5q-3 -4 -73 -79q-57 -62 -72 -79q-2 -1 -1.5 -2.5
t2.5 -1.5h120z" />
    <glyph glyph-name="five.inferior" unicode="&#x2085;" 
d="M241 6q0 -54 -41 -87q-40 -32 -108 -32q-49 0 -71 8q-4 48 -5 78q9 2 31 4l7 -49q0 -2 3 -4q17 -7 42 -7q42 0 71 23q27 24 27 59q0 25 -19 44.5t-66 19.5q-29 0 -61 -4l-3 2q36 134 38 142h88h89q-2 -19 -6 -33h-140q-3 -9 -7.5 -25t-8.5 -29t-8 -24q28 2 40 2
q47 0 77.5 -23.5t30.5 -64.5z" />
    <glyph glyph-name="six.inferior" unicode="&#x2086;" 
d="M78 54h2q44 34 87 34q39 0 63 -28q19 -22 19 -57q0 -58 -44 -92q-32 -25 -77 -25q-40 0 -65 22q-32 30 -32 86q0 50 17.5 96.5t45.5 75.5q42 44 106 44q36 0 59 -9q0 -43 -1 -70q-10 -1 -32 -3l-5 39q0 5 -5 8q-8 4 -26 4q-39 0 -63 -27q-33 -38 -49 -98zM154 54
q-45 0 -79 -41q-8 -49 15 -77q16 -19 44 -19q27 0 46 17q27 22 27 65q0 23 -14 40q-14 15 -39 15z" />
    <glyph glyph-name="seven.inferior" unicode="&#x2087;" 
d="M37 124q3 14 21 79h58h152q6 -19 7 -33q-84 -115 -134 -221q-13 -30 -17 -56q-28 -2 -45 -2q7 37 20 62q69 125 131 215l-1 2h-131q-12 -1 -15 -11l-15 -42q-30 7 -31 7z" />
    <glyph glyph-name="eight.inferior" unicode="&#x2088;" 
d="M188 57v-2q60 -21 60 -72q0 -46 -44 -76q-32 -21 -83 -21q-54 0 -81 24q-23 20 -23 53q0 30 22.5 56t61.5 41v2q-43 24 -43 64q0 43 43 67q30 17 68 17q42 0 65 -20q24 -19 24 -49q0 -55 -70 -84zM100 128q0 -22 11.5 -34t42.5 -25q62 23 62 68q0 19 -11 31
q-16 14 -40 14q-27 0 -43 -12q-22 -15 -22 -42zM206 -21q0 27 -17 41.5t-58 27.5q-31 -12 -51.5 -34t-20.5 -47t18 -39q17 -14 49 -14q34 0 54 16q26 19 26 49z" />
    <glyph glyph-name="nine.inferior" unicode="&#x2089;" 
d="M208 43h-3q-35 -28 -79 -28q-41 0 -64 24q-24 22 -24 61q0 45 35 78q30 32 84 32q46 0 72 -31q25 -31 25 -81q0 -51 -19.5 -103t-54.5 -78q-39 -31 -92 -31q-38 0 -61 9q-1 15 -5 69q9 2 31 4l9 -41q0 -3 4 -5q10 -5 31 -5q35 0 61 23q35 32 50 103zM136 45q38 0 73 36
q9 47 -12 77q-15 23 -48 23q-28 0 -47 -19q-22 -24 -22 -56q0 -29 14 -45t42 -16z" />
    <glyph glyph-name="parenleft.inferior" unicode="&#x208d;" horiz-adv-x="173" 
d="M34 -6q0 79 46 153.5t111 107.5q7 -10 11 -23q-48 -30 -87 -96t-39 -142q0 -85 57 -144q-11 -13 -20 -21q-79 59 -79 165z" />
    <glyph glyph-name="parenright.inferior" unicode="&#x208e;" horiz-adv-x="173" 
d="M125 91q0 -82 -46 -152.5t-112 -109.5q-2 4 -7 12.5t-7 12.5q51 35 90 96t39 141q0 88 -57 141q12 16 19 23q81 -59 81 -164z" />
    <glyph glyph-name="colonmonetary" unicode="&#x20a1;" horiz-adv-x="497" 
d="M262 584l25 121q15 2 41 2l-24 -114q32 8 65 8l22 105q28 2 40 1l-22 -106q31 -1 62 -9t39 -17q-1 -11 -10 -26t-19 -22q-33 29 -80 32l-104 -487q51 3 142 36q4 -22 4 -37q-98 -36 -154 -38l-23 -108q-12 -1 -38 -1l23 109q-34 2 -62 9l-27 -117q-21 -2 -38 0l30 131
q-46 22 -75.5 71.5t-29.5 127.5q0 110 58.5 204.5t154.5 124.5zM259 72l103 490q-37 0 -67 -9l-96 -469q27 -10 60 -12zM165 100l89 442q-65 -29 -109 -104t-44 -179q0 -120 64 -159z" />
    <glyph glyph-name="Euro" unicode="&#x20ac;" horiz-adv-x="500" 
d="M102 381q46 131 131 198q85 66 191 66q67 0 104 -22q-4 -20 -9 -58.5t-8 -57.5q-6 -1 -19 -1.5t-19 -0.5l2 69q0 7 -3 13q-25 16 -73 16q-84 0 -150 -63q-63 -60 -94 -159q37 0 120 0.5t119 0.5q-1 -14 -7 -37h-244q-9 -39 -11 -71h220q-1 -8 -8 -37h-66h-81.5h-64.5
q0 -78 30 -129q18 -33 53 -54t80 -21q54 0 151 38q3 -27 2 -37q-108 -44 -167 -44q-86 0 -145 65q-61 67 -58 182h-69q1 16 7 37q11 0 31 -0.5t32 -0.5q5 42 12 72h-63l6 36h68z" />
    <glyph glyph-name="uni20B9" unicode="&#x20b9;" horiz-adv-x="501" 
d="M106 598q3 18 8 37h142h74q30 0 97.5 0.5t96.5 0.5q-1 -12 -8 -37h-184q51 -33 60 -85h107q-5 -26 -8 -35q-12 0 -46.5 -0.5t-52.5 -0.5q0 -11 -4 -20q-11 -57 -55.5 -101t-107.5 -67v-5q7 -3 13 -7t12 -11t10.5 -12t10 -16t9 -17t9.5 -21t9 -22t10.5 -26.5t10.5 -28.5
q19 -55 27.5 -70.5t17.5 -15.5l62 -2q-2 -19 -8 -36q-41 0 -62 -1q-8 0 -24.5 -0.5t-23.5 -0.5q-15 24 -48.5 113.5t-45.5 111.5q-14 27 -33 37t-59 10h-38t-24 -0.5t-10 -0.5q2 20 8 40q12 -2 67 -2q54 0 97 17t66 42.5t35 52t12 49.5q0 2 -0.5 5.5t-0.5 4.5h-92
q-21 0 -76.5 -0.5t-80.5 -0.5q4 23 8 37h239q-19 82 -147 84h-79z" />
    <glyph glyph-name="uni20BA" unicode="&#x20ba;" horiz-adv-x="501" 
d="M215 591l-97 -6q-2 28 -3 32q35 5 68 12t49.5 11.5t18.5 4.5q8 0 21 -17q-4 -17 -18 -73l-22 -88q147 64 163 71q6 -14 12 -30q-103 -44 -184 -80q-3 -14 -10 -41t-10 -40q28 12 86 37.5t86 37.5q9 -20 11 -30q-37 -16 -192 -85q-33 -134 -63 -266q-2 -7 4 -7
q87 0 173 67.5t108 169.5q21 17 55 17q-26 -136 -129.5 -216.5t-237.5 -80.5q-3 0 -12.5 8.5t-14.5 17.5q20 83 65 270q-3 -1 -44.5 -19.5t-58.5 -25.5q-8 16 -11 30q42 18 123 54q2 7 9 36.5t11 44.5q-10 -4 -53 -23.5t-60 -25.5q-10 28 -10 31q10 4 38 16l52.5 22.5
t41.5 17.5q5 22 17.5 74t17.5 72z" />
    <glyph glyph-name="uni2113" unicode="&#x2113;" horiz-adv-x="427" 
d="M353 128l26 -24q-64 -110 -170 -110q-72 0 -103.5 47.5t-24.5 119.5l2 11q-42 -29 -60 -40l-15 29q54 34 83 58l55 281q19 101 61.5 149.5t96.5 48.5q41 0 65.5 -29t24.5 -77q0 -173 -262 -388l-2 -16q-15 -151 84 -151q32 0 61 16t44 32.5t34 42.5zM191 513l-49 -255
q206 183 206 329q0 72 -54 72q-33 0 -61 -37.5t-42 -108.5z" />
    <glyph glyph-name="trademark" unicode="&#x2122;" horiz-adv-x="601" 
d="M126 428l39 1v193q-35 0 -54 -3l-7 -51q-20 2 -28 2q3 75 3 80h108h100q0 -36 3 -80q-9 0 -29 -2l-7 51q-18 3 -53 3v-193h43q0 -20 -1 -29q-8 0 -27.5 0.5t-30.5 0.5t-30.5 -0.5t-28.5 -0.5v28zM313 428l34 1q1 63 1 193h-35q0 20 1 28h87q5 -14 29 -87t36 -107h5
q6 17 21 61.5t27 80.5t17 52h84q0 -17 -1 -28h-35q0 -133 1 -193h36v-29q-8 0 -26.5 0.5t-28.5 0.5q-8 0 -21.5 -0.5t-19.5 -0.5q0 18 1 28l26 1q2 114 2 172h-6q-29 -92 -68 -190h-29q-30 76 -66 194h-6q0 -26 0.5 -87t0.5 -89h26v-9v-11v-9q-6 0 -20.5 0.5t-22.5 0.5
q-9 0 -25.5 -0.5t-24.5 -0.5v28z" />
    <glyph glyph-name="Omega" unicode="&#x2126;" horiz-adv-x="671" 
d="M230 35l-8 -35h-211l7 41h146v3q-39 39 -64.5 100t-25.5 129q0 163 93 275t233 112q108 0 174 -73.5t66 -184.5q0 -117 -54.5 -210.5t-133.5 -147.5v-3h136l-6 -41h-214l7 35q83 47 149.5 146t66.5 215q0 57 -20 106.5t-66 83.5t-110 34q-51 0 -96 -21t-76.5 -56
t-54.5 -78.5t-34 -89.5t-11 -89q0 -88 30.5 -152t76.5 -99z" />
    <glyph glyph-name="estimated" unicode="&#x212e;" horiz-adv-x="814" 
d="M800 311h-602q-5 0 -5 -5v-181q0 -11 8 -21q92 -98 228 -98q144 0 239 110h54q-52 -60 -128.5 -95t-165.5 -35q-154 0 -263 97.5t-109 235.5q0 139 109 237t263 98t263 -98t109 -237v-8zM663 335v183q0 13 -9 22q-92 94 -225 94t-227 -96q-9 -9 -9 -24v-179q0 -5 5 -5
h461q4 0 4 5z" />
    <glyph glyph-name="onethird" unicode="&#x2153;" horiz-adv-x="688" 
d="M71 336q1 5 3 15.5t3 15.5l75 1q2 0 2 2q22 126 39 226q-53 -12 -81 -20q-4 19 -5 31q29 7 61.5 19t52 20t23.5 8q1 0 1 -3q-34 -190 -51 -282l77 -2q-2 -16 -6 -31q-18 0 -52 0.5t-48 0.5q-15 0 -46 -0.5t-48 -0.5zM604 639q-222 -323 -242 -352q-18 -26 -210 -302
q-16 7 -32 18q98 139 208 300q44 64 130 189t114 166q14 -5 32 -19zM574 166v-5q35 -4 53 -23.5t18 -49.5q0 -44 -45 -74q-34 -23 -103 -23q-43 0 -73 7q-1 15 -2 44t-1 38q9 2 31 4l8 -49q2 -4 3 -5q21 -9 46 -9q47 0 67 18q23 17 23 47q0 27 -20.5 43t-53.5 16
q-3 0 -20.5 -0.5t-21.5 -0.5q0 3 1 14.5t2 16.5q52 -2 89.5 17t37.5 49q0 17 -13 30q-14 14 -49 14q-29 0 -48 -12q-3 -3 -4 -5l-13 -45q-7 2 -31 4q1 6 6 32t8 39q38 17 92 17q55 0 78 -25q19 -19 19 -44q0 -28 -21.5 -49t-62.5 -31z" />
    <glyph glyph-name="twothirds" unicode="&#x2154;" horiz-adv-x="688" 
d="M298 568q0 -66 -110 -152q-28 -23 -62 -43l2 -5q110 6 145 7q2 0 2 -2q0 -14 -6 -36h-132h-77q-1 3 -3 10.5t-3 11.5q67 45 103 74q96 76 96 133q0 24 -13 38q-16 18 -45 18q-34 0 -51 -13q-2 -1 -3 -6l-15 -51q-3 0 -14 1.5t-17 2.5q3 16 9 44t7 34q30 18 88 18
q55 0 79 -27q20 -20 20 -57zM609 639q-222 -323 -242 -352q-18 -26 -210 -302q-16 7 -32 18q101 140 208 300q44 64 130 189t114 166q14 -5 32 -19zM579 166v-5q35 -4 53 -23.5t18 -49.5q0 -44 -45 -74q-35 -23 -103 -23q-44 0 -72 7q0 13 -1.5 40.5t-2.5 41.5q9 2 31 4
l8 -49q2 -4 3 -5q21 -9 46 -9q46 0 68 18q22 17 22 47q0 27 -20.5 43t-53.5 16q-3 0 -20.5 -0.5t-21.5 -0.5q1 5 2 15.5t2 15.5q51 -2 88.5 17t37.5 49q0 17 -13 30q-14 14 -49 14q-28 0 -48 -12q-3 -3 -4 -5l-13 -45q-7 2 -31 4q1 6 6 32t8 39q38 17 92 17q55 0 78 -25
q19 -19 19 -44q0 -28 -21.5 -49t-62.5 -31z" />
    <glyph glyph-name="oneeighth" unicode="&#x215b;" horiz-adv-x="688" 
d="M78 336q2 5 3.5 15.5t3.5 15.5l74 1q2 0 2 2q2 14 17 99t23 127q-54 -12 -82 -20q-4 19 -5 31q29 7 61.5 19t52 20t23.5 8q1 0 1.5 -1t-0.5 -2q-34 -190 -51 -282l78 -2q0 -1 -2 -13t-4 -18q-19 0 -53 0.5t-48 0.5q-15 0 -46 -0.5t-48 -0.5zM605 639
q-48 -71 -134.5 -196.5t-107.5 -155.5q-68 -101 -210 -302q-16 8 -31 18q98 139 208 300q31 45 114 166.5t129 188.5q14 -5 32 -19zM594 162v-2q60 -21 60 -72q0 -46 -45 -76q-31 -21 -82 -21q-53 0 -82 24q-23 20 -23 53q0 30 22.5 56t61.5 41v2q-42 25 -42 65q0 42 43 66
q27 17 68 17q40 0 65 -20q24 -18 24 -49q0 -54 -70 -84zM506 233q0 -22 11.5 -34t42.5 -25q62 25 62 68q0 19 -12 31q-12 14 -40 14q-27 0 -43 -12q-21 -15 -21 -42zM611 84q0 27 -16.5 41.5t-57.5 27.5q-31 -12 -52 -34t-21 -47q0 -26 19 -39q16 -14 49 -14q34 0 54 16
q25 20 25 49z" />
    <glyph glyph-name="threeeighths" unicode="&#x215c;" horiz-adv-x="688" 
d="M232 503v-5q35 -4 53 -23.5t18 -49.5q0 -45 -44 -74q-36 -23 -103 -23q-45 0 -73 7q0 12 -1.5 39.5t-2.5 42.5q9 2 31 4l8 -50l4 -4q20 -9 45 -9q46 0 68 17q22 19 22 47t-20 43.5t-54 15.5h-41q0 5 1 15.5t2 15.5q51 -2 88.5 17t37.5 49q0 18 -12 30q-15 13 -49 13
q-32 0 -48 -11l-5 -5l-13 -45q-23 3 -31 4l14 70q41 18 92 18q55 0 78 -25q19 -19 19 -45q0 -28 -21.5 -48.5t-62.5 -30.5zM623 639q-48 -71 -134.5 -196.5t-107.5 -155.5q-68 -101 -210 -302q-16 8 -31 18q98 139 208 300q31 45 114 166.5t129 188.5q14 -5 32 -19zM596 162
v-2q60 -21 60 -72q0 -46 -44 -76q-32 -21 -83 -21q-54 0 -81 24q-24 21 -24 53q0 30 23 56t62 41v2q-43 24 -43 65q0 42 43 66q27 17 68 17q42 0 65 -20q24 -18 24 -49q0 -55 -70 -84zM508 233q0 -22 11.5 -34t42.5 -25q62 24 62 68q0 19 -11 31q-14 14 -40 14
q-27 0 -43 -12q-22 -15 -22 -42zM614 84q0 27 -17 41.5t-58 27.5q-31 -12 -51.5 -34t-20.5 -47q0 -26 18 -39q17 -14 49 -14q34 0 54 16q26 21 26 49z" />
    <glyph glyph-name="fiveeighths" unicode="&#x215d;" horiz-adv-x="688" 
d="M303 447q0 -53 -41 -86q-40 -32 -109 -32q-45 0 -71 7q-4 48 -5 79q9 2 31 4l7 -49q0 -2 4 -4q14 -7 41 -7q44 0 71 23q27 21 27 59q0 25 -19 44.5t-66 19.5q-41 0 -61 -5l-2 2q19 74 37 143h89h89q-2 -19 -6 -33h-140q-4 -12 -8 -25t-9 -28.5t-8 -24.5q28 2 40 2
q47 0 78 -24t31 -65zM616 639q-48 -71 -134.5 -196.5t-107.5 -155.5q-68 -101 -210 -302q-12 6 -32 18q101 140 208 300q78 113 244 355q14 -5 32 -19zM589 162v-2q60 -21 60 -72q0 -46 -44 -76q-32 -21 -83 -21q-54 0 -81 24q-24 19 -24 53q0 30 22.5 56t61.5 41v2
q-42 25 -42 65q0 42 43 66q27 17 68 17q42 0 65 -20q24 -18 24 -49q0 -55 -70 -84zM501 233q0 -22 11.5 -34t42.5 -25q62 24 62 68q0 19 -11 31q-14 14 -41 14q-26 0 -43 -12q-21 -15 -21 -42zM606 84q0 27 -16.5 41.5t-57.5 27.5q-31 -12 -51.5 -34t-20.5 -47q0 -26 18 -39
q16 -14 49 -14q34 0 54 16q25 20 25 49z" />
    <glyph glyph-name="seveneighths" unicode="&#x215e;" horiz-adv-x="688" 
d="M110 566q3 14 21 79h57h153q6 -21 7 -33q-84 -115 -134 -221q-13 -29 -18 -56q-13 -2 -44 -2q8 38 20 62q67 120 131 215l-1 2q-117 0 -131 -1q-13 0 -16 -10l-14 -42q-30 7 -31 7zM579 639q-48 -71 -134.5 -196.5t-107.5 -155.5q-35 -53 -209 -302q-16 7 -32 18
q98 139 208 300q44 64 130 189t114 166q16 -6 31 -19zM559 162v-2q60 -21 60 -72q0 -47 -44 -76q-32 -21 -83 -21q-52 0 -81 24q-23 20 -23 53q0 30 22.5 56t61.5 41v2q-43 25 -43 65q0 42 43 66q27 17 68 17q42 0 65 -20q24 -18 24 -49q0 -55 -70 -84zM471 233
q0 -22 11.5 -34t42.5 -25q62 24 62 68q0 19 -11 31q-14 14 -40 14q-27 0 -43 -12q-22 -15 -22 -42zM577 84q0 27 -16.5 41t-57.5 28q-31 -12 -52 -34t-21 -47q0 -26 18 -39q17 -14 49 -14q35 0 55 16q25 21 25 49z" />
    <glyph glyph-name="partialdiff" unicode="&#x2202;" horiz-adv-x="491" 
d="M112 636l-16 31q72 49 159 49q89 0 151 -75t62 -212q0 -113 -35 -212.5t-102.5 -163.5t-151.5 -64q-75 0 -115 50.5t-40 124.5q0 108 70 186.5t173 78.5q50 0 92.5 -30t56.5 -67h2q9 50 9 98q0 120 -53 183.5t-123 63.5q-82 0 -139 -41zM259 389q-80 0 -134.5 -64
t-54.5 -159q0 -62 31 -99.5t85 -37.5q81 0 139.5 72t81.5 179q-14 45 -56 77t-92 32z" />
    <glyph glyph-name="Delta" unicode="&#x2206;" horiz-adv-x="582" 
d="M-1 32l347 622h47l120 -622l-6 -32h-513zM468 41l-80 402q-11 50 -27 156h-3q-16 -37 -71 -134l-232 -424h413z" />
    <glyph glyph-name="product" unicode="&#x220f;" horiz-adv-x="549" 
d="M527 604l-140 -691h-48l142 691h-281l-141 -691h-47l141 691h-78l9 43h529l-9 -43h-77z" />
    <glyph glyph-name="summation" unicode="&#x2211;" horiz-adv-x="428" 
d="M-61 -87l5 33l314 336l-184 331l7 34h420l-8 -42h-364v-2l179 -324l-295 -321v-3h399l-7 -42h-466z" />
    <glyph glyph-name="minus" unicode="&#x2212;" horiz-adv-x="501" 
d="M429 257q0 -18 -2 -44q-261 0 -386 -1q0 30 1 43q252 2 387 2z" />
    <glyph glyph-name="uni2215" unicode="&#x2215;" horiz-adv-x="118" 
d="M319 639q-48 -71 -134.5 -196.5t-107.5 -155.5q-35 -53 -209 -302q-16 7 -32 18q98 139 208 300q44 64 130 189t114 166q16 -6 31 -19z" />
    <glyph glyph-name="uni2219" unicode="&#x2219;" horiz-adv-x="230" 
d="M119 310q24 0 34 -15t10 -32q0 -19 -13.5 -32.5t-32.5 -13.5q-44 0 -44 44q0 19 12 34t34 15z" />
    <glyph glyph-name="radical" unicode="&#x221a;" horiz-adv-x="514" 
d="M621 815l-371 -915h-40l-74 432l-73 -29l-9 34l118 49l60 -374q3 -21 5 -46q2 1 2 0q1 3 6.5 20.5t9.5 25.5l323 803h43z" />
    <glyph glyph-name="infinity" unicode="&#x221e;" horiz-adv-x="708" 
d="M530 129q-16 0 -30.5 3t-30 11t-24.5 13t-26 19.5t-21.5 18.5t-23.5 23l-20 20q-37 -37 -55 -53.5t-55 -35.5t-74 -19q-58 0 -95.5 37.5t-37.5 97.5q0 56 41 96t100 40q14 0 28 -3.5t24 -6.5t24.5 -12.5t21 -13.5t22 -18t19 -17.5l20 -20l17.5 -17.5q36 37 55 54t55.5 36
t73.5 19q58 0 95.5 -38t37.5 -98q0 -56 -41 -95.5t-100 -39.5zM532 168q41 0 69 28.5t28 67.5q0 42 -26.5 69.5t-67.5 27.5q-30 0 -61.5 -17.5t-48.5 -34t-44 -45.5q7 -6 25 -24.5t28.5 -27.5t27.5 -21t34 -17.5t36 -5.5zM173 168q30 0 61.5 18t48 33t44.5 45q-3 3 -30.5 30
t-38.5 35.5t-35 20t-47 11.5q-41 0 -69 -28.5t-28 -68.5q0 -41 26.5 -68.5t67.5 -27.5z" />
    <glyph glyph-name="integral" unicode="&#x222b;" horiz-adv-x="258" 
d="M347 784l-15 -36q-14 3 -27 3q-21 0 -38.5 -13.5t-28 -31t-19 -46t-12 -45.5t-7.5 -43q-9 -57 -32 -224t-35 -240q-7 -42 -15.5 -73t-25 -67t-44 -56t-64.5 -20q-22 0 -42 10l11 35q23 -5 34 -5q21 0 38.5 14t27.5 31.5t18.5 47t11.5 45t7 40.5q12 71 34.5 238.5
t32.5 227.5q35 216 155 216q21 0 35 -8z" />
    <glyph glyph-name="approxequal" unicode="&#x2248;" horiz-adv-x="501" 
d="M426 335l25 -29q-51 -51 -110 -51q-25 0 -57 10q-13 5 -38 16q-5 2 -16.5 6.5t-19.5 7.5q-21 8 -45 8q-42 0 -86 -40l-25 29q53 51 111 51q24 0 56 -10q13 -5 38 -16q6 -2 19 -7t17 -7q21 -8 46 -8q41 0 85 40zM430 204l25 -29q-49 -51 -110 -51q-29 0 -56 9
q-8 3 -20.5 8.5t-18.5 7.5q-2 1 -15 6.5t-21 8.5q-21 8 -45 8q-41 0 -86 -41l-25 29q51 51 111 51q29 0 56 -9q3 -1 39 -16q6 -2 17.5 -7.5t17.5 -7.5q26 -8 46 -8q42 0 85 41z" />
    <glyph glyph-name="notequal" unicode="&#x2260;" horiz-adv-x="501" 
d="M297 282l-35 -95q32 0 94.5 0.5t90.5 0.5q0 -29 -1 -43q-132 0 -200 -1q-24 -68 -36 -101q-8 4 -22.5 9.5t-16.5 6.5q3 9 9.5 26.5t11.5 31.5t9 26q-96 0 -143 -1q0 27 3 45h156q4 11 15.5 43.5t17.5 50.5h-191q0 17 2 43q33 0 101.5 0.5t103.5 0.5q34 96 35 99
q18 -6 41 -17q-3 -7 -13.5 -36.5t-16.5 -45.5q23 0 68.5 0.5t67.5 1.5q0 -19 -2 -45h-149z" />
    <glyph glyph-name="lessequal" unicode="&#x2264;" horiz-adv-x="501" 
d="M153 328q117 -100 234 -194q-14 -21 -26 -33q-35 27 -125 98t-139 109v39q221 165 266 199q11 -12 25 -35q-148 -113 -235 -183zM59 -3q0 41 2 45q262 0 387 1q0 -15 -2 -43q-273 0 -387 -3z" />
    <glyph glyph-name="greaterequal" unicode="&#x2265;" horiz-adv-x="501" 
d="M346 322q-229 186 -236 191q15 22 26 34q22 -17 118.5 -91t147.5 -113v-39q-40 -30 -128 -97.5t-137 -104.5q-5 6 -25 33q7 6 111 88t123 99zM59 -3q0 41 2 45q262 0 387 1q0 -15 -2 -43q-252 0 -387 -3z" />
    <glyph glyph-name="lozenge" unicode="&#x25ca;" horiz-adv-x="471" 
d="M449 325l-236 -349h-42l-114 349l237 349h42zM400 324l-89 288q-4 8 -4 15h-2q-2 -4 -10 -16l-188 -285l89 -288q2 -6 4 -17h1q2 5 10 18z" />
    <glyph glyph-name="Euro.fitted" unicode="&#xe000;" horiz-adv-x="555" 
d="M103 381q51 128 141 193q96 71 222 71q80 0 122 -22q-2 -17 -6.5 -55t-8.5 -61q-6 -1 -20 -1.5t-20 -0.5l1 69q0 11 -5 13q-25 16 -88 16q-106 0 -182 -67q-65 -55 -104 -155q44 0 136.5 0.5t134.5 0.5q-2 -18 -8 -37h-275q-7 -26 -12 -71h79h94.5h76.5q-3 -18 -8 -37
h-241q3 -80 38 -131q22 -33 66 -54t95 -21q67 0 178 39q4 -22 4 -38q-130 -44 -195 -44q-102 0 -169 65q-73 70 -71 184h-46q1 16 7 37q7 0 20 -0.5t20 -0.5q3 34 13 72h-41q2 19 6 36h46z" />
    <glyph glyph-name="Euro.oldstyle" unicode="&#xe001;" horiz-adv-x="499" 
d="M71 286q32 98 119 160q78 55 182 55q66 0 105 -17q-2 -18 -6.5 -56t-7.5 -57q-12 -1 -37 -1l2 71q0 9 -5 11q-24 12 -71 12q-80 0 -145 -53q-60 -48 -87 -125q44 0 124 0.5t122 0.5q0 -5 -8 -35h-247q-2 -11 -4 -58h215q-3 -17 -8 -35q-38 0 -103 0.5t-101 0.5
q5 -44 31 -79q17 -23 52 -38.5t78 -15.5q60 0 147 29q4 -22 4 -34q-98 -32 -157 -32q-95 0 -149 49q-50 46 -58 121q-43 0 -58 -1q1 17 8 35h48q0 26 6 58h-46q4 22 7 34h48z" />
    <glyph glyph-name="cent.fitted" unicode="&#xe005;" horiz-adv-x="431" 
d="M58 250q0 87 58.5 171t146.5 104q5 23 17 99q14 4 42 6q-2 -13 -8.5 -47t-9.5 -52q8 1 27 1q25 0 48 -6.5t32 -15.5q-2 -11 -12.5 -24.5t-20.5 -18.5q-37 25 -82 24q-4 -21 -27 -151t-35 -195q59 4 120 39q6 -14 9 -31q-67 -39 -136 -47q-1 -6 -7.5 -43.5t-9.5 -55.5
q-20 -3 -38 -3q16 91 18 100q-53 2 -92.5 41t-39.5 105zM111 255q0 -41 20.5 -73t66.5 -37q51 299 59 342q-62 -15 -104 -85.5t-42 -146.5z" />
    <glyph glyph-name="degree.oldstyle" unicode="&#xe006;" horiz-adv-x="254" 
d="M130 416q-38 0 -65.5 24.5t-27.5 66.5q0 38 30 68t76 30q41 0 66.5 -24.5t25.5 -60.5q0 -46 -30 -75t-75 -29zM135 451q23 0 38 17t15 46q0 25 -12.5 40.5t-35.5 15.5q-24 0 -40 -16.5t-16 -47.5q0 -25 14.5 -40t36.5 -15z" />
    <glyph glyph-name="dollar.fitted" unicode="&#xe007;" horiz-adv-x="460" 
d="M91 445q0 43 26 76.5t57 50.5q46 25 103 28q1 8 8 45t10 55q19 4 41 6q-13 -68 -19 -104q90 0 126 -24q-8 -31 -30 -47q-57 33 -104 36q-30 -166 -41 -228q71 -25 102.5 -56.5t31.5 -81.5q0 -78 -73 -130q-45 -32 -118 -41q-2 -11 -8.5 -45t-9.5 -52q-26 -2 -38 -3
q2 11 9 45.5t10 53.5q-49 -2 -97 8t-73 27q10 31 35 44q64 -44 141 -44q7 44 22 130t20 115q-65 24 -98 55t-33 81zM141 447q0 -34 19 -52.5t72 -41.5q26 146 38 213q-44 0 -76 -22q-53 -36 -53 -97zM352 191q0 39 -21 61t-73 43q-8 -45 -23.5 -132.5t-17.5 -98.5
q53 6 86 31q49 38 49 96z" />
    <glyph glyph-name="florin.fitted" unicode="&#xe00a;" horiz-adv-x="434" 
d="M437 646q32 0 50 -10q-2 -12 -10.5 -26.5t-19.5 -22.5q-3 0 -15.5 3t-28 5t-28.5 2q-45 0 -81 -34q-29 -28 -45.5 -68.5t-34.5 -133.5q28 0 89 0.5t96 0.5q-2 -19 -9 -37q-130 0 -184 -1q-43 -220 -60 -280q-24 -85 -83 -136t-129 -51q-26 0 -47 7q2 10 11 26.5t18 23.5
q27 -8 54 -8q41 0 78.5 37t52.5 104q29 120 57 277h-105q2 12 8 36q17 0 49 0.5t49 0.5q5 0 8 8q18 91 36 133t58 78q73 66 166 66z" />
    <glyph glyph-name="florin.oldstyle" unicode="&#xe00b;" horiz-adv-x="395" 
d="M360 499q29 0 49 -10q-1 -9 -8 -23t-16 -21q-38 10 -62 10q-42 0 -68 -26q-23 -23 -36 -57t-27 -112q100 0 156 1q-1 -14 -7 -35h-154q-29 -180 -44 -228q-19 -70 -68.5 -112t-109.5 -42q-27 0 -45 9q4 28 25 45q27 -9 48 -9q34 0 65 29.5t44 84.5q13 54 40 223h-87
q4 22 7 33q14 0 40.5 0.5t39.5 0.5q5 0 6 6q14 78 28 113t47 65q59 55 137 55z" />
    <glyph glyph-name="numbersign.oldstyle" unicode="&#xe00c;" horiz-adv-x="523" 
d="M286 126h-119q-10 -27 -29.5 -84t-28.5 -84q-19 -3 -41 -1q6 19 26.5 78t30.5 91q-17 0 -54.5 -0.5t-53.5 -0.5q5 29 7 36h114q40 121 48 145h-117q5 27 7 34q43 1 123 1q8 25 49 146q14 3 45 3q-22 -63 -53 -149h120q34 100 50 147q28 2 44 1q-9 -24 -26 -73t-26 -74
h108q-3 -17 -8 -36h-114q-8 -24 -24.5 -72.5t-24.5 -72.5h117q-1 -13 -7 -35h-122q-6 -19 -18 -53t-22 -62.5t-18 -52.5q-14 -1 -41 -1q10 32 58 169zM227 306l-48 -145h120q7 21 47 145h-119z" />
    <glyph glyph-name="bullet.01" unicode="&#xe00d;" horiz-adv-x="1000" 
d="M616 636q1 -30 1.5 -71.5t1 -92.5t0.5 -77q-50 -2 -239 -2v77.5v93.5v70q66 4 236 2zM334 353q2 -33 1.5 -118t0.5 -122q-94 -5 -238 -3q-4 107 1 243q106 3 235 0zM901 353q0 -181 -1 -242q-118 -3 -236 0q-3 126 0 243q42 1 131 0t106 -1zM616 68q3 -190 2 -241
q-157 -2 -238 0q-2 48 1 243q168 0 235 -2z" />
    <glyph glyph-name="bullet.02" unicode="&#xe00e;" horiz-adv-x="1000" 
d="M515 734q73 -143 134 -300q0 -1 -4 -7q-148 -5 -294 -2q43 118 137 309h27zM998 246q0 -20 -1 -30q-182 -97 -299 -144q-1 25 -1 312q200 -79 301 -138zM0 213l1 25q136 72 305 143q3 -121 1 -314q-216 96 -307 146zM351 26l4 10q197 2 296 -1q-60 -163 -129 -305h-32
q-54 100 -139 296z" />
    <glyph glyph-name="bullet.03" unicode="&#xe00f;" horiz-adv-x="1000" 
d="M334 635q2 -39 2 -122.5t1 -115.5q-60 -3 -241 -3q0 39 -0.5 123.5t-0.5 116.5q63 3 239 1zM902 635q0 -98 -2 -240q-93 -2 -239 0q-3 103 1 242q102 2 240 -2zM618 350q2 -136 2 -240q-124 -3 -241 0q-2 52 1 241q169 0 238 -1zM334 67q3 -72 1 -241q-35 -1 -78 -1
t-92 0.5t-68 0.5q-5 122 0 240q102 3 237 1zM903 66q0 -117 -4 -241q-86 -1 -238 1q0 203 1 240q82 2 241 0z" />
    <glyph glyph-name="bullet.04" unicode="&#xe010;" horiz-adv-x="1000" 
d="M15 723q158 3 462 1q7 -230 0 -486q-88 -2 -462 -2v487zM82 651q-5 -235 0 -340q80 -4 334 3q0 65 -6 338q-20 3 -168 1t-160 -2zM163 567q24 1 166 1q2 -48 2 -172q-52 -2 -168 0q-2 89 0 171zM664 567q51 2 167 2q3 -46 3 -174q-107 -4 -170 0v172zM521 226
q167 1 462 -1q3 -182 0 -486q-202 -3 -463 1q-4 254 1 486zM587 154q-6 -188 -2 -340q302 -4 334 -3q0 32 0.5 105t0.5 132.5t-1 100.5q-236 6 -332 5zM668 64q46 2 167 2q3 -57 3 -172q-27 -1 -56 -1t-62.5 0.5t-51.5 0.5v170zM163 62h168q1 -17 1 -174q-112 -2 -169 -1
q-2 112 0 175z" />
    <glyph glyph-name="bullet.05" unicode="&#xe011;" horiz-adv-x="916" 
d="M85 262l7 4q479 0 668 4q2 301 -1 420q34 2 74 0q-1 -193 -1 -486l-8 -5q-119 -1 -219.5 -0.5t-226 0t-220.5 -2.5q-3 -86 0 -421h-68l-7 5q2 109 2 280.5v201.5zM200 408v279q181 2 281 1q1 -46 1 -137.5v-141.5q-46 -1 -282 -1zM270 473q115 0 144 2q-3 133 -4 147
q-117 -2 -144 -3q3 -136 4 -146zM436 -223q-3 131 -3 281q186 0 282 -2v-278q-161 -4 -279 -1zM505 -159l4 -2q12 1 62.5 2t76.5 3q0 102 -2 146q-23 0 -73 -0.5t-72 -1.5q4 -141 4 -147z" />
    <glyph glyph-name="bullet.06" unicode="&#xe012;" horiz-adv-x="1000" 
d="M759 428v-84h233v-68q-142 -2 -233 -2v-83q160 0 233 -2v-65q-68 -1 -233 -1v-82q30 0 113 -0.5t120 -0.5v-67q-72 -1 -236 -1v-234q-12 0 -35.5 0.5t-31.5 0.5q0 29 -1.5 112t-1.5 113q-25 -1 -80 -1v-224q-10 -1 -67 -1v226h-80q-1 -32 -0.5 -114t0.5 -111
q-10 -1 -22 -1t-25.5 0.5t-20.5 0.5q0 27 -0.5 110.5t-0.5 113.5h-78q-1 -41 -2 -126t-1 -98q-33 -2 -67 0q0 173 -1 231q-22 0 -107.5 0.5t-126.5 1.5q-1 21 -1 66q31 0 114.5 1t119.5 2q-1 30 -1 83q-24 1 -113 0.5t-119 -0.5v65q195 3 232 3v85q-31 1 -114 1h-118
q-1 12 -1 67h74h92h67v83q-30 0 -112.5 1t-119.5 1q-1 12 -1 67q35 0 119.5 0.5t115.5 0.5v71.5v90.5v66q11 0 34 0.5t33 0.5q1 -30 1.5 -110.5t0.5 -112.5h82v70v88v63q21 1 66 1q2 -108 2 -222h79q2 63 2 222q10 1 21.5 1t25 -0.5t19.5 -0.5q0 -162 1 -222h80q0 110 2 222
h66v-227q31 -1 116.5 -1.5t119.5 -0.5q2 -42 2 -66q-30 0 -116 -1t-119 -2zM686 433q-134 3 -377 3v-399q204 -5 382 -2q0 99 -2.5 240.5t-2.5 157.5z" />
    <glyph glyph-name="bullet.07" unicode="&#xe013;" horiz-adv-x="1000" 
d="M500 -216l-8 14q261 561 438 904l18 2q4 -216 1 -920q-67 0 -224 -0.5t-225 0.5zM418 -203l-9 -11q-31 -1 -359 -1v889l10 6q214 6 357 0q0 -526 1 -883zM594 -144l5 -8q195 3 277 7q4 215 13 615l-8 1q-169 -347 -287 -615z" />
    <glyph glyph-name="bullet.08" unicode="&#xe014;" horiz-adv-x="1000" 
d="M409 679l9 -8q-1 -355 -1 -886q-79 -2 -357 0l-9 7q-1 107 -1 889q313 0 359 -2zM948 -237h-18q-160 311 -439 905l7 14q68 1 226 0.5t225 -0.5q2 -647 -1 -919zM605 616l-5 -6q112 -271 281 -613l8 1q-2 99 -7.5 325.5t-6.5 289.5q-55 3 -270 3z" />
    <glyph glyph-name="bullet.09" unicode="&#xe015;" horiz-adv-x="1000" 
d="M508 -206l-6 -13h-452q-2 647 1 920l18 -1q167 -325 439 -906zM591 -218l-10 8q1 357 1 890q44 0 179 0.5t180 -0.5l8 -6q1 -216 1 -891q-34 0 -168.5 -1t-190.5 0zM397 -156l5 8q-93 219 -281 613h-9q2 -101 5 -327t4 -288q109 -6 276 -6z" />
    <glyph glyph-name="bullet.10" unicode="&#xe016;" horiz-adv-x="1000" 
d="M502 681l7 -13q-291 -619 -439 -905l-18 -1q-1 78 -1 920q135 -1 451 -1zM582 671l9 9q56 -1 190.5 0t168.5 1q0 -204 -0.5 -500.5t-0.5 -391.5l-9 -7q-291 0 -358 2v887zM401 606l-4 8q-210 3 -272 0q-5 -125 -10 -617l8 -2q207 444 278 611z" />
    <glyph glyph-name="bullet.11" unicode="&#xe017;" horiz-adv-x="860" 
d="M235 -315l-6 4q24 69 69 180q-140 0 -201 1q0 94 -0.5 251t-0.5 266t1 185q312 3 665 2q3 -263 3 -702q-34 -1 -200 -1q5 -13 30 -80.5t36 -99.5l-6 -7q-221 -2 -390 1zM431 219l9 1q16 -42 51 -137.5t52 -139.5q75 0 145 3q4 207 4 558q-299 -2 -520 -6q-4 -540 -4 -555
q23 0 77.5 -1t80.5 -1q87 232 105 278z" />
    <glyph glyph-name="bullet.12" unicode="&#xe018;" horiz-adv-x="860" 
d="M658 754l4 -7q-22 -78 -50 -183h148q2 -450 -1 -687q-329 -4 -658 -1q0 622 1 687q49 1 143 1q-12 34 -32 96.5t-29 88.5l5 5q310 2 469 0zM424 183l10 -1q89 311 138 502q-109 6 -288 4l-4 -6q131 -458 144 -499z" />
    <glyph glyph-name="bullet.13" unicode="&#xe019;" horiz-adv-x="1000" 
d="M89 23l-6 5q-2 259 0 389l4 6q26 -11 86 -35t81 -33q0 149 1 219q88 0 231 0.5t246 0.5t185 -1q2 -199 2 -703q-302 -3 -663 -2v219q-95 -38 -167 -65zM583 222l1 -9q-114 -48 -256 -102q0 -79 3 -165q190 -4 517 -4q-5 511 -6 558q-63 0 -235 2t-279 2q0 -29 -0.5 -89.5
t-0.5 -88.5q72 -28 256 -104z" />
    <glyph glyph-name="bullet.14" unicode="&#xe01a;" horiz-adv-x="1000" 
d="M911 -7l-7 -3q-65 21 -164 48q1 -2 0.5 -79t-0.5 -79q-491 0 -650 2q-3 482 -1 680h650q1 -55 1 -152q13 5 73 26t92 32l6 -5v-470zM361 228v-10q270 -80 482 -139q4 170 1 289l-6 5q-47 -15 -219.5 -66t-257.5 -79z" />
    <glyph glyph-name="bullet.15" unicode="&#xe01b;" horiz-adv-x="1000" 
d="M0 56v676h1000v-670l-7 1q-35 44 -148 167l-7 -1q-55 -55 -150 -163l-5 -1q-67 96 -161 215h-6q-1 -1 -172 -207l-8 -1q-89 107 -154 176l-10 -1q-73 -83 -165 -191h-7zM0 -268v155q781 -3 1000 1v-156h-1000z" />
    <glyph glyph-name="bullet.16" unicode="&#xe01c;" horiz-adv-x="394" 
d="M207 395h-21q-62 103 -168 297l5 8q309 0 344 -1q-66 -139 -160 -304zM194 334q40 0 66 -29t26 -70q0 -45 -25 -75t-66 -30q-42 0 -70.5 28t-28.5 70q0 46 28.5 76t69.5 30zM184 71l19 -1q58 -94 169 -297l-5 -8q-231 -2 -344 1q85 172 161 305z" />
    <glyph glyph-name="bullet.17" unicode="&#xe01d;" horiz-adv-x="1000" 
d="M660 218l1 21q93 57 289 170l7 -5q2 -262 0 -348q-158 81 -297 162zM339 241l1 -19q-149 -91 -290 -171l-8 5q-2 235 1 348q160 -83 296 -163zM590 230q0 -42 -24 -69t-61 -27q-45 0 -70 27t-25 67q0 41 25.5 71t63.5 30q39 0 65 -28t26 -71z" />
    <glyph glyph-name="bullet.18" unicode="&#xe01e;" horiz-adv-x="574" 
d="M0 315v33q160 2 251 1q64 -43 114.5 -88.5t112.5 -111.5q67 0 96 1v-33q-151 -2 -251 -1q-41 23 -122.5 94t-111.5 106q-12 0 -43 -0.5t-46 -0.5z" />
    <glyph glyph-name="bullet.19" unicode="&#xe01f;" horiz-adv-x="574" 
d="M574 348v-33q-56 2 -89 2q-30 -35 -111.5 -106.5t-122.5 -94.5q-99 -1 -251 1v32h96q62 66 112.5 111.5t114.5 88.5q91 1 251 -1z" />
    <glyph glyph-name="bullet.20" unicode="&#xe020;" horiz-adv-x="982" 
d="M48 93l4 3q119 -74 146 -93l-1 -3q-25 -1 -78.5 -0.5t-75.5 0.5q-6 48 5 93zM144 385h3q28 -87 39 -124q-50 -11 -107 -18q4 28 23.5 73t41.5 69zM409 538l3 -3q-22 -72 -39 -117q-62 29 -117 59q20 21 67.5 40.5t85.5 20.5zM717 473l-2 -4q-34 -19 -103 -52
q-20 48 -47 119q42 -3 85.5 -22t66.5 -41zM833 378l3 3q29 -34 46.5 -79.5t22.5 -77.5q-16 4 -35 9.5t-40 12.5t-33 10q22 80 36 122zM902 157q-71 -47 -177 -107h-5q-12 107 -73 178q-54 62 -152 62q-59 0 -99.5 -16.5t-74.5 -56.5q-60 -71 -69 -177l-5 1q-111 78 -184 133
l1 3q188 34 203 37v2q-27 78 -69 206l2 5q62 -27 203 -96h1q48 132 79 209h6q43 -93 90 -210h2q78 40 195 97l4 -5q-37 -122 -63 -207v-1q145 -41 185 -53v-4zM937 4l-3 -4h-163v4q29 16 86 47.5t70 38.5q7 -20 10 -86zM322 0l-3 6q0 46 14.5 88t35.5 66q25 27 51.5 41.5
t70.5 14.5q81 0 122 -65q36 -60 39 -149q-33 -2 -178 -2h-152z" />
    <glyph glyph-name="bullet.21" unicode="&#xe021;" horiz-adv-x="886" 
d="M825 96q3 -25 -1.5 -56t-12.5 -39q-73 -1 -301 -1q-349 2 -440 3q-15 23 -15 93q60 -15 301 -22l1 2q-185 175 -268 286q2 22 16.5 46t30.5 32q37 -57 131.5 -164.5t133.5 -139.5h2q-1 96 -12 465q14 11 42 18.5t50 3.5q-2 -56 -5 -243t-1 -251l2 -1q52 55 130.5 154
t114.5 157q11 1 30 -24t23 -51q-32 -51 -109.5 -138.5t-140.5 -149.5l1 -2q65 1 174 8.5t123 13.5z" />
    <glyph glyph-name="bullet.22" unicode="&#xe022;" horiz-adv-x="1000" 
d="M500 484l5 6q241 4 491 2l3 -4q-76 -178 -232 -514h-6q-172 321 -261 510zM256 490l6 1q148 -328 228 -514l-3 -4q-277 -3 -489 0l-5 5q121 249 263 512zM592 434l-3 -3q7 -13 72.5 -140.5t95.5 -183.5h4q93 191 153 324l-2 3q-120 6 -320 0zM251 356h-4
q-45 -87 -164 -323l3 -3q101 -3 316 1l1 3q-51 118 -152 322z" />
    <glyph glyph-name="bullet.23" unicode="&#xe023;" horiz-adv-x="1000" 
d="M762 84h-9q-106 169 -244 411l5 9q112 4 475 1l4 -10q-132 -248 -231 -411zM490 -33l-5 -10q-125 -2 -472 1l-6 10q113 204 241 408l8 1q104 -171 234 -410z" />
    <glyph glyph-name="bullet.24" unicode="&#xe024;" horiz-adv-x="672" 
d="M501 -48l-12 1q-166 227 -331 439q-106 -137 -158 -205v99q90 124 155 215l12 -1q291 -386 329 -436h9q83 108 167 222v-99q-15 -21 -74.5 -103t-96.5 -132zM508 271h-10q-86 127 -143 213l2 12q83 1 292 1l4 -12q-57 -87 -145 -214zM306 -27l-3 -11q-148 -2 -292 0
l-3 11q64 101 140 214l11 1q69 -98 147 -215z" />
    <glyph glyph-name="bullet.25" unicode="&#xe025;" horiz-adv-x="1000" 
d="M743 -24l-6 -5q-481 3 -491 3l-6 3q-1 243 1 741l6 2q572 -268 694 -327l1 -8q-127 -267 -199 -409zM705 30l5 2q63 137 147 332l-2 7q-225 105 -550 247l-4 -4q0 -5 3 -578q58 0 125 -1t148 -2.5t128 -2.5zM673 121l-3 -3q-138 19 -320 51l-2 4q111 154 214 280l3 1
q58 -166 108 -333zM421 199q87 -16 193 -28l1 2q-36 102 -71 186h-3q-109 -141 -121 -157z" />
    <glyph glyph-name="bullet.26" unicode="&#xe026;" horiz-adv-x="1000" 
d="M16 -27l-2 6q233 503 327 694l8 1q254 -121 407 -199l5 -6q-3 -481 -3 -491l-3 -6q-242 -1 -739 1zM116 37l4 -4q4 0 577 3q0 65 2 198.5t3 202.5l-2 5q-141 65 -330 147l-7 -2q-127 -272 -247 -550zM553 79q-82 59 -281 222l-1 3q207 75 327 117l3 -3q-22 -193 -43 -337
zM366 284v-3q109 -89 159 -129l3 1q13 105 20 208l-2 1q-32 -13 -180 -78z" />
    <glyph glyph-name="bullet.27" unicode="&#xe027;" horiz-adv-x="1000" 
d="M244 -11l-5 6q3 482 3 491l3 6q243 1 739 -1l2 -6q-226 -487 -327 -694l-8 -1q-284 137 -407 199zM298 27l2 -5q141 -65 330 -147l7 2q127 273 247 550l-4 4q-4 0 -577 -3q0 -65 -2 -198t-3 -203zM402 47l-3 3q18 159 43 333l5 2q131 -93 279 -222l1 -3
q-146 -54 -325 -113zM632 180v3q-85 74 -156 129l-3 -1q-11 -81 -22 -205l2 -1q116 45 179 75z" />
    <glyph glyph-name="bullet.28" unicode="&#xe028;" horiz-adv-x="1000" 
d="M257 488l6 5q482 -3 491 -3l6 -3q1 -243 -1 -741l-6 -2q-557 260 -694 327l-1 8q137 286 199 409zM295 433l-5 -2q-62 -133 -147 -331l2 -7q218 -101 550 -247l4 4q0 5 -3 578q-65 0 -198 2t-203 3zM324 342l3 3q91 -11 324 -49l2 -6q-43 -61 -219 -282l-3 -1
q-76 228 -107 335zM448 99h3q82 102 130 163l-1 3q-77 13 -197 28l-1 -2q46 -139 66 -192z" />
    <glyph glyph-name="bullet.29" unicode="&#xe029;" horiz-adv-x="1000" 
d="M775 566l-1 -13q-13 -15 -213 -258q117 -119 252 -241h9q38 48 107.5 139t70.5 93v-99q-166 -225 -171 -232l-15 1q-41 40 -349 331q148 175 218 264q-45 35 -132 101t-105 80h99q47 -34 123.5 -89t106.5 -77zM479 525v-13q-62 -70 -194 -232l1 -12q165 -159 325 -305
h-99q-51 48 -146 134.5t-133 121.5q-2 52 0 105q145 173 149 179l-1 9q-22 19 -148 123q-2 42 0 83q164 -130 246 -193zM711 310q69 86 98 120q31 -27 99 -91q-72 -92 -99 -125q-68 66 -98 96z" />
    <glyph glyph-name="bullet.30" unicode="&#xe02a;" horiz-adv-x="1000" 
d="M446 732h99q-170 -135 -228 -181q91 -114 218 -264q-293 -277 -349 -331l-15 -1q-30 40 -85.5 116t-85.5 116v99q24 -31 84 -110t94 -122h9q135 121 252 241q-148 182 -213 258l-1 13q21 15 98 73t123 93zM714 268l1 12q-132 162 -194 232v13q78 60 246 194q1 -41 0 -83
q-14 -12 -67 -56t-81 -68l-1 -9q4 -6 149 -179q2 -53 0 -105q-38 -35 -133 -121.5t-146 -134.5h-99q164 148 325 305zM289 310q-30 -30 -98 -96q-16 21 -49 62.5t-50 62.5q68 64 99 91q41 -48 98 -120z" />
    <glyph glyph-name="bullet.31" unicode="&#xe02b;" horiz-adv-x="1000" 
d="M545 -268h-99q10 8 237 181q-70 89 -218 264q37 36 159 151t190 180l15 1q74 -95 171 -223v-99q-154 194 -178 224h-9q-125 -114 -252 -242q24 -29 96 -117t117 -141l1 -13q-136 -97 -230 -166zM286 196l-1 -12q159 -193 194 -232v-13q-82 -62 -246 -194q-1 41 0 83
q14 12 67 56t81 68l1 9q-4 6 -149 179q-2 53 0 105q38 35 133 121.5t146 134.5h99q-162 -147 -325 -305zM711 154q41 43 98 96q59 -73 99 -125q-35 -33 -99 -91q-16 20 -48.5 60t-49.5 60z" />
    <glyph glyph-name="bullet.32" unicode="&#xe02c;" horiz-adv-x="1000" 
d="M545 -268h-99q-71 55 -221 166l1 13q32 38 213 258q-125 128 -252 242h-9q-4 -5 -178 -224v99q113 149 171 223l15 -1q66 -63 184 -175t165 -156q-127 -150 -218 -264q119 -93 228 -181zM715 184l-1 12q-160 157 -325 305h99q51 -48 146 -134.5t133 -121.5q2 -52 0 -105
q-145 -173 -149 -179l1 -9q28 -24 81 -68t67 -56q1 -41 0 -83q-151 123 -246 194v13q35 39 194 232zM289 154q-64 -80 -98 -120q-64 58 -99 91q19 25 53.5 68t45.5 57q57 -53 98 -96z" />
    <glyph glyph-name="bullet.33" unicode="&#xe02d;" horiz-adv-x="1000" 
d="M889 353l1 -15q-67 -133 -212 -379q-49 0 -138.5 -1t-164.5 -1t-147 2q-5 441 0 744l11 4q361 -181 650 -354zM552 467l-7 2q-131 -142 -253 -298l2 -7q165 -48 352 -91l4 5q-41 184 -98 389z" />
    <glyph glyph-name="bullet.34" unicode="&#xe02e;" horiz-adv-x="1000" 
d="M379 621l15 1q154 -78 379 -212q0 -49 1 -138.5t1 -164.5t-2 -147q-440 -5 -744 0l-4 11q186 367 354 650zM258 299l-2 -7q123 -125 282 -267l7 2q48 165 94 370l-6 5q-194 -49 -375 -103z" />
    <glyph glyph-name="bullet.35" unicode="&#xe02f;" horiz-adv-x="1000" 
d="M621 -157l-15 -1q-117 60 -379 212q0 49 -1 138.5t-1 164.5t2 147q441 5 744 0l4 -11q-177 -351 -354 -650zM735 180l2 7q-153 140 -298 253l-7 -2q-29 -143 -62 -368l6 -4q134 38 359 114z" />
    <glyph glyph-name="bullet.36" unicode="&#xe030;" horiz-adv-x="1000" 
d="M111 111l-1 15q74 143 212 379q49 0 138.5 1t164.5 1t147 -2q5 -440 0 -744l-11 -4q-356 181 -650 354zM433 -10l7 -2q118 116 268 281l-2 6q-127 43 -361 107l-4 -5q35 -162 92 -387z" />
    <glyph glyph-name="sterling.fitted" unicode="&#xe031;" horiz-adv-x="515" 
d="M-10 35l67 3q13 0 18 7q63 56 84 176q4 23 7 63h-105q6 20 8 35q16 0 48 0.5t48 0.5q5 0 5 6q6 101 11 126q15 92 70 141q59 53 154 53q53 0 85 -15q-4 -64 -11 -132q-6 0 -18.5 -1.5t-19.5 -2.5l-2 91q-1 10 -8 14q-16 9 -50 9q-58 0 -96 -35q-36 -32 -52 -109
q-7 -36 -13 -145q27 0 88 0.5t99 0.5q-1 -13 -8 -36q-130 0 -181 -1q-1 -4 -2.5 -18t-3.5 -24q-19 -114 -85 -196q-8 -10 8 -10q196 0 238 6q12 5 22 21l49 98q9 -1 34 -9q-11 -31 -60 -153q-21 0 -139 0.5t-189 0.5q-18 0 -53 -0.5t-54 -0.5q1 7 3.5 19.5t3.5 16.5z" />
    <glyph glyph-name="sterling.oldstyle" unicode="&#xe032;" horiz-adv-x="481" 
d="M8 32l57 3q9 0 14 5q46 43 61 129q5 25 5 44h-88q1 5 3.5 16t4.5 16q26 1 79 1q4 0 4 5q1 14 2 35.5t2 35.5t3 23q12 66 58 110q50 44 134 44q45 0 81 -16q-3 -43 -8 -105q-6 0 -17.5 -1t-17.5 -2l-1 70q0 6 -6 10q-13 10 -48 10q-52 0 -81 -26q-34 -30 -45 -84
q-5 -25 -9 -109q24 0 78 0.5t89 0.5q-2 -17 -8 -33h-161q-2 -20 -4 -28q-12 -79 -61 -145q-7 -7 5 -7q155 0 207 5q7 1 16 15l38 78q19 -3 32 -9q-19 -54 -47 -123h-280h-98q2 6 7 32z" />
    <glyph glyph-name="yen.fitted" unicode="&#xe033;" horiz-adv-x="521" 
d="M249 38l98 -3q-1 -17 -8 -36q-16 0 -55.5 0.5t-59.5 0.5q-18 0 -57 -0.5t-58 -0.5q4 24 7 36l83 2q7 2 8 6l16 102h-157q2 19 6 33q105 0 157 1l11 70h-160q1 3 2 9.5t2.5 12.5l2.5 10h145q-37 105 -109 311q-3 5 -6 5l-54 2q4 24 7 36q11 0 37.5 -0.5t39.5 -0.5
q24 0 65.5 0.5t58.5 0.5q-1 -13 -7 -36l-91 -3q16 -50 48.5 -150.5t48.5 -150.5h5q68 101 193 296q1 1 -0.5 3.5t-2.5 2.5l-85 2q1 6 3.5 18t3.5 17h117q12 0 39.5 0.5t38.5 0.5q-1 -14 -7 -35l-51 -4q-151 -222 -218 -315q24 0 72 0.5t71 0.5q-2 -18 -7 -33h-157l-12 -70
h157q-5 -27 -8 -33h-155z" />
    <glyph glyph-name="yen.oldstyle" unicode="&#xe034;" horiz-adv-x="445" 
d="M168 39l12 70h-131q1 8 5 31h130l8 48h-132q1 11 5 31h119q-13 31 -46.5 110t-51.5 121q-1 3 -5 3l-46 2q1 15 5 34h64h102q-5 -25 -7 -34l-68 -2q22 -56 88 -219h4q69 90 157 215q2 4 -3 4l-63 2q5 31 6 34h95h63q-2 -17 -6 -33l-42 -3q-79 -109 -178 -234q18 0 57 0.5
t60 0.5q0 -7 -5 -32h-40h-51h-40l-9 -48q20 0 64 0.5t66 0.5q-2 -18 -6 -32h-39h-49.5h-40.5l-13 -74l81 -1q-1 -15 -7 -34h-97q-16 0 -48 -0.5t-49 -0.5q5 25 7 34l69 2q5 0 6 4z" />
    <glyph glyph-name="uniF634" unicode="&#xf634;" horiz-adv-x="437" 
d="M248 -108q0 -38 -29 -74.5t-71 -58.5q-12 13 -19 25q62 39 62 77q0 14 -8 20.5t-25 10.5q0 21 13.5 36t32.5 15q18 0 31 -14.5t13 -36.5z" />
    <glyph glyph-name="space_uni0326" unicode="&#xf6c3;" horiz-adv-x="437" 
d="M208 -111q0 -36 -27 -68t-68 -53q-12 13 -17 24q58 35 58 65q0 24 -32 32q0 22 13.5 38t31.5 16q16 0 28.5 -15.5t12.5 -38.5z" />
    <glyph glyph-name="acute.cap" unicode="&#xf6c9;" horiz-adv-x="437" 
d="M402 833q17 -26 26 -46q-29 -14 -90.5 -45t-80.5 -40q-9 14 -15 28q27 17 87.5 56t72.5 47z" />
    <glyph glyph-name="caron.cap" unicode="&#xf6ca;" horiz-adv-x="437" 
d="M323 759q77 48 117 74q9 -9 18 -25q-95 -70 -127 -94q-20 0 -30 1l-93 93q9 12 23 24q40 -30 92 -73z" />
    <glyph glyph-name="dieresis.cap" unicode="&#xf6cb;" horiz-adv-x="437" 
d="M247 798q34 0 34 -37q0 -16 -11 -27.5t-27 -11.5t-26 9.5t-10 23.5q0 17 10.5 30t29.5 13zM402 798q17 0 25.5 -10.5t8.5 -25.5q0 -17 -10 -28.5t-26 -11.5q-18 0 -28 10t-10 23q0 17 10 30t30 13z" />
    <glyph glyph-name="grave.cap" unicode="&#xf6ce;" horiz-adv-x="437" 
d="M381 702q-39 20 -169 87q13 24 29 45q4 -3 66.5 -45.5t90.5 -60.5q-6 -13 -17 -26z" />
    <glyph glyph-name="hungarumlaut.cap" unicode="&#xf6cf;" horiz-adv-x="437" 
d="M361 846q14 -18 26 -43q-20 -11 -74.5 -40.5t-85.5 -46.5q-3 5 -8.5 15t-8.5 15q112 73 151 100zM505 844q12 -16 25 -44q-48 -25 -158 -84l-18 30q104 67 151 98z" />
    <glyph glyph-name="macron.cap" unicode="&#xf6d0;" horiz-adv-x="437" 
d="M440 781q-4 -25 -9 -44q-136 0 -199 1q2 13 8 41q33 1 99.5 1.5t100.5 0.5z" />
    <glyph glyph-name="R_p" unicode="&#xf6dd;" horiz-adv-x="958" 
d="M332 302v-5q8 -3 14.5 -7t13 -11t11 -12.5t10 -17t9 -18.5t9.5 -23t9 -24.5t10 -29.5t11 -31q19 -54 29 -69t23 -15l78 -2q8 41 22.5 112t26 126.5t20.5 100.5l-73 -7v10.5v12v9.5q29 5 53 11t34.5 9t12.5 3q4 0 11.5 -6t9.5 -11q-4 -21 -30 -133l9 -2q111 151 204 152
q14 -3 31.5 -16.5t25.5 -32.5q7 -15 7 -36q0 -139 -67 -247q-62 -102 -160 -102q-52 0 -90 41q-7 -33 -25.5 -125t-27.5 -137q-16 -1 -48 -1q25 129 47 233q-13 0 -40.5 -0.5t-39.5 -0.5q-8 0 -18.5 -0.5t-25.5 -0.5q-16 25 -49.5 116.5t-42.5 110.5q-16 31 -38.5 45
t-61.5 14h-22.5t-17 -0.5t-11 -0.5h-6.5h-2l-43 -245l90 -3q-1 -17 -6 -37q-32 1 -112 1q-71 0 -101 -1q2 9 7 36l67 4q7 0 7 5l95 563l-74 2q1 12 5 36q18 0 63.5 0.5t68.5 0.5q107 0 156 -17q49 -16 74 -53.5t25 -81.5q0 -66 -48.5 -119t-118.5 -73zM232 606l-49 -283
q4 -2 53 -2q96 0 151.5 50.5t55.5 114.5q0 59 -39.5 91.5t-109.5 32.5q-46 0 -62 -4zM872 329q0 21 -9.5 35.5t-23.5 14.5q-47 0 -117 -73t-86 -127q-2 -7 -6.5 -26.5t-9 -43t-6.5 -31.5q14 -22 38.5 -36t47.5 -14q42 0 75.5 28.5t52.5 67.5q44 92 44 205z" />
    <glyph glyph-name="cent.inferior" unicode="&#xf6df;" 
d="M35 15q0 51 37.5 94.5t91.5 49.5q9 42 11 55q20 4 32 4q-4 -23 -11 -58h11q36 0 54 -16q-1 -7 -8 -16.5t-13 -13.5q-23 15 -49 16q-20 -112 -31 -168q38 4 74 25q2 -3 4.5 -11.5t3.5 -11.5q-39 -25 -86 -30q-3 -18 -11 -56q-20 -2 -31 -2q3 16 10 58q-40 1 -64.5 22
t-24.5 59zM78 20q0 -53 52 -56q20 110 29 166q-32 -5 -56.5 -37.5t-24.5 -72.5z" />
    <glyph glyph-name="cent.superior" unicode="&#xf6e0;" 
d="M84 562q0 52 37.5 95t91.5 49q4 19 10 55q20 4 32 4q-7 -43 -10 -59h10q37 0 55 -15q-2 -7 -8.5 -17t-12.5 -13q-25 15 -50 16l-30 -168q39 4 73 25q4 -9 8 -23q-39 -25 -86 -30q-2 -15 -11 -56q-20 -2 -30 -2q3 16 10 58q-40 1 -64.5 21.5t-24.5 59.5zM126 567
q0 -53 53 -56q5 27 14.5 82t14.5 83q-32 -5 -57 -37t-25 -72z" />
    <glyph glyph-name="comma.inferior" unicode="&#xf6e1;" horiz-adv-x="145" 
d="M95 -90q0 -34 -25.5 -65.5t-61.5 -50.5q-6 7 -16 21q53 31 53 67q0 21 -31 27q0 20 13 34t29 14q15 0 27 -13.5t12 -33.5z" />
    <glyph glyph-name="comma.superior" unicode="&#xf6e2;" horiz-adv-x="145" 
d="M143 457q0 -35 -25.5 -66t-61.5 -50q-2 2 -5 6.5t-5.5 8t-4.5 6.5q53 32 53 67q0 20 -31 27q-1 20 12 34t29 14q15 0 27 -13.5t12 -33.5z" />
    <glyph glyph-name="dollar.inferior" unicode="&#xf6e3;" 
d="M107 -66l19 109q-72 24 -72 73q0 34 31 58q28 20 74 22l9 53q16 3 33 3l-11 -56q43 0 70 -15q-5 -24 -18 -33q-23 18 -57 21l-18 -100q73 -20 73 -74q0 -41 -36 -66q-30 -22 -72 -24l-9 -50q-10 -1 -30 -1l10 52q-54 0 -89 21q5 25 21 34q30 -24 72 -27zM138 77l16 92
q-30 -2 -45 -15q-17 -15 -17 -36q0 -15 10.5 -24t35.5 -17zM156 35l-18 -100q31 0 48 17q16 16 16 40q0 31 -46 43z" />
    <glyph glyph-name="dollar.superior" unicode="&#xf6e4;" 
d="M156 481l19 109q-73 22 -73 73q0 35 32 58q27 20 73 22l10 53q15 3 32 3l-10 -56q42 0 69 -15q-5 -24 -18 -33q-23 18 -57 21l-17 -100q73 -21 73 -74q0 -40 -36 -66q-31 -22 -72 -24l-10 -50q-9 -1 -30 -1l10 52q-54 0 -89 21q5 25 21 34q33 -24 73 -27zM186 624l16 92
q-30 -2 -45 -15q-17 -15 -17 -36q0 -15 11 -24t35 -17zM205 582l-19 -101q32 1 48 18q16 16 16 39q0 30 -45 44z" />
    <glyph glyph-name="hyphen.inferior" unicode="&#xf6e5;" horiz-adv-x="230" 
d="M96 23h-77q2 19 6 36h74q15 0 42 0.5t42 1.5q-2 -22 -6 -38h-81z" />
    <glyph glyph-name="hyphen.superior" unicode="&#xf6e6;" horiz-adv-x="230" 
d="M145 570h-78q1 5 2 11t2 13.5t2 11.5h74q15 0 42.5 0.5t42.5 1.5q-3 -23 -6 -38h-81z" />
    <glyph glyph-name="period.inferior" unicode="&#xf6e7;" horiz-adv-x="145" 
d="M49 -39q34 0 34 -37q0 -15 -10.5 -25.5t-25.5 -10.5q-17 0 -26 9.5t-9 24.5t10 27t27 12z" />
    <glyph glyph-name="period.superior" unicode="&#xf6e8;" horiz-adv-x="145" 
d="M98 508q34 0 34 -37q0 -15 -10.5 -25.5t-25.5 -10.5q-35 0 -35 34q0 15 10 27t27 12z" />
    <glyph glyph-name="b.superior" unicode="&#xf6ea;" horiz-adv-x="352" 
d="M60 336q8 28 119 472l-64 -5q-1 10 -3 26q27 5 51 9.5t34.5 7t12.5 2.5q10 0 17 -13q-74 -277 -79 -292l4 -1q79 105 152 105q32 -7 47 -36q5 -13 5 -31q0 -91 -48 -171q-20 -34 -53 -56.5t-74 -22.5q-39 0 -73 36l-14 -37q-2 0 -14.5 3t-19.5 4zM185 361q56 0 93 69
q35 66 35 142q0 37 -28 37q-33 0 -86 -53t-65 -91q-2 -5 -8 -29t-8 -30q8 -18 28 -31.5t39 -13.5z" />
    <glyph glyph-name="d.superior" unicode="&#xf6eb;" horiz-adv-x="355" 
d="M267 426l-3 2q-39 -47 -79.5 -72.5t-67.5 -25.5q-36 4 -54 32q-6 10 -6 29q0 49 24 114q23 58 61 100t90 42q39 0 74 -25l5 -1q33 143 43 186l-67 -4q0 10 -2 26q22 3 46 8t38 8.5t17 3.5q4 0 16 -12q-91 -370 -114 -473q-2 -3 2 -3q16 0 49 12q6 -23 6 -25
q-51 -17 -81 -17q-2 0 -9.5 5t-9.5 10q11 35 22 80zM129 365q31 0 86.5 51t62.5 82q2 5 21 82q-26 33 -71 33q-32 0 -58.5 -29t-44.5 -72q-26 -72 -26 -115q0 -32 30 -32z" />
    <glyph glyph-name="e.superior" unicode="&#xf6ec;" horiz-adv-x="316" 
d="M241 647q35 0 56 -22.5t21 -51.5q-6 -43 -39 -65q-62 -27 -156 -27q-11 -35 -11 -62q0 -56 50 -56q40 0 117 42q3 -5 10 -25q-77 -50 -138 -50q-33 0 -58 20.5t-25 63.5q0 33 17.5 84t49.5 90q50 59 106 59zM232 614q-36 0 -63 -34q-19 -22 -38 -71q70 0 110 20
q34 16 34 42q0 43 -43 43z" />
    <glyph glyph-name="i.superior" unicode="&#xf6ed;" horiz-adv-x="189" 
d="M178 784q15 0 23 -10t8 -23q0 -11 -10.5 -21.5t-22.5 -10.5q-14 0 -24 9.5t-10 22.5t9.5 23t26.5 10zM140 608l-66 -6q0 5 -0.5 14t-0.5 13q26 4 48.5 8.5t33.5 7t12 2.5q8 0 18 -16q-37 -149 -67 -267q-2 -4 3 -4q16 0 58 13q5 -14 6 -26q-46 -17 -82 -17q-4 0 -14 7
t-13 13q53 216 64 258z" />
    <glyph glyph-name="l.superior" unicode="&#xf6ee;" horiz-adv-x="184" 
d="M175 805l-71 -4q-2 20 -2 27q26 3 50.5 8t38 8.5t14.5 3.5q7 0 18 -13q-55 -215 -115 -470q-2 -5 3 -5q21 0 66 12q3 -14 3 -27q-48 -15 -94 -15q-3 0 -11 6t-11 13q10 40 55.5 227.5t55.5 228.5z" />
    <glyph glyph-name="m.superior" unicode="&#xf6ef;" horiz-adv-x="544" 
d="M135 609l-61 -7q-2 16 -2 26q24 4 44.5 9t29.5 7.5t11 2.5q8 0 19 -15q-1 -5 -7 -30t-11 -43l4 -2q75 90 136 90q28 -4 41 -30q5 -8 5 -21q0 -11 -7 -42l4 -2q73 93 138 93q32 -5 46 -35q5 -8 5 -20q0 -49 -57 -225q-5 -5 3 -5q11 0 53 13q4 -19 5 -26q-57 -16 -87 -16
q-4 0 -10 6t-9 13q23 60 43 145q16 56 16 85q0 27 -25 27q-30 0 -79.5 -46t-57.5 -79q-35 -136 -37 -145h-40q25 86 44 175q13 57 13 73q0 9 -6 16.5t-15 7.5q-32 0 -80.5 -45t-57.5 -78q-2 -8 -17 -70.5t-20 -78.5h-40q15 58 66 272z" />
    <glyph glyph-name="r.superior" unicode="&#xf6f1;" horiz-adv-x="265" 
d="M146 544l4 -2q31 45 64.5 75t53.5 30q17 0 37 -10q0 -10 -8.5 -24.5t-14.5 -17.5q-1 0 -6.5 2t-11 3t-9.5 1q-23 0 -67 -51t-57 -98q-1 -3 -12 -50.5t-15 -64.5h-39q41 175 63 273l-59 -7q0 4 -0.5 13t-1.5 13q18 3 38.5 7.5t33 7.5t14.5 3q3 0 8.5 -5.5t6.5 -9.5
q-13 -57 -22 -88z" />
    <glyph glyph-name="s.superior" unicode="&#xf6f2;" horiz-adv-x="287" 
d="M255 549l-3 51q0 4 -4 8q-18 10 -38 10q-28 0 -44 -9q-31 -14 -31 -47q0 -19 11 -29.5t39 -23.5q40 -18 59 -37t19 -49q0 -51 -49 -78q-30 -15 -86 -15q-50 0 -70 12q1 15 2.5 44.5t2.5 43.5q8 1 29 1l4 -56q0 -5 5 -7q16 -10 44 -10q31 0 51 12q26 17 26 48
q0 21 -13.5 33t-42.5 25q-37 17 -54 33.5t-17 46.5q0 25 15 45t35 30q33 16 79 16q44 0 67 -16q-6 -54 -8 -81q-4 0 -13.5 -0.5t-14.5 -0.5z" />
    <glyph glyph-name="t.superior" unicode="&#xf6f3;" horiz-adv-x="266" 
d="M123 393q0 -32 36 -32q31 0 85 17q2 -9 4 -27q-57 -21 -106 -21q-18 0 -36 11.5t-24 31.5q-2 8 -2 12q0 10 6 39.5t13.5 63t8.5 37.5q3 12 10 41.5t10 40.5h-58q4 20 6 29q36 2 53 2q5 0 6 5q2 7 19 68q25 10 37 10q2 0 2 -3q-10 -45 -18 -79h122q-3 -19 -7 -32h-122
q-21 -88 -22 -93q-23 -108 -23 -121z" />
    <glyph glyph-name="breve.sc" unicode="&#xf6f4;" horiz-adv-x="437" 
d="M283 554q-39 0 -63 27t-29 62q15 8 32 11q20 -56 66 -56q53 0 79 53q19 -4 33 -8q-11 -35 -41.5 -62t-76.5 -27z" />
    <glyph glyph-name="caron.sc" unicode="&#xf6f5;" horiz-adv-x="437" 
d="M250 612q20 16 58 48t50 41q4 -3 7.5 -7t8 -8.5l6.5 -6.5q-21 -20 -66.5 -65t-52.5 -51q-22 0 -33 1q-10 16 -37 57.5t-42 63.5q18 12 26 17q11 -13 37.5 -45t37.5 -45z" />
    <glyph glyph-name="circumflex.sc" unicode="&#xf6f6;" horiz-adv-x="437" 
d="M291 632q-15 -12 -51.5 -43t-51.5 -43l-21 24q28 27 115 111h31q13 -18 41.5 -61.5t33.5 -50.5q-3 -3 -26 -21q-62 74 -71 84z" />
    <glyph glyph-name="dotaccent.sc" unicode="&#xf6f7;" horiz-adv-x="437" 
d="M282 655q17 0 27.5 -13.5t10.5 -28.5q0 -14 -13 -27.5t-29 -13.5q-17 0 -30 12.5t-13 28.5q0 15 13 28.5t34 13.5z" />
    <glyph glyph-name="hungarumlaut.sc" unicode="&#xf6f8;" horiz-adv-x="437" 
d="M353 684q12 -13 27 -43q-24 -12 -77.5 -39.5t-82.5 -42.5q-4 5 -10 15.5t-8 13.5q22 14 74.5 47t76.5 49zM506 679q8 -12 23 -42q-18 -10 -73.5 -38.5t-86.5 -45.5q-16 29 -17 31q93 58 154 95z" />
    <glyph glyph-name="lslash.sc" unicode="&#xf6f9;" horiz-adv-x="437" 
d="M85 37l27 165q-11 -5 -33.5 -16.5t-35.5 -17.5q-10 15 -13 29q16 8 46.5 22t42.5 20l37 215l-62 3q2 18 6 32h90h98q-6 -27 -7 -33l-75 -1q-2 0 -2 -3l-34 -187q13 6 35 16.5t41 20l39 19.5q3 -4 5 -10t4.5 -13t3.5 -10q-35 -16 -135 -64l-31 -176q-1 -10 5 -12.5
t29 -2.5q120 0 142 5q8 1 17 15l42 81q10 -2 34 -9q-27 -71 -51 -125h-240h-94q2 18 6 32l59 2q3 0 4 3z" />
    <glyph glyph-name="oe.sc" unicode="&#xf6fa;" horiz-adv-x="809" 
d="M522 235l-33 -188q-1 -9 6 -11.5t38 -2.5q118 0 143 5q11 3 17 16l36 71q12 -2 31 -10q-4 -12 -18.5 -52.5t-22.5 -62.5h-192h-90q1 6 4.5 29t5.5 36q-66 -75 -181 -75q-104 0 -167 68q-48 55 -48 151q0 79 34.5 141t82.5 97q72 52 178 52q55 0 98 -25.5t62 -60.5
q6 37 11 76h67h135h67q-9 -82 -13 -117q-5 0 -16 -0.5t-17 -0.5v67q0 13 -18 14q-31 4 -151 4q-9 0 -12 -2l-33 -186q98 0 145 2q21 0 24 15l9 37q12 1 34 1q-3 -14 -13 -72q-6 -35 -12 -72q-16 -1 -34 0l5 40q1 9 -3 12t-17 3q-43 1 -142 1zM102 213q0 -85 45 -138
q44 -50 123 -50q61 0 110 30t78 79q27 155 38 228q-20 45 -65.5 73.5t-99.5 28.5q-80 0 -137 -46q-92 -76 -92 -205z" />
    <glyph glyph-name="ogonek.sc" unicode="&#xf6fb;" horiz-adv-x="437" 
d="M256 26h34q-47 -60 -47 -98q0 -19 11 -28.5t29 -9.5q17 0 41 8q4 -17 5 -29q-38 -18 -67 -18q-25 0 -47.5 17.5t-22.5 47.5q0 43 64 110z" />
    <glyph glyph-name="ring.sc" unicode="&#xf6fc;" horiz-adv-x="437" 
d="M296 717q34 0 57 -20t23 -48q0 -37 -31 -63t-68 -26q-33 0 -57.5 19.5t-24.5 49.5q0 37 30.5 62.5t70.5 25.5zM292 685q-22 0 -39 -14.5t-17 -38.5q0 -17 13.5 -28.5t31.5 -11.5q20 0 36.5 15t16.5 39q0 19 -12 29t-30 10z" />
    <glyph glyph-name="scaron.sc" unicode="&#xf6fd;" horiz-adv-x="398" 
d="M29 130q17 3 36 1v-79q0 -8 4 -9q25 -18 78 -18q71 0 109 32q34 27 34 77q0 20 -7 35.5t-24.5 29t-31.5 22t-45 23.5q-52 25 -76 51.5t-24 67.5q0 31 18 59.5t44 45.5q47 31 123 31q68 0 105 -22q-6 -69 -11 -108q-5 -1 -17 -1.5t-17 -0.5l-1 71q0 4 -3 10q-20 15 -65 15
q-63 0 -91 -23q-38 -31 -38 -74q0 -19 5 -32.5t21.5 -26t28.5 -18.5l46 -23q58 -28 82.5 -56t24.5 -70q0 -65 -54 -110q-47 -40 -142 -40q-74 0 -123 23q2 19 5.5 58t5.5 59zM269 612q20 16 59 48t50 41q15 -15 21 -22q-17 -16 -59 -57.5t-60 -58.5q-22 0 -32 1
q-10 16 -37 57.5t-42 63.5q11 8 25 17q13 -15 40.5 -48.5t34.5 -41.5z" />
    <glyph glyph-name="tilde.sc" unicode="&#xf6fe;" horiz-adv-x="437" 
d="M345 561q-18 0 -53 28q-31 29 -44 29q-24 0 -40 -50q-20 0 -31 1q8 42 29.5 67t47.5 25q6 0 12 -2t10.5 -4t11 -6.5t10 -7t9.5 -7.5t8 -7q25 -21 37 -21q26 0 34 52h31q-5 -42 -23.5 -69.5t-48.5 -27.5z" />
    <glyph glyph-name="zcaron.sc" unicode="&#xf6ff;" horiz-adv-x="458" 
d="M382 143q15 -2 36 -8q-15 -47 -47 -136q-1 0 -90.5 0.5t-130.5 0.5h-140q-5 17 -8 30q154 157 387 419l-1 4q-214 0 -226 -2q-15 -4 -20 -18l-30 -82q-20 1 -36 6q24 90 37 132h75h257q2 -9 7 -35q-211 -236 -387 -416l2 -3q230 0 259 6q16 2 24 20zM291 612q20 16 58 48
t50 41q4 -3 7.5 -7t8 -8.5l6.5 -6.5q-21 -20 -66.5 -65t-52.5 -51q-22 0 -33 1q-10 16 -37 57.5t-42 63.5q18 12 26 17q11 -13 37.5 -45t37.5 -45z" />
    <glyph glyph-name="exclam.sc" unicode="&#xf721;" horiz-adv-x="240" 
d="M192 499q1 0 1 -2q-54 -246 -81 -368q-6 -1 -19 -2t-19 -1q17 103 27 171q14 88 29 192q27 10 62 10zM81 75q21 0 31 -13.5t10 -29.5t-13 -28.5t-30 -12.5q-20 0 -31.5 11t-11.5 28t13 31t32 14z" />
    <glyph glyph-name="dollar.oldstyle" unicode="&#xf724;" horiz-adv-x="377" 
d="M54 323q0 48 43.5 83t111.5 38q1 6 6.5 35.5t8.5 43.5q12 3 36 5q-2 -10 -7.5 -38.5t-8.5 -44.5q78 -2 110 -25q-4 -24 -26 -41q-44 29 -91 32q-4 -24 -9 -52t-11.5 -62.5t-9.5 -53.5q58 -18 86.5 -44t28.5 -69q0 -54 -45 -92t-116 -42q-7 -38 -15 -78q-22 -2 -33 -2
q9 49 14 80q-99 4 -138 30q7 28 28 42q48 -35 117 -38q29 168 32 182q-57 20 -84.5 43.5t-27.5 67.5zM98 326q0 -28 18.5 -43.5t58.5 -29.5q6 29 15 82.5t13 73.5q-42 1 -73.5 -23t-31.5 -60zM277 126q0 28 -19.5 45t-60.5 32q-8 -50 -30 -173q52 5 81 29.5t29 66.5z" />
    <glyph glyph-name="ampersand.sc" unicode="&#xf726;" horiz-adv-x="561" 
d="M527 30q-2 -17 -6 -30q-19 -1 -54.5 -2.5t-45.5 -1.5q-6 8 -22 32t-23 34q-29 -24 -47.5 -36t-59 -24t-89.5 -12q-72 1 -113 32q-44 36 -44 91q0 49 38.5 92t105.5 67l1 4q-67 44 -67 101q0 51 46 87q43 32 105 32q59 0 91 -30q30 -26 30 -69q0 -41 -32.5 -75.5
t-92.5 -56.5l2 -3q37 -29 74.5 -69t61.5 -75q42 50 53 116q1 9 -5 9l-50 2q5 25 6 29h80q10 0 33 0.5t37 0.5q-1 -12 -5 -31l-48 -2q-21 -94 -80 -153q4 -7 15.5 -22.5t15.5 -21.5q12 -14 27 -14zM149 380q0 -31 15 -50.5t51 -45.5q110 35 110 110q0 31 -21 52
q-19 18 -56 18q-44 0 -69 -21q-30 -27 -30 -63zM190 25q98 0 166 65q-85 114 -159 162q-54 -17 -88.5 -50.5t-34.5 -81.5t32 -71q32 -24 84 -24z" />
    <glyph glyph-name="zero.oldstyle" unicode="&#xf730;" horiz-adv-x="516" 
d="M232 -10q-82 0 -135 54q-56 56 -56 149q0 53 22 107t69 91q63 50 152 50q75 0 125 -47q58 -54 58 -151q0 -113 -74 -187q-66 -66 -161 -66zM239 28q71 0 123 54q54 57 54 157q0 82 -41 123q-39 41 -102 41q-68 0 -117 -45q-64 -59 -64 -165q0 -75 39 -120q42 -45 108 -45
z" />
    <glyph glyph-name="one.oldstyle" unicode="&#xf731;" horiz-adv-x="385" 
d="M19 34l129 3q3 0 5 4q33 185 57 329q-110 -30 -140 -39q-4 20 -6 31q38 13 89 33t82.5 33t32.5 13q3 0 2 -4q-29 -164 -71 -400l126 -3q-5 -26 -7 -35q-47 1 -148 1q-28 0 -80.5 -0.5t-76.5 -0.5q2 19 6 35z" />
    <glyph glyph-name="two.oldstyle" unicode="&#xf732;" horiz-adv-x="423" 
d="M366 40q-1 -19 -8 -40h-230h-117q0 3 -3 17.5t-4 23.5q112 54 167 87q81 48 115 89t34 85q0 48 -27 72q-31 27 -67 27q-78 0 -142 -79q-16 11 -27 27q73 92 178 92q65 0 101 -41q35 -35 35 -91q0 -113 -184 -214q-52 -27 -105 -50l1 -7q86 2 283 2z" />
    <glyph glyph-name="three.oldstyle" unicode="&#xf733;" horiz-adv-x="411" 
d="M215 159v-8q54 -5 84.5 -40.5t30.5 -83.5q0 -85 -67 -140.5t-179 -55.5q-87 0 -135 26q2 5 16 36q46 -23 127 -23q78 0 132 39.5t54 108.5q0 53 -38.5 83.5t-106.5 30.5q-31 0 -43 -1q0 6 -0.5 18.5t-1.5 18.5q92 2 151 41t59 100q0 37 -24 64t-73 27q-79 0 -137 -74
q-11 10 -28 23q68 92 178 92q62 0 98 -35.5t36 -88.5q0 -58 -36 -98.5t-97 -59.5z" />
    <glyph glyph-name="four.oldstyle" unicode="&#xf734;" horiz-adv-x="473" 
d="M243 -182q26 137 35 187q-17 0 -136.5 -0.5t-129.5 -0.5q-5 14 -15 44q28 30 85.5 94.5t87.5 97.5q23 25 86 95.5t96 105.5q35 0 52 -1q-37 -211 -72 -396q46 -1 104 -1q-1 -14 -7 -38h-104q-4 -21 -34 -185q-11 -2 -48 -2zM284 44l63 333h-5q-24 -27 -72.5 -83
t-82.5 -94q-96 -108 -131 -148q-6 -7 2 -7q26 0 124 -0.5t102 -0.5z" />
    <glyph glyph-name="five.oldstyle" unicode="&#xf735;" horiz-adv-x="406" 
d="M49 173l-3 4q27 108 66 252h127h144q-3 -17 -10 -41q-151 0 -226 -1q-4 -13 -50 -171q22 2 52 2q93 0 143 -48q45 -46 45 -118q0 -91 -63 -153q-70 -70 -195 -70q-69 0 -110 22q9 20 17 36q45 -18 98 -18q98 0 151 51q52 52 52 129q0 50 -30 83q-40 45 -134 45
q-18 0 -74 -4z" />
    <glyph glyph-name="six.oldstyle" unicode="&#xf736;" horiz-adv-x="461" 
d="M107 299l6 -1q68 81 162 81q63 0 100 -40q40 -45 40 -116q0 -46 -18.5 -95.5t-53.5 -84.5q-56 -53 -127 -53q-75 0 -121 41q-23 21 -38.5 60.5t-15.5 84.5q0 81 35 168t108 165q81 84 191 116q7 -12 13 -33q-97 -30 -168 -105q-71 -73 -113 -188zM214 27q53 0 93 38
q56 56 56 151q0 61 -28 93q-26 29 -74 29q-95 0 -162 -100q-6 -25 -6 -60q0 -76 41 -119q30 -32 80 -32z" />
    <glyph glyph-name="seven.oldstyle" unicode="&#xf737;" horiz-adv-x="410" 
d="M34 387q4 30 8 43q4 0 94.5 -0.5t139.5 -0.5h111q7 -19 11 -37q-47 -76 -110.5 -187.5t-126.5 -225t-83 -147.5q-2 1 -17 6.5t-22 9.5q53 92 155 277t144 259l-1 5q-223 0 -303 -2z" />
    </font>
</defs>
</svg>
